<svg xmlns="http://www.w3.org/2000/svg" viewBox="0 0 39.22 39.22"><defs><style>.cls-1{fill:#fff;}</style></defs><g id="Слой_2" data-name="Слой 2"><g id="Слой_1-2" data-name="Слой 1"><path class="cls-1" d="M37.27,11.08c-.62-1.3-2.74-1.39-3.28.76a17.1,17.1,0,0,1,1,13.69A14.19,14.19,0,0,1,28,33.81c-15.11,7.8-30.25-7.17-22.8-22.27a14.23,14.23,0,0,1,7.65-7c6.4-2.44,12.79-1.33,17.46,2.73,2.2-.09,2.57-2.15,1.44-3A19.57,19.57,0,0,0,19.61,0C5.79,0-4.74,14.37,2.19,29A17.13,17.13,0,0,0,10.26,37c14.58,6.93,29-3.6,29-17.42A19.39,19.39,0,0,0,37.27,11.08Zm-16-1.69C21.24,8,19.41,7,18,8.6V22.46H28.56c1.64-1.44.64-3.27-.78-3.27H21.24Z"/></g></g></svg>