<svg xmlns="http://www.w3.org/2000/svg" viewBox="0 0 99.32 94.4"><defs><style>.cls-1{fill:#fff;}</style></defs><g id="Слой_2" data-name="Слой 2"><g id="Слой_1-2" data-name="Слой 1"><path class="cls-1" d="M97.53,41.83,89.26,34.3V9A2.93,2.93,0,0,0,86.34,6H66.14A2.93,2.93,0,0,0,63.22,9v1.62L53.09,1.34a5.05,5.05,0,0,0-6.86,0L1.67,41.94a5.08,5.08,0,0,0-.89,6.48A5.23,5.23,0,0,0,5.26,50.8h7V91.48a2.92,2.92,0,0,0,2.92,2.92H39.56a2.92,2.92,0,0,0,2.92-2.92V66.78H56.84v24.7a2.92,2.92,0,0,0,2.92,2.92H84.18a2.92,2.92,0,0,0,2.92-2.92V50.8h7.12a5.08,5.08,0,0,0,5-4.19A5.21,5.21,0,0,0,97.53,41.83ZM84.18,45a2.92,2.92,0,0,0-2.92,2.92V88.56H62.68V63.86a2.92,2.92,0,0,0-2.92-2.92H39.56a2.92,2.92,0,0,0-2.92,2.92v24.7H18.06V47.88A2.92,2.92,0,0,0,15.14,45H7L49.66,6.11,64.14,19.3a2.91,2.91,0,0,0,4.93-2.12V11.87H83.42V35.59a3,3,0,0,0,1,2.16L92.29,45Z"/></g></g></svg>