<svg xmlns="http://www.w3.org/2000/svg" viewBox="0 0 206.89 206.89"><defs><style>.cls-1{fill:#002546;stroke:#0078c1;stroke-miterlimit:10;stroke-width:8px;}.cls-2{fill:#fff;}</style></defs><g id="Слой_2" data-name="Слой 2"><g id="Слой_1-2" data-name="Слой 1"><rect class="cls-1" x="4" y="4" width="198.89" height="198.89" rx="34.02"/><g id="outline"><path class="cls-2" d="M26.21,150.63A10.61,10.61,0,0,0,34.47,161l.43.1A192.43,192.43,0,0,0,78.08,166q4.78,0,9.59-.24l23.59-1.18a2.49,2.49,0,0,0,2.2-1.56l5.12-12.82a108.67,108.67,0,0,1,25-37.36v49.25a2.5,2.5,0,0,0,2.5,2.5h10a2.5,2.5,0,0,0,2.5-2.5v-42.6a33.11,33.11,0,0,1,4.71-17l3-5a25.59,25.59,0,0,0,.33-25.74l-8.47-18.26A10.95,10.95,0,0,0,139,52.22l-38.31,59.34,0,.06a37.62,37.62,0,0,1-32,18,2.33,2.33,0,0,0-.74.11l-34.24,10.7A10.61,10.61,0,0,0,26.21,150.63Zm127.39,9h-5v-5h5ZM89.49,129.18a42.53,42.53,0,0,0,15.44-14.94l38.29-59.31a5.94,5.94,0,0,1,7.57-2.13L137.31,71.47a212.12,212.12,0,0,0-25.73,47.29l-4.16,10.7A15,15,0,0,1,88,138c-.23-.09-.45-.18-.66-.28l-9.32-4.14A42.35,42.35,0,0,0,89.49,129.18Zm-21,5.63,16.82,7.48a20,20,0,0,0,26.37-10.14c.13-.29.25-.58.37-.88l4.16-10.69a207,207,0,0,1,25.12-46.19l12.75-17.65,8,17.27a1.62,1.62,0,0,0,.1.18A20.62,20.62,0,0,1,162,95l-3,4.94a38.13,38.13,0,0,0-5.43,19.6v30.11h-5V107.16a2.5,2.5,0,0,0-4.14-1.88A113.47,113.47,0,0,0,114,148.38l-4.54,11.32-22,1.1A187,187,0,0,1,36,156.25l-.43-.1a5.66,5.66,0,0,1-.41-10.92Z"/><path class="cls-2" d="M153.44,93.12a2.5,2.5,0,0,0,3.5-.5h0a14.42,14.42,0,0,0,.83-16.12,2.5,2.5,0,0,0-4.29,2.57,9.43,9.43,0,0,1-.54,10.55,2.49,2.49,0,0,0,.5,3.5Z"/><path class="cls-2" d="M47.9,152l.53.18a47.79,47.79,0,0,0,15.09,2.45H73.67a2.5,2.5,0,1,0,0-5H63.52A42.81,42.81,0,0,1,50,147.44l-.53-.18A2.5,2.5,0,0,0,47.9,152Z"/><path class="cls-2" d="M103.8,60.26l2.78,5.56a2.5,2.5,0,0,0,3.35,1.12A2.56,2.56,0,0,0,111,65.82l2.78-5.56a12.5,12.5,0,0,1,5.54-5.53L124.92,52a2.5,2.5,0,0,0,0-4.47l-5.56-2.78a12.47,12.47,0,0,1-5.54-5.54L111,33.61a2.49,2.49,0,0,0-3.35-1.12,2.46,2.46,0,0,0-1.11,1.12l-2.78,5.55a12.47,12.47,0,0,1-5.54,5.54L92.7,47.48a2.5,2.5,0,0,0-1.11,3.35A2.56,2.56,0,0,0,92.7,52l5.56,2.78A12.5,12.5,0,0,1,103.8,60.26Zm-3.3-11.09a17.53,17.53,0,0,0,7.77-7.77l.54-1.09.54,1.09a17.53,17.53,0,0,0,7.77,7.77l1.09.54-1.09.55A17.41,17.41,0,0,0,109.36,58l-.55,1.08L108.27,58a17.48,17.48,0,0,0-7.77-7.77l-1.09-.55Z"/><path class="cls-2" d="M89.9,75.6a7.46,7.46,0,0,1-3.32-3.32l-1.85-3.7a2.49,2.49,0,0,0-3.35-1.12,2.53,2.53,0,0,0-1.12,1.12l-1.85,3.7a7.41,7.41,0,0,1-3.32,3.32l-3.7,1.85a2.5,2.5,0,0,0-1.12,3.36,2.46,2.46,0,0,0,1.12,1.11l3.7,1.85a7.46,7.46,0,0,1,3.32,3.32l1.85,3.71a2.5,2.5,0,0,0,3.35,1.11,2.46,2.46,0,0,0,1.12-1.11l1.85-3.71a7.51,7.51,0,0,1,3.32-3.32l3.71-1.85a2.5,2.5,0,0,0,1.11-3.35,2.56,2.56,0,0,0-1.11-1.12Zm-7.4,8.55A12.57,12.57,0,0,0,78,79.69a12.52,12.52,0,0,0,4.47-4.47A12.49,12.49,0,0,0,87,79.69,12.54,12.54,0,0,0,82.5,84.15Z"/></g></g></g></svg>