<svg xmlns="http://www.w3.org/2000/svg" viewBox="0 0 206.89 206.89"><defs><style>.cls-1{fill:#002546;stroke:#0078c1;stroke-miterlimit:10;stroke-width:8px;}.cls-2{fill:#fff;}</style></defs><g id="Слой_2" data-name="Слой 2"><g id="Слой_1-2" data-name="Слой 1"><rect class="cls-1" x="4" y="4" width="198.89" height="198.89" rx="34.02"/><path class="cls-2" d="M135.54,31.42a2.42,2.42,0,0,0-3.06-1.55l-.86.28v-.94a2.43,2.43,0,0,0-4.86,0v.94l-.87-.28a2.43,2.43,0,0,0-1.51,4.62l.9.29-.57.79a2.43,2.43,0,0,0,2,3.85c1.42,0,2-1,2.51-1.75l.53.73a2.43,2.43,0,1,0,3.94-2.83l-.56-.79.89-.29A2.43,2.43,0,0,0,135.54,31.42Z"/><path class="cls-2" d="M159.57,57.5A2.43,2.43,0,0,0,156.5,56l-.86.28v-.94a2.43,2.43,0,1,0-4.86,0v.94l-.86-.28a2.43,2.43,0,0,0-1.52,4.62l.9.29-.56.78a2.43,2.43,0,1,0,3.94,2.84l.53-.74c.51.71,1.07,1.75,2.5,1.75a2.43,2.43,0,0,0,2-3.85l-.56-.78.9-.29A2.44,2.44,0,0,0,159.57,57.5Z"/><circle class="cls-2" cx="127.13" cy="51.89" r="2.43"/><circle class="cls-2" cx="166" cy="91.21" r="2.43"/><circle class="cls-2" cx="140.73" cy="72.62" r="2.43"/><circle class="cls-2" cx="166.98" cy="40.87" r="2.43"/><path class="cls-2" d="M122.09,57.63A4.85,4.85,0,0,0,119,55.91a2.43,2.43,0,0,0-.7,4.81L114,64.94a2.43,2.43,0,0,0-.7,2.15l1,6h0c-7.14-3.76-5.88-3.73-13,0h0l1-6a2.46,2.46,0,0,0-.7-2.15l-4.34-4.22,6-.87a2.42,2.42,0,0,0,1.82-1.33l2.69-5.43,1,2.14a2.43,2.43,0,1,0,4.36-2.15l-1.06-2.14a4.86,4.86,0,0,0-8.71,0l-2.12,4.28c-4.82.7-6.32.6-7.78,2.41a4.88,4.88,0,0,0-1.1,3.1c0,2.52,1.45,3.45,4.88,6.8l-.8,4.71a4.61,4.61,0,0,0-.07.84A4.76,4.76,0,0,0,98,76.54a4.86,4.86,0,0,0,3.39,1.39c1.52,0,2.05-.46,6.48-2.79h0l4.22,2.22a4.86,4.86,0,0,0,7.12-4.28,4.61,4.61,0,0,0-.07-.84l-.81-4.71,3.42-3.33A4.86,4.86,0,0,0,122.09,57.63Z"/><path class="cls-2" d="M178.63,100.8H146.3l1.15-1.13a5.47,5.47,0,0,0-3-9.33l-6.24-.91-2.79-5.65a5.47,5.47,0,0,0-9.81,0l-2.79,5.65-6.24.91a5.47,5.47,0,0,0-3,9.33l1.16,1.13H106a4.82,4.82,0,0,0-1.39-3.93L90.84,83.12a4.87,4.87,0,0,0-6.87,0l-8.46,8.46L66.2,82.27a8.9,8.9,0,0,0-14.9,4l-4.87,18.18A12.06,12.06,0,0,0,40,110.86l-18.17,4.87a8.9,8.9,0,0,0-4,14.9L27.15,140l-8.46,8.45a4.85,4.85,0,0,0,0,6.87L32.43,169a4.86,4.86,0,0,0,6.87,0l63.36-63.36H176.2v57.49a2.43,2.43,0,0,1-2.43,2.43h-82a2.43,2.43,0,0,1-2.42-2.43v-31a2.43,2.43,0,0,0-4.86,0h0v31a7.29,7.29,0,0,0,7.28,7.29h82a7.29,7.29,0,0,0,7.29-7.29V103.23A2.43,2.43,0,0,0,178.63,100.8ZM56,87.52a4,4,0,0,1,6.77-1.82L72.07,95,60.85,106.25l2.93-10.94a2.43,2.43,0,1,0-4.7-1.26l-2.82,10.53a11.83,11.83,0,0,0-4.55-1.1Zm-6.87,21.1a7.26,7.26,0,0,1,7.36,2l-10.3,10.29A7.28,7.28,0,0,1,49.12,108.62ZM21.27,127.2a4.05,4.05,0,0,1,1.81-6.78l16-4.27a12.3,12.3,0,0,0,1.1,4.55l-10.53,2.82a2.43,2.43,0,0,0,1.26,4.69l10.94-2.93L30.58,136.51Zm14.6,38.38L22.13,151.84,32.3,141.66h0L77.23,96.73h0L87.4,86.56l13.75,13.74ZM144.06,96.19l-4.72,4.61H121.63c-5.08-5-5-4.74-4.88-5.23s-.08-.34,8-1.51a2.45,2.45,0,0,0,1.83-1.33c3.62-7.34,3.38-7.14,3.9-7.14s.29-.2,3.91,7.14a2.43,2.43,0,0,0,1.83,1.33l7.5,1.09A.61.61,0,0,1,144.06,96.19Z"/></g></g></svg>