<svg xmlns="http://www.w3.org/2000/svg" viewBox="0 0 190.31 177.2"><defs><style>.cls-1{fill:#0078c1;}</style></defs><g id="Слой_2" data-name="Слой 2"><g id="Слой_1-2" data-name="Слой 1"><g id="outline"><path class="cls-1" d="M0,156.81a14.05,14.05,0,0,0,10.94,13.75l.56.13a254.25,254.25,0,0,0,57.19,6.51q6.34,0,12.7-.32l31.25-1.56a3.29,3.29,0,0,0,2.9-2.07l6.79-17a143.85,143.85,0,0,1,33.15-49.48V172a3.31,3.31,0,0,0,3.3,3.31H172a3.31,3.31,0,0,0,3.3-3.31V115.6a43.77,43.77,0,0,1,6.25-22.54l3.93-6.55a33.9,33.9,0,0,0,.43-34.09L174.71,28.24a14.5,14.5,0,0,0-25.32-1.76L98.66,105.07a.56.56,0,0,0,0,.08A49.82,49.82,0,0,1,56.24,129a3.65,3.65,0,0,0-1,.15L9.9,143.34A14,14,0,0,0,0,156.81Zm168.71,11.9h-6.62v-6.62h6.62ZM83.8,128.4a56.18,56.18,0,0,0,20.44-19.78L155,30.07a7.86,7.86,0,0,1,10-2.82L147.12,52a281.6,281.6,0,0,0-34.06,62.63l-5.51,14.17a19.83,19.83,0,0,1-25.67,11.3c-.3-.11-.59-.23-.88-.36l-12.33-5.48A56.34,56.34,0,0,0,83.8,128.4ZM56,135.85l22.28,9.9a26.45,26.45,0,0,0,34.92-13.42c.17-.38.33-.77.48-1.16L119.22,117a274.6,274.6,0,0,1,33.27-61.15l16.89-23.39L180,55.33a2,2,0,0,0,.13.25,27.26,27.26,0,0,1-.3,27.53l-3.92,6.54a50.38,50.38,0,0,0-7.19,25.95v39.88h-6.62V99.24a3.3,3.3,0,0,0-5.48-2.49,150.48,150.48,0,0,0-40.42,57.07l-6,15-29.13,1.46a247.69,247.69,0,0,1-68.07-6l-.56-.13a7.5,7.5,0,0,1-.55-14.46Z"/><path class="cls-1" d="M168.49,80.64a3.3,3.3,0,0,0,4.63-.66h0a19.08,19.08,0,0,0,1.1-21.35A3.31,3.31,0,1,0,168.55,62a12.5,12.5,0,0,1-.72,14,3.3,3.3,0,0,0,.66,4.63Z"/><path class="cls-1" d="M28.73,158.62l.7.23a62.82,62.82,0,0,0,20,3.24H62.85a3.31,3.31,0,1,0,0-6.61H49.41a56.66,56.66,0,0,1-17.89-2.9l-.7-.24a3.31,3.31,0,1,0-2.09,6.28Z"/><path class="cls-1" d="M102.75,37.13l3.68,7.36a3.31,3.31,0,0,0,5.92,0L116,37.13a16.45,16.45,0,0,1,7.33-7.33l7.36-3.68a3.31,3.31,0,0,0,0-5.92l-7.36-3.68A16.45,16.45,0,0,1,116,9.19l-3.68-7.36a3.31,3.31,0,0,0-5.92,0l-3.68,7.36a16.45,16.45,0,0,1-7.33,7.33L88.06,20.2a3.31,3.31,0,0,0,0,5.92l7.36,3.68A16.45,16.45,0,0,1,102.75,37.13ZM98.38,22.44a23.22,23.22,0,0,0,10.29-10.29l.72-1.44.72,1.44A23.12,23.12,0,0,0,120.4,22.44l1.44.72-1.44.72a23.07,23.07,0,0,0-10.29,10.29l-.72,1.44-.72-1.44A23.12,23.12,0,0,0,98.38,23.88l-1.44-.72Z"/><path class="cls-1" d="M84.35,57.44A9.89,9.89,0,0,1,80,53.05L77.5,48.14a3.31,3.31,0,0,0-5.92,0l-2.45,4.91a9.86,9.86,0,0,1-4.39,4.39L59.83,59.9a3.3,3.3,0,0,0,0,5.91l4.91,2.46a9.86,9.86,0,0,1,4.39,4.39l2.45,4.91a3.32,3.32,0,0,0,5.92,0L80,72.66a9.89,9.89,0,0,1,4.4-4.39l4.9-2.46a3.3,3.3,0,0,0,1.48-4.44,3.34,3.34,0,0,0-1.48-1.47ZM74.54,68.77a16.6,16.6,0,0,0-5.91-5.92,16.49,16.49,0,0,0,5.91-5.91,16.49,16.49,0,0,0,5.91,5.91A16.6,16.6,0,0,0,74.54,68.77Z"/></g></g></g></svg>