<svg xmlns="http://www.w3.org/2000/svg" viewBox="0 0 28.67 25.11"><defs><style>.cls-1{fill:#fff;}</style></defs><g id="Слой_2" data-name="Слой 2"><g id="Слой_1-2" data-name="Слой 1"><path class="cls-1" d="M.52.52h0A1.78,1.78,0,0,0,.52,3L8.79,11.3a1.78,1.78,0,0,1,0,2.51L.52,22.08a1.78,1.78,0,0,0,0,2.51h0a1.76,1.76,0,0,0,2.51,0L13.81,13.81a1.76,1.76,0,0,0,0-2.51L3,.52A1.78,1.78,0,0,0,.52.52Z"/><path class="cls-1" d="M14.86.52h0a1.76,1.76,0,0,0,0,2.51l8.26,8.27a1.78,1.78,0,0,1,0,2.51l-8.26,8.27a1.76,1.76,0,0,0,0,2.51h0a1.76,1.76,0,0,0,2.51,0L28.15,13.81a1.78,1.78,0,0,0,0-2.51L17.37.52A1.78,1.78,0,0,0,14.86.52Z"/></g></g></svg>