<svg xmlns="http://www.w3.org/2000/svg" viewBox="0 0 43.23 43.23"><defs><style>.cls-1{fill:#fff;}</style></defs><g id="Слой_2" data-name="Слой 2"><g id="Слой_1-2" data-name="Слой 1"><path class="cls-1" d="M40.53,3.6h-6.3V1.35a1.35,1.35,0,0,0-2.7,0V3.6H11.71V1.35a1.35,1.35,0,0,0-2.7,0V3.6H2.7A2.7,2.7,0,0,0,0,6.31V40.53a2.7,2.7,0,0,0,2.7,2.7H40.53a2.7,2.7,0,0,0,2.7-2.7V6.31A2.7,2.7,0,0,0,40.53,3.6ZM2.7,6.31H9V9.46a1.35,1.35,0,0,0,2.7,0V6.31H31.53V9.46a1.35,1.35,0,1,0,2.7,0V6.31h6.3v8.1H2.7ZM40.53,40.53H2.7V17.11H40.53Z"/></g></g></svg>