<svg xmlns="http://www.w3.org/2000/svg" viewBox="0 0 106.46 86.04"><defs><style>.cls-1{fill:#fff;}</style></defs><g id="Слой_2" data-name="Слой 2"><g id="Слой_1-2" data-name="Слой 1"><path class="cls-1" d="M106.32,81.61C100.45,61,98.1,46,81.12,31.83a60.55,60.55,0,0,0-29.8-13.4V3.48A3.47,3.47,0,0,0,46,.57L1.58,29.43a3.47,3.47,0,0,0,0,5.82L46,64.12a3.47,3.47,0,0,0,5.36-2.91V47.43c24.86,3.36,34.46,19.17,48.95,37.3A3.47,3.47,0,0,0,106.32,81.61ZM91.68,62.87A61,61,0,0,0,48.07,40.13h-.22a3.47,3.47,0,0,0-3.47,3.47V54.81L9.84,32.34,44.38,9.87V21.49A3.47,3.47,0,0,0,47.51,25c21,2.07,39.89,15.57,47.41,42Z"/></g></g></svg>