<svg xmlns="http://www.w3.org/2000/svg" viewBox="0 0 206.89 206.89"><defs><style>.cls-1{fill:#002546;stroke:#0078c1;stroke-miterlimit:10;stroke-width:8px;}.cls-2{fill:#fff;}</style></defs><g id="Слой_2" data-name="Слой 2"><g id="Слой_1-2" data-name="Слой 1"><rect class="cls-1" x="4" y="4" width="198.89" height="198.89" rx="34.02"/><path class="cls-2" d="M93.51,68.3a3,3,0,0,1,3,3h6a9.08,9.08,0,1,0-18.15,0h6A3,3,0,0,1,93.51,68.3Z"/><path class="cls-2" d="M117.71,68.3a3,3,0,0,1,3,3h6.05a9.08,9.08,0,1,0-18.15,0h6A3,3,0,0,1,117.71,68.3Z"/><path class="cls-2" d="M160.29,133.15a29.63,29.63,0,0,0-6.72-6.13,9.07,9.07,0,0,0,7.18-8.87V87.9a9.08,9.08,0,0,0-9.07-9.07h-2.93A12,12,0,0,0,146,71.24l2-9.78a36.53,36.53,0,0,0,.7-7.07A36.11,36.11,0,0,0,112.6,18.33H106a23.7,23.7,0,0,0-15.84,6.08A32.64,32.64,0,0,0,58.88,65l1.64,6.57A12,12,0,0,0,58,78.83H54.88a9.08,9.08,0,0,0-9.07,9.07v30.25A9.09,9.09,0,0,0,53.05,127a29.61,29.61,0,0,0-13.2,24.69v54.15h127V151.72a29.84,29.84,0,0,0-6.51-18.57Zm-8.61-48.27a3,3,0,0,1,3,3v30.25a3,3,0,0,1-3,3H135.31L121,118.57l-2.06-10.33a33.46,33.46,0,0,0,15.43-17.31h2.31a12.06,12.06,0,0,0,10.42-6.05ZM89.3,54.63a13.12,13.12,0,0,1,7.31,2.22l7.06,4.7,2.78-2.78a14.13,14.13,0,0,1,24.12,9.94l0,10.12a27.23,27.23,0,0,1-54.45,0l0-11A13.18,13.18,0,0,1,89.3,54.63ZM142,60.27l-1.43,7.17a12,12,0,0,0-3.94-.71h-.14a19.93,19.93,0,0,0-2-7,9.06,9.06,0,0,1,8.14-5.11,30.49,30.49,0,0,1-.58,5.64Zm-5.39,12.51h0a6,6,0,0,1,0,12.1h-.58a33.65,33.65,0,0,0,.58-6.06ZM93.45,110.59a33.4,33.4,0,0,0,19.76,0l1.88,9.41A17,17,0,0,1,104,124.2H102.7a17.41,17.41,0,0,1-11.15-4.09Zm48.59-62a15.08,15.08,0,0,0-11.39,5.83,20.57,20.57,0,0,0-5.27-3.76,9.06,9.06,0,0,1,8.15-5.14V39.51a15.1,15.1,0,0,0-14,9.34,20.36,20.36,0,0,0-3.14-.27,19.93,19.93,0,0,0-3.2.27,20.53,20.53,0,0,1,17.47-14.72l3.6-.4A30,30,0,0,1,142,48.63ZM106,24.38h6.65a29.76,29.76,0,0,1,15.07,4.1,26.62,26.62,0,0,0-21.12,22.7,19.91,19.91,0,0,0-3.63,2.6L100.26,52V48.06a17.52,17.52,0,0,1,5.16-12.47l-4.28-4.28a23.56,23.56,0,0,0-6.93,16.75v1.2a19.48,19.48,0,0,0-4.88-.68l-.26-.78A17.8,17.8,0,0,1,106,24.38ZM84.88,31.06a23.67,23.67,0,0,0-1.59,18.49A19.14,19.14,0,0,0,70.12,66.73h0a12,12,0,0,0-4.33.84l-1-4.08A26.61,26.61,0,0,1,84.88,31.06ZM70.08,72.78l0,6a33.54,33.54,0,0,0,.58,6H70.1a6.05,6.05,0,0,1,0-12.1ZM51.86,118.15V87.9a3,3,0,0,1,3-3h4.8A12.06,12.06,0,0,0,70.1,90.93h2.31A33.43,33.43,0,0,0,87.76,108.2l-2.07,10.37-14.35,2.61H54.88A3,3,0,0,1,51.86,118.15Zm108.89,81.68H45.9V151.72a23.69,23.69,0,0,1,19.45-23.3l22-4a23.45,23.45,0,0,0,15.38,5.83H104a23.15,23.15,0,0,0,15.37-5.83l22,4a23.69,23.69,0,0,1,19.45,23.3Z"/><path class="cls-2" d="M96.54,82.94l-.16-.47-5.73,1.91.15.47a15.62,15.62,0,0,0,29.63,0l.15-.47-5.74-1.91-.15.47a9.57,9.57,0,0,1-18.15,0Z"/><path class="cls-2" d="M110.93,143.93H100.11a37.65,37.65,0,0,1-31.4-16.81l-5,3.36A43.7,43.7,0,0,0,100.11,150h10.82a43.7,43.7,0,0,0,36.43-19.5l-5-3.35A37.67,37.67,0,0,1,110.93,143.93Z"/><path class="cls-2" d="M96.45,156h6V189.3h-6Z"/><path class="cls-2" d="M66.23,183l3-33.28,6,.55-3,33.28Z"/><path class="cls-2" d="M135.86,150.21l6-.56,3.05,33.28-6,.55Z"/></g></g></svg>