<svg xmlns="http://www.w3.org/2000/svg" viewBox="0 0 206.89 206.89"><defs><style>.cls-1{fill:#002546;stroke:#0078c1;stroke-miterlimit:10;stroke-width:8px;}.cls-2{fill:#fff;}</style></defs><g id="Слой_2" data-name="Слой 2"><g id="Слой_1-2" data-name="Слой 1"><rect class="cls-1" x="4" y="4" width="198.89" height="198.89" rx="34.02"/><path class="cls-2" d="M56.05,83.92a3.16,3.16,0,1,0,3.15,3.16A3.17,3.17,0,0,0,56.05,83.92Z"/><path class="cls-2" d="M131.79,90.23H116V74.46a3.16,3.16,0,0,0-3.16-3.16H93.92a3.15,3.15,0,0,0-3.16,3.16V90.23H75a3.16,3.16,0,0,0-3.15,3.16v18.93A3.15,3.15,0,0,0,75,115.48H90.76v15.78a3.15,3.15,0,0,0,3.16,3.15h18.93a3.16,3.16,0,0,0,3.16-3.15V115.48h15.78a3.15,3.15,0,0,0,3.15-3.16V93.39A3.16,3.16,0,0,0,131.79,90.23Zm-3.16,18.94H112.85a3.15,3.15,0,0,0-3.15,3.15V128.1H97.07V112.32a3.15,3.15,0,0,0-3.15-3.15H78.14V96.55H93.92a3.16,3.16,0,0,0,3.15-3.16V77.61H109.7V93.39a3.16,3.16,0,0,0,3.15,3.16h15.78Z"/><path class="cls-2" d="M152.1,34.93a31.55,31.55,0,0,1-41.35-6.23h0A9.55,9.55,0,0,0,96,28.7a31.55,31.55,0,0,1-41.35,6.23c-6.24-4.05-14.4.72-14.4,8.07v64.36A65.79,65.79,0,0,0,53.2,146.75c20.63,27.43,47.79,39.3,48.94,39.79a3.11,3.11,0,0,0,2.49,0c1.15-.49,28.31-12.36,48.94-39.78a65.85,65.85,0,0,0,12.93-39.4V43C166.5,35.65,158.34,30.88,152.1,34.93Zm-3.58,108c-17.15,22.81-39.65,34.57-45.14,37.21C97.9,177.54,75.44,165.82,58.25,143a59.43,59.43,0,0,1-11.67-35.6V43a3.11,3.11,0,0,1,4.65-2.78,37.86,37.86,0,0,0,49.62-7.46,3.23,3.23,0,0,1,5.06,0,37.88,37.88,0,0,0,49.63,7.46A3.12,3.12,0,0,1,160.19,43v64.36h0A59.43,59.43,0,0,1,148.52,143Z"/><path class="cls-2" d="M152.54,50.48a3.16,3.16,0,0,0-2.87-.4,43.84,43.84,0,0,1-14.73,2.54,44.19,44.19,0,0,1-29.45-11.27,3.16,3.16,0,0,0-4.21,0A44.19,44.19,0,0,1,71.83,52.62,43.84,43.84,0,0,1,57.1,50.08a3.16,3.16,0,0,0-4.21,3v21.4a3.16,3.16,0,0,0,6.31,0V57.32a50.28,50.28,0,0,0,12.63,1.61,50.48,50.48,0,0,0,31.56-11.1,50.45,50.45,0,0,0,31.55,11.1,50.22,50.22,0,0,0,12.63-1.61v50a46.75,46.75,0,0,1-9.14,28,116.75,116.75,0,0,1-35,30.54C94.84,161,80.17,151.1,68.33,135.37a46.81,46.81,0,0,1-9.13-28V99.7a3.16,3.16,0,0,0-6.31,0v7.66a53.17,53.17,0,0,0,10.4,31.81c13.27,17.64,29.88,28.32,38.6,33.12a3.16,3.16,0,0,0,1.52.39,3.12,3.12,0,0,0,1.51-.39,123.32,123.32,0,0,0,38.56-33.13,53.09,53.09,0,0,0,10.4-31.8V53.06A3.15,3.15,0,0,0,152.54,50.48Z"/></g></g></svg>