<svg xmlns="http://www.w3.org/2000/svg" viewBox="0 0 206.89 206.89"><defs><style>.cls-1{fill:#002546;stroke:#0078c1;stroke-miterlimit:10;stroke-width:8px;}.cls-2{fill:#fff;}</style></defs><g id="Слой_2" data-name="Слой 2"><g id="Слой_1-2" data-name="Слой 1"><rect class="cls-1" x="4" y="4" width="198.89" height="198.89" rx="34.02"/><path class="cls-2" d="M164.72,21.46H58.23a5.08,5.08,0,0,0-5.07,5.07V62h5.07V26.53H78.51V36.67H65.83a2.54,2.54,0,0,0-2.53,2.54V62h5.07V41.75H78.51v5.07a5.08,5.08,0,0,0,5.07,5.07h55.79a5.08,5.08,0,0,0,5.07-5.07V41.75h10.14V102.6h5.07V39.21a2.54,2.54,0,0,0-2.53-2.54H144.44V26.53h20.28V178.67H58.23V163.46H53.16v17.75a2.53,2.53,0,0,0,2.53,2.53h109a5.07,5.07,0,0,0,5.07-5.07V26.53A5.08,5.08,0,0,0,164.72,21.46ZM139.37,46.82H83.58V26.53h55.79Z"/><path class="cls-2" d="M159.65,107.67h-5.07v35.5H129.22a2.54,2.54,0,0,0-2.53,2.54v22.82H68.37v-5.07H63.3v7.6a2.54,2.54,0,0,0,2.53,2.54h63.39l.35,0,.08,0h.09l.06,0h0l.21-.05h0l.21-.08h0l.2-.1h0l.09-.06,0,0,.06,0,0,0,.07,0,.05-.05,0,0,.09-.08,27.89-25.35.12-.12s0,0,0,0l.09-.11s0,0,0,0a1.13,1.13,0,0,0,.1-.13l0,0,.07-.11,0,0,.08-.14a.05.05,0,0,1,0,0,.61.61,0,0,1,.05-.12s0,0,0,0a.88.88,0,0,0,.05-.15v0a.57.57,0,0,0,0-.14s0,0,0,0a1.86,1.86,0,0,0,0-.34s0,0,0,0V107.67Zm-27.89,40.57h18.8l-12.32,11.2-6.48,5.89Z"/><path class="cls-2" d="M88.65,34.14h5.08v5.07H88.65Z"/><path class="cls-2" d="M129.22,34.14h5.08v5.07h-5.08Z"/><path class="cls-2" d="M141.9,62H83.58a2.54,2.54,0,0,0-2.53,2.54V74.71h5.07V67.1h53.25v35.5h-38v5.07H141.9a2.54,2.54,0,0,0,2.54-2.53V64.57A2.54,2.54,0,0,0,141.9,62Z"/><path class="cls-2" d="M98.8,117.81h27.89v5.08H98.8Z"/><path class="cls-2" d="M131.76,117.81H147v5.08H131.76Z"/><path class="cls-2" d="M91.19,133h27.89v5.07H91.19Z"/><path class="cls-2" d="M124.15,133H147v5.07H124.15Z"/><path class="cls-2" d="M78.51,148.24h43.11v5.07H78.51Z"/><path class="cls-2" d="M98.8,34.14h25.35v5.07H98.8Z"/><path class="cls-2" d="M58.23,158.38a2.52,2.52,0,0,0,1.52-.5l11.19-8.4a63.17,63.17,0,0,0,24.39-39.69l3.43-19.43a2.53,2.53,0,0,0-1.3-2.67l-38-20.29a2.51,2.51,0,0,0-2.38,0L19,87.69a2.52,2.52,0,0,0-1.3,2.67l3.4,19.29a63.21,63.21,0,0,0,24.08,39.47l11.52,8.75a2.54,2.54,0,0,0,1.53.51ZM26.09,108.77,23,91.29,58.23,72.51,93.44,91.29l-3.1,17.62A58.21,58.21,0,0,1,67.9,145.43l-9.66,7.24-10-7.59A58.16,58.16,0,0,1,26.09,108.77Z"/><path class="cls-2" d="M68,140A47,47,0,0,0,86.1,110.45l2.51-14.24a2.54,2.54,0,0,0-1.3-2.68L74.63,86.77l-2.39,4.47,11.06,5.9-2.19,12.43a42,42,0,0,1-16.2,26.36l-6.67,5-6.93-5.26a42,42,0,0,1-16-26.2L33.15,97.14l11.06-5.9-2.39-4.47L29.14,93.53a2.54,2.54,0,0,0-1.3,2.68l2.49,14.14a47,47,0,0,0,17.91,29.36l8.45,6.42a2.6,2.6,0,0,0,1.54.52,2.53,2.53,0,0,0,1.52-.51Z"/><path class="cls-2" d="M58.22,83.77l9,4.77,2.38-4.47L59.42,78.65a2.59,2.59,0,0,0-2.39,0L46.89,84.06l2.39,4.48Z"/><path class="cls-2" d="M55.6,122.89h.09A2.54,2.54,0,0,0,57.6,122l17.75-20.28L71.53,98.4,55.84,116.33l-5.73-7.64-4,3,7.6,10.14a2.56,2.56,0,0,0,1.94,1Z"/><path class="cls-2" d="M55.69,92.46h5.07v5.07H55.69Z"/><path class="cls-2" d="M55.69,128h5.07V133H55.69Z"/></g></g></svg>