<svg xmlns="http://www.w3.org/2000/svg" viewBox="0 0 206.89 206.89"><defs><style>.cls-1{fill:#0077c0;}.cls-2{fill:none;stroke:#0077c0;stroke-miterlimit:10;stroke-width:8px;}</style></defs><g id="Слой_2" data-name="Слой 2"><g id="Слой_2-2" data-name="Слой 2"><path class="cls-1" d="M165.37,34.76A13.28,13.28,0,0,0,152.11,21.5H62a13.26,13.26,0,0,0-13.25,13L27.57,182.77a.34.34,0,0,1,0,.1v0a2.26,2.26,0,0,0,0,.26h0a2.17,2.17,0,0,0,0,.26v0a2,2,0,0,0,0,.24v0a1.6,1.6,0,0,0,.05.21l0,.06.06.18a.43.43,0,0,1,0,.07,1,1,0,0,0,.07.15.59.59,0,0,0,0,.08l.09.14a.35.35,0,0,0,.05.08l.09.12.07.08.1.12.07.07.12.1.07.06.13.1.08.05.13.08.1.05.13.07.11,0,.13,0,.13,0,.12,0,.14,0h.11a1.87,1.87,0,0,0,.34,0H40.8l.26,0h.08l.17,0,.11,0,.12,0,.13,0,.1,0,.13-.05.09-.05.13-.06.09-.06.11-.07.09-.07.1-.08.1-.09.08-.07.11-.13.05,0,.15-.2,0,0,.1-.18a.2.2,0,0,0,0-.08.91.91,0,0,0,.07-.14.36.36,0,0,0,0-.11l0-.12,0-.13,0-.11,0-.13s0,0,0-.08l5.33-37.32v42.25a2.65,2.65,0,0,0,2.65,2.65H67.3A2.65,2.65,0,0,0,70,188.45v-10.6h74.21v10.6a2.65,2.65,0,0,0,2.65,2.65H162.7a2.65,2.65,0,0,0,2.65-2.65v-13a2.83,2.83,0,0,0,0-.29ZM38.5,180.5H33.26L48.75,72.05V108.7Zm15.55-73.37V34.87a.34.34,0,0,0,0-.1h0a8,8,0,0,1,8-8h90.1a8,8,0,0,1,8,8V172.55h-106V109.1l.11-.77A2.56,2.56,0,0,0,54.05,107.13Zm10.6,78.67H54.05v-8h10.6Zm95.4-8v8H149.46v-8Z"/><path class="cls-1" d="M62,167.27h90.1a2.65,2.65,0,0,0,2.65-2.65V42.72a2.65,2.65,0,0,0-2.65-2.65H62a2.65,2.65,0,0,0-2.65,2.65v121.9A2.65,2.65,0,0,0,62,167.27Zm2.65-121.9h84.8V162H64.66Z"/><path class="cls-1" d="M85.84,101a2.65,2.65,0,0,0,2.65,2.64h31.8a2.65,2.65,0,1,0,0-5.29h-2.93A18.59,18.59,0,0,0,121.14,93h4.45a8,8,0,0,0,0-15.91,7.83,7.83,0,0,0-2.66.46v-.46a2.65,2.65,0,0,0-2.65-2.65H88.5a2.65,2.65,0,0,0-2.65,2.65V85s0,.07,0,.11a18.52,18.52,0,0,0,5.59,13.25H88.49A2.65,2.65,0,0,0,85.84,101Zm39.75-18.55a2.66,2.66,0,0,1,0,5.31h-2.84a19.48,19.48,0,0,0,.19-2.66V85A2.65,2.65,0,0,1,125.59,82.42ZM91.14,85.14s0,0,0-.07v-5.3h26.48v5.3h0s0,.09,0,.13a13.25,13.25,0,0,1-26.5-.07Z"/><path class="cls-1" d="M104.39,71.82A2.65,2.65,0,0,0,107,69.17V58.56a2.65,2.65,0,1,0-5.3,0V69.17A2.65,2.65,0,0,0,104.39,71.82Z"/><path class="cls-1" d="M115,71.82a2.65,2.65,0,0,0,2.65-2.65v-5.3a2.65,2.65,0,0,0-5.3,0v5.3A2.65,2.65,0,0,0,115,71.82Z"/><path class="cls-1" d="M93.79,71.82a2.65,2.65,0,0,0,2.65-2.65v-5.3a2.65,2.65,0,1,0-5.3,0v5.3A2.65,2.65,0,0,0,93.79,71.82Z"/><path class="cls-1" d="M138.91,114.25h0a2.65,2.65,0,1,0,2.68,2.65A2.65,2.65,0,0,0,138.88,114.25Z"/><path class="cls-1" d="M138.91,124.85h0a2.65,2.65,0,1,0,2.68,2.65A2.64,2.64,0,0,0,138.88,124.85Z"/><path class="cls-1" d="M138.91,135.44h0a2.65,2.65,0,1,0,2.68,2.65A2.64,2.64,0,0,0,138.88,135.44Z"/><path class="cls-1" d="M138.91,146h0a2.65,2.65,0,1,0,2.68,2.65A2.64,2.64,0,0,0,138.88,146Z"/><path class="cls-1" d="M130.9,114.25H120.3a2.65,2.65,0,0,0,0,5.3h10.6a2.65,2.65,0,1,0,0-5.3Z"/><path class="cls-1" d="M75.25,119.55h29.17a2.65,2.65,0,0,0,0-5.3H75.25a2.65,2.65,0,0,0,0,5.3Z"/><path class="cls-1" d="M75.25,130.15H93.81a2.65,2.65,0,0,0,0-5.3H75.25a2.65,2.65,0,0,0,0,5.3Z"/><path class="cls-1" d="M107.08,135.45H75.25a2.65,2.65,0,0,0,0,5.3h31.83a2.65,2.65,0,0,0,0-5.3Z"/><path class="cls-1" d="M99.12,146.05H75.25a2.65,2.65,0,1,0,0,5.3H99.12a2.65,2.65,0,1,0,0-5.3Z"/><path class="cls-1" d="M130.9,124.85h-5.3a2.65,2.65,0,1,0,0,5.3h5.3a2.65,2.65,0,1,0,0-5.3Z"/><path class="cls-1" d="M130.9,135.45h-2.64a2.65,2.65,0,1,0,0,5.3h2.64a2.65,2.65,0,0,0,0-5.3Z"/><path class="cls-1" d="M130.9,146.05h-8a2.65,2.65,0,1,0,0,5.3h8a2.65,2.65,0,1,0,0-5.3Z"/><rect class="cls-2" x="4" y="4" width="198.89" height="198.89" rx="34.02"/></g></g></svg>