<svg xmlns="http://www.w3.org/2000/svg" viewBox="0 0 200.1 200.1"><defs><style>.cls-1{fill:#0077c0;}.cls-2{fill:none;stroke:#0077c0;stroke-miterlimit:10;stroke-width:8px;}</style></defs><g id="Слой_2" data-name="Слой 2"><g id="Слой_1-2" data-name="Слой 1"><path class="cls-1" d="M99.46,56.86A53.14,53.14,0,1,0,152.6,110,53.19,53.19,0,0,0,99.46,56.86Zm0,101.84A48.71,48.71,0,1,1,148.17,110,48.76,48.76,0,0,1,99.46,158.7Z"/><path class="cls-1" d="M164.78,30.33a10,10,0,0,0-8.28,4.43H35.3a2.22,2.22,0,0,0,0,4.43H154.88a8.76,8.76,0,0,0,0,2.21H35.3a2.22,2.22,0,0,0,0,4.43H57.44V67.52a59.78,59.78,0,1,0,84.14.09V45.83H156.5a10,10,0,1,0,8.28-15.5ZM99.46,50.22a59.43,59.43,0,0,0-30.95,8.65v-13h62V58.92A59.43,59.43,0,0,0,99.46,50.22ZM61.87,45.83h2.22v16c-.76.56-1.5,1.13-2.22,1.72ZM154.81,110A55.35,55.35,0,1,1,67.29,65a2.29,2.29,0,0,0,.54-.38,55.31,55.31,0,0,1,87,45.39ZM137.15,63.63c-.72-.59-1.46-1.17-2.22-1.72V45.83h2.22Zm27.63-17.8a5.54,5.54,0,1,1,5.54-5.53A5.54,5.54,0,0,1,164.78,45.83Z"/><path class="cls-1" d="M126.05,101.2a8.79,8.79,0,0,0-4.43,1.19v-1.2A2.21,2.21,0,0,0,119.41,99H75.13a2.21,2.21,0,0,0-2.22,2.21v8.86A24.34,24.34,0,0,0,83.29,130H75.13a2.22,2.22,0,1,0,0,4.43h44.28a2.22,2.22,0,0,0,0-4.43h-8.17A24.51,24.51,0,0,0,120,118.91h6.1a8.86,8.86,0,1,0,0-17.71ZM97.27,130a20,20,0,0,1-19.93-19.92v-6.64h39.85v6.64A20,20,0,0,1,97.27,130Zm28.78-15.49h-4.84a24.5,24.5,0,0,0,.41-4.31v-.12a4.43,4.43,0,1,1,4.43,4.43Z"/><path class="cls-1" d="M97.27,96.76a2.21,2.21,0,0,0,2.21-2.21V81.26a2.22,2.22,0,0,0-4.43,0V94.55A2.21,2.21,0,0,0,97.27,96.76Z"/><path class="cls-1" d="M108.34,96.76a2.21,2.21,0,0,0,2.21-2.21V87.91a2.22,2.22,0,0,0-4.43,0v6.64A2.21,2.21,0,0,0,108.34,96.76Z"/><path class="cls-1" d="M86.2,96.76a2.21,2.21,0,0,0,2.21-2.21V87.91a2.22,2.22,0,0,0-4.43,0v6.64A2.21,2.21,0,0,0,86.2,96.76Z"/><rect class="cls-2" x="4" y="4" width="192.1" height="192.1" rx="34.02"/></g></g></svg>