<svg xmlns="http://www.w3.org/2000/svg" xmlns:xlink="http://www.w3.org/1999/xlink" viewBox="0 0 318.22 318.22"><defs><style>.cls-1{fill:url(#Безымянный_градиент_6);}.cls-2{fill:url(#Безымянный_градиент_6-2);}.cls-3{fill:url(#Безымянный_градиент_6-3);}.cls-4{fill:url(#Безымянный_градиент_6-4);}.cls-5{fill:url(#Безымянный_градиент_6-5);}.cls-6{fill:url(#Безымянный_градиент_6-6);}.cls-7{fill:url(#Безымянный_градиент_6-7);}.cls-8{fill:url(#Безымянный_градиент_6-8);}.cls-9{fill:url(#Безымянный_градиент_6-9);}.cls-10{fill:url(#Безымянный_градиент_6-10);}.cls-11{fill:url(#Безымянный_градиент_6-11);}.cls-12{fill:url(#Безымянный_градиент_6-12);}.cls-13{fill:url(#Безымянный_градиент_6-13);}.cls-14{fill:url(#Безымянный_градиент_6-14);}.cls-15{fill:url(#Безымянный_градиент_6-15);}.cls-16{fill:url(#Безымянный_градиент_6-16);}.cls-17{fill:url(#Безымянный_градиент_6-17);}.cls-18{fill:url(#Безымянный_градиент_6-18);}.cls-19{fill:url(#Безымянный_градиент_6-19);}.cls-20{fill:url(#Безымянный_градиент_6-20);}.cls-21{fill:url(#Безымянный_градиент_6-21);}.cls-22{fill:url(#Безымянный_градиент_6-22);}.cls-23{fill:url(#Безымянный_градиент_6-23);}.cls-24{fill:url(#Безымянный_градиент_6-24);}.cls-25{fill:url(#Безымянный_градиент_6-25);}.cls-26{fill:url(#Безымянный_градиент_6-26);}.cls-27{fill:url(#Безымянный_градиент_6-27);}.cls-28{fill:url(#Безымянный_градиент_6-28);}.cls-29{fill:url(#Безымянный_градиент_6-29);}.cls-30{fill:url(#Безымянный_градиент_6-30);}.cls-31{fill:url(#Безымянный_градиент_6-31);}.cls-32{fill:url(#Безымянный_градиент_6-32);}.cls-33{fill:url(#Безымянный_градиент_6-33);}.cls-34{fill:url(#Безымянный_градиент_6-34);}.cls-35{fill:url(#Безымянный_градиент_6-35);}.cls-36{fill:url(#Безымянный_градиент_6-36);}.cls-37{fill:url(#Безымянный_градиент_6-37);}.cls-38{fill:url(#Безымянный_градиент_6-38);}.cls-39{fill:url(#Безымянный_градиент_6-39);}.cls-40{fill:url(#Безымянный_градиент_6-40);}.cls-41{fill:url(#Безымянный_градиент_6-41);}</style><linearGradient id="Безымянный_градиент_6" x1="152.74" y1="6.36" x2="165.47" y2="6.36" gradientUnits="userSpaceOnUse"><stop offset="0" stop-color="#009ee2"/><stop offset="1" stop-color="#005a99"/></linearGradient><linearGradient id="Безымянный_градиент_6-2" x1="178.2" y1="6.36" x2="190.93" y2="6.36" xlink:href="#Безымянный_градиент_6"/><linearGradient id="Безымянный_градиент_6-3" x1="203.66" y1="12.73" x2="216.39" y2="12.73" xlink:href="#Безымянный_градиент_6"/><linearGradient id="Безымянный_градиент_6-4" x1="101.83" y1="31.82" x2="178.2" y2="31.82" xlink:href="#Безымянный_градиент_6"/><linearGradient id="Безымянный_градиент_6-5" x1="190.93" y1="63.64" x2="216.39" y2="63.64" xlink:href="#Безымянный_градиент_6"/><linearGradient id="Безымянный_градиент_6-6" x1="140.02" y1="57.28" x2="165.47" y2="57.28" xlink:href="#Безымянный_градиент_6"/><linearGradient id="Безымянный_градиент_6-7" x1="165.47" y1="70.01" x2="178.2" y2="70.01" xlink:href="#Безымянный_градиент_6"/><linearGradient id="Безымянный_градиент_6-8" x1="101.83" y1="82.74" x2="114.56" y2="82.74" xlink:href="#Безымянный_градиент_6"/><linearGradient id="Безымянный_градиент_6-9" x1="127.29" y1="76.37" x2="140.02" y2="76.37" xlink:href="#Безымянный_градиент_6"/><linearGradient id="Безымянный_градиент_6-10" x1="152.74" y1="82.74" x2="165.47" y2="82.74" xlink:href="#Безымянный_градиент_6"/><linearGradient id="Безымянный_градиент_6-11" x1="114.56" y1="95.47" x2="127.29" y2="95.47" xlink:href="#Безымянный_градиент_6"/><linearGradient id="Безымянный_градиент_6-12" x1="165.47" y1="108.19" x2="203.66" y2="108.19" xlink:href="#Безымянный_градиент_6"/><linearGradient id="Безымянный_градиент_6-13" x1="0" y1="108.19" x2="12.73" y2="108.19" xlink:href="#Безымянный_градиент_6"/><linearGradient id="Безымянный_градиент_6-14" x1="216.39" y1="108.19" x2="229.12" y2="108.19" xlink:href="#Безымянный_градиент_6"/><linearGradient id="Безымянный_градиент_6-15" x1="241.84" y1="133.65" x2="318.22" y2="133.65" xlink:href="#Безымянный_градиент_6"/><linearGradient id="Безымянный_градиент_6-16" x1="0" y1="133.65" x2="12.73" y2="133.65" xlink:href="#Безымянный_градиент_6"/><linearGradient id="Безымянный_градиент_6-17" x1="12.73" y1="146.38" x2="38.19" y2="146.38" xlink:href="#Безымянный_градиент_6"/><linearGradient id="Безымянный_градиент_6-18" x1="50.91" y1="146.38" x2="63.64" y2="146.38" xlink:href="#Безымянный_градиент_6"/><linearGradient id="Безымянный_градиент_6-19" x1="178.2" y1="165.47" x2="216.39" y2="165.47" xlink:href="#Безымянный_градиент_6"/><linearGradient id="Безымянный_градиент_6-20" x1="203.66" y1="140.02" x2="241.84" y2="140.02" xlink:href="#Безымянный_градиент_6"/><linearGradient id="Безымянный_градиент_6-21" x1="76.37" y1="159.11" x2="89.1" y2="159.11" xlink:href="#Безымянный_градиент_6"/><linearGradient id="Безымянный_градиент_6-22" x1="229.12" y1="159.11" x2="241.84" y2="159.11" xlink:href="#Безымянный_градиент_6"/><linearGradient id="Безымянный_градиент_6-23" x1="254.57" y1="171.84" x2="267.3" y2="171.84" xlink:href="#Безымянный_градиент_6"/><linearGradient id="Безымянный_градиент_6-24" x1="267.3" y1="197.29" x2="318.22" y2="197.29" xlink:href="#Безымянный_градиент_6"/><linearGradient id="Безымянный_градиент_6-25" x1="0" y1="190.93" x2="25.46" y2="190.93" xlink:href="#Безымянный_градиент_6"/><linearGradient id="Безымянный_градиент_6-26" x1="25.46" y1="190.93" x2="63.64" y2="190.93" xlink:href="#Безымянный_градиент_6"/><linearGradient id="Безымянный_градиент_6-27" x1="38.19" y1="190.93" x2="178.2" y2="190.93" xlink:href="#Безымянный_градиент_6"/><linearGradient id="Безымянный_градиент_6-28" x1="229.12" y1="235.48" x2="241.84" y2="235.48" xlink:href="#Безымянный_градиент_6"/><linearGradient id="Безымянный_градиент_6-29" x1="152.74" y1="248.21" x2="318.22" y2="248.21" xlink:href="#Безымянный_градиент_6"/><linearGradient id="Безымянный_градиент_6-30" x1="216.39" y1="235.48" x2="254.57" y2="235.48" xlink:href="#Безымянный_градиент_6"/><linearGradient id="Безымянный_градиент_6-31" x1="101.83" y1="292.76" x2="140.02" y2="292.76" xlink:href="#Безымянный_градиент_6"/><linearGradient id="Безымянный_градиент_6-32" x1="152.74" y1="286.4" x2="165.47" y2="286.4" xlink:href="#Безымянный_градиент_6"/><linearGradient id="Безымянный_градиент_6-33" x1="0" y1="44.55" x2="89.1" y2="44.55" xlink:href="#Безымянный_градиент_6"/><linearGradient id="Безымянный_градиент_6-34" x1="13.37" y1="44.55" x2="75.74" y2="44.55" xlink:href="#Безымянный_градиент_6"/><linearGradient id="Безымянный_градиент_6-35" x1="229.12" y1="44.55" x2="318.22" y2="44.55" xlink:href="#Безымянный_градиент_6"/><linearGradient id="Безымянный_градиент_6-36" x1="242.48" y1="44.55" x2="304.85" y2="44.55" xlink:href="#Безымянный_градиент_6"/><linearGradient id="Безымянный_градиент_6-37" x1="0" y1="273.67" x2="89.1" y2="273.67" xlink:href="#Безымянный_градиент_6"/><linearGradient id="Безымянный_градиент_6-38" x1="13.37" y1="273.67" x2="75.74" y2="273.67" xlink:href="#Безымянный_градиент_6"/><linearGradient id="Безымянный_градиент_6-39" x1="25.46" y1="44.55" x2="63.64" y2="44.55" xlink:href="#Безымянный_градиент_6"/><linearGradient id="Безымянный_градиент_6-40" x1="254.57" y1="44.55" x2="292.76" y2="44.55" xlink:href="#Безымянный_градиент_6"/><linearGradient id="Безымянный_градиент_6-41" x1="25.46" y1="273.67" x2="63.64" y2="273.67" xlink:href="#Безымянный_градиент_6"/></defs><g id="Слой_2" data-name="Слой 2"><g id="Слой_2-2" data-name="Слой 2"><rect class="cls-1" x="152.74" width="12.73" height="12.73"/><rect class="cls-2" x="178.2" width="12.73" height="12.73"/><polygon class="cls-3" points="216.39 12.73 216.39 0 203.66 0 203.66 12.73 203.66 25.46 216.39 25.46 216.39 12.73"/><polygon class="cls-4" points="127.29 38.19 140.01 38.19 152.74 38.19 165.47 38.19 165.47 50.91 178.2 50.91 178.2 38.19 178.2 25.46 165.47 25.46 152.74 25.46 152.74 12.73 140.01 12.73 140.01 25.46 127.29 25.46 127.29 12.73 127.29 0 114.56 0 101.83 0 101.83 12.73 101.83 25.46 101.83 38.19 114.56 38.19 114.56 50.91 101.83 50.91 101.83 63.64 114.56 63.64 127.29 63.64 127.29 50.91 127.29 38.19"/><polygon class="cls-5" points="190.93 50.91 203.66 50.91 203.66 63.64 203.66 76.37 203.66 89.1 216.39 89.1 216.39 76.37 216.39 63.64 216.39 50.91 216.39 38.19 203.66 38.19 190.93 38.19 190.93 50.91"/><polygon class="cls-6" points="140.01 50.91 140.01 63.64 152.74 63.64 165.47 63.64 165.47 50.91 152.74 50.91 140.01 50.91"/><rect class="cls-7" x="165.47" y="63.64" width="12.73" height="12.73"/><rect class="cls-8" x="101.83" y="76.37" width="12.73" height="12.73"/><polygon class="cls-9" points="140.01 76.37 140.01 63.64 127.29 63.64 127.29 76.37 127.29 89.1 140.01 89.1 140.01 76.37"/><rect class="cls-10" x="152.74" y="76.37" width="12.73" height="12.73"/><rect class="cls-11" x="114.56" y="89.1" width="12.73" height="12.73"/><polygon class="cls-12" points="165.47 89.1 165.47 101.83 178.2 101.83 178.2 114.56 190.93 114.56 190.93 127.29 190.93 140.01 203.66 140.01 203.66 127.29 203.66 114.56 203.66 101.83 190.93 101.83 190.93 89.1 190.93 76.37 178.2 76.37 178.2 89.1 165.47 89.1"/><polyline class="cls-13" points="0 114.56 12.73 114.56 12.73 101.83 0 101.83"/><rect class="cls-14" x="216.39" y="101.83" width="12.73" height="12.73"/><polygon class="cls-15" points="292.76 101.83 280.03 101.83 280.03 114.56 267.3 114.56 267.3 101.83 254.57 101.83 254.57 114.56 241.84 114.56 241.84 127.29 254.57 127.29 267.3 127.29 267.3 140.01 267.3 152.74 280.03 152.74 292.76 152.74 305.49 152.74 305.49 165.47 318.22 165.47 318.22 152.74 318.22 140.01 318.22 127.29 305.49 127.29 305.49 140.01 292.76 140.01 280.03 140.01 280.03 127.29 292.76 127.29 305.49 127.29 305.49 114.56 318.22 114.56 318.22 101.83 305.49 101.83 292.76 101.83"/><polyline class="cls-16" points="0 140.01 12.73 140.01 12.73 127.29 0 127.29"/><polygon class="cls-17" points="25.46 152.74 38.19 152.74 38.19 140.01 25.46 140.01 12.73 140.01 12.73 152.74 25.46 152.74"/><rect class="cls-18" x="50.91" y="140.02" width="12.73" height="12.73"/><polygon class="cls-19" points="178.2 152.74 178.2 165.47 178.2 178.2 178.2 190.93 190.93 190.93 203.66 190.93 203.66 178.2 216.39 178.2 216.39 165.47 203.66 165.47 190.93 165.47 190.93 152.74 190.93 140.01 178.2 140.01 178.2 152.74"/><polygon class="cls-20" points="216.39 152.74 229.12 152.74 229.12 140.01 241.84 140.01 241.84 127.29 229.12 127.29 216.39 127.29 216.39 140.01 203.66 140.01 203.66 152.74 216.39 152.74"/><rect class="cls-21" x="76.37" y="152.74" width="12.73" height="12.73"/><rect class="cls-22" x="229.12" y="152.74" width="12.73" height="12.73"/><rect class="cls-23" x="254.57" y="165.47" width="12.73" height="12.73"/><polygon class="cls-24" points="292.76 178.2 280.03 178.2 267.3 178.2 267.3 190.93 280.03 190.93 280.03 203.66 280.03 216.39 292.76 216.39 292.76 229.12 305.49 229.12 305.49 216.39 305.49 203.66 292.76 203.66 292.76 190.93 305.49 190.93 305.49 203.66 318.22 203.66 318.22 190.93 318.22 178.2 305.49 178.2 305.49 165.47 292.76 165.47 292.76 178.2"/><polyline class="cls-25" points="0 216.39 12.73 216.39 12.73 203.66 12.73 190.93 25.46 190.93 25.46 178.2 12.73 178.2 12.73 165.47 0 165.47"/><polygon class="cls-26" points="50.91 178.2 50.91 165.47 38.19 165.47 38.19 178.2 38.19 190.93 25.46 190.93 25.46 203.66 38.19 203.66 38.19 216.39 50.91 216.39 50.91 203.66 63.64 203.66 63.64 190.93 50.91 190.93 50.91 178.2"/><polygon class="cls-27" points="165.47 229.12 178.2 229.12 178.2 216.39 165.47 216.39 152.74 216.39 140.01 216.39 127.29 216.39 127.29 203.66 140.01 203.66 152.74 203.66 152.74 190.93 165.47 190.93 165.47 178.2 152.74 178.2 140.01 178.2 140.01 190.93 127.29 190.93 114.56 190.93 114.56 203.66 101.83 203.66 101.83 190.93 101.83 178.2 114.56 178.2 114.56 165.47 127.29 165.47 140.01 165.47 152.74 165.47 165.47 165.47 165.47 152.74 152.74 152.74 140.01 152.74 127.29 152.74 114.56 152.74 114.56 140.01 127.29 140.01 140.01 140.01 152.74 140.01 152.74 127.29 140.01 127.29 140.01 114.56 152.74 114.56 152.74 127.29 165.47 127.29 165.47 114.56 165.47 101.83 152.74 101.83 140.01 101.83 127.29 101.83 127.29 114.56 127.29 127.29 114.56 127.29 101.83 127.29 101.83 114.56 114.56 114.56 114.56 101.83 101.83 101.83 89.1 101.83 76.37 101.83 63.64 101.83 50.91 101.83 38.19 101.83 38.19 114.56 38.19 127.29 50.91 127.29 50.91 114.56 63.64 114.56 76.37 114.56 89.1 114.56 89.1 127.29 76.37 127.29 63.64 127.29 63.64 140.01 76.37 140.01 89.1 140.01 101.83 140.01 101.83 152.74 101.83 165.47 89.1 165.47 89.1 178.2 76.37 178.2 76.37 165.47 63.64 165.47 63.64 178.2 63.64 190.93 76.37 190.93 89.1 190.93 89.1 203.66 76.37 203.66 76.37 216.39 89.1 216.39 101.83 216.39 101.83 229.12 101.83 241.84 101.83 254.57 101.83 267.3 101.83 280.03 114.56 280.03 114.56 267.3 114.56 254.57 127.29 254.57 140.01 254.57 140.01 241.84 127.29 241.84 127.29 229.12 140.01 229.12 140.01 241.84 152.74 241.84 152.74 229.12 165.47 229.12"/><rect class="cls-28" x="229.12" y="229.12" width="12.73" height="12.73"/><polygon class="cls-29" points="305.49 241.84 305.49 229.12 318.22 229.12 318.22 241.84 318.22 254.57 318.22 267.3 318.22 280.03 318.22 292.76 318.22 305.49 318.22 305.49 318.22 318.22 305.49 318.22 305.49 305.49 292.76 305.49 280.03 305.49 280.03 318.22 267.3 318.22 267.3 305.49 254.57 305.49 241.84 305.49 241.84 318.22 229.12 318.22 216.39 318.22 203.66 318.22 190.93 318.22 178.2 318.22 165.47 318.22 165.47 305.49 178.2 305.49 178.2 292.76 178.2 280.03 178.2 267.3 165.47 267.3 152.74 267.3 152.74 254.57 152.74 241.84 165.47 241.84 165.47 254.57 178.2 254.57 178.2 241.84 190.93 241.84 203.66 241.84 203.66 229.12 203.66 216.39 190.93 216.39 178.2 216.39 178.2 203.66 190.93 203.66 203.66 203.66 216.39 203.66 216.39 190.93 229.12 190.93 229.12 178.2 241.84 178.2 241.84 190.93 241.84 203.66 254.57 203.66 254.57 190.93 267.3 190.93 267.3 203.66 267.3 216.39 267.3 229.12 280.03 229.12 280.03 241.84 267.3 241.84 267.3 254.57 280.03 254.57 280.03 267.3 280.03 280.03 267.3 280.03 267.3 267.3 254.57 267.3 241.84 267.3 241.84 280.03 229.12 280.03 216.39 280.03 216.39 292.76 203.66 292.76 203.66 280.03 190.93 280.03 190.93 292.76 190.93 305.49 203.66 305.49 216.39 305.49 229.12 305.49 229.12 292.76 241.84 292.76 241.84 280.03 254.57 280.03 267.3 280.03 267.3 292.76 267.3 305.49 280.03 305.49 280.03 292.76 280.03 280.03 292.76 280.03 292.76 267.3 292.76 254.57 292.76 241.84 305.49 241.84"/><polygon class="cls-30" points="216.39 241.84 216.39 254.57 229.12 254.57 241.84 254.57 254.57 254.57 254.57 241.84 254.57 229.12 254.57 216.39 241.84 216.39 229.12 216.39 216.39 216.39 216.39 229.12 216.39 241.84"/><polygon class="cls-31" points="127.29 280.03 127.29 292.76 114.56 292.76 114.56 305.49 101.83 305.49 101.83 318.22 114.56 318.22 127.29 318.22 140.01 318.22 140.01 305.49 140.01 305.49 140.01 292.76 140.01 280.03 140.01 267.3 127.29 267.3 127.29 280.03"/><rect class="cls-32" x="152.74" y="280.03" width="12.73" height="12.73"/><polyline class="cls-33" points="0 0 75.74 0 89.1 0 89.1 89.1 0 89.1"/><rect class="cls-34" x="13.37" y="13.37" width="62.37" height="62.37"/><polygon class="cls-35" points="318.22 0 318.22 89.1 229.12 89.1 229.12 0 304.85 0 318.22 0"/><rect class="cls-36" x="242.48" y="13.37" width="62.37" height="62.37"/><polyline class="cls-37" points="0 229.12 75.74 229.12 89.1 229.12 89.1 318.22 0 318.22"/><rect class="cls-38" x="13.37" y="242.48" width="62.37" height="62.37"/><rect class="cls-39" x="25.46" y="25.46" width="38.19" height="38.19"/><rect class="cls-40" x="254.57" y="25.46" width="38.19" height="38.19"/><rect class="cls-41" x="25.46" y="254.57" width="38.19" height="38.19"/></g></g></svg>