<svg xmlns="http://www.w3.org/2000/svg" viewBox="0 0 30.2 41.69"><defs><style>.cls-1{fill:#fff;}</style></defs><g id="Слой_2" data-name="Слой 2"><g id="Слой_1-2" data-name="Слой 1"><path class="cls-1" d="M15.1,0A15.11,15.11,0,0,0,0,15.1C0,25.43,13.51,40.6,14.09,41.24a1.36,1.36,0,0,0,2,0C16.69,40.6,30.2,25.43,30.2,15.1A15.12,15.12,0,0,0,15.1,0Zm0,38.25C10.55,32.85,2.72,22.19,2.72,15.1a12.38,12.38,0,0,1,24.76,0C27.48,22.19,19.65,32.84,15.1,38.25Z"/><path class="cls-1" d="M15.1,7.5a7.6,7.6,0,1,0,7.59,7.6A7.61,7.61,0,0,0,15.1,7.5ZM15.1,20A4.88,4.88,0,1,1,20,15.1,4.89,4.89,0,0,1,15.1,20Z"/></g></g></svg>