<svg xmlns="http://www.w3.org/2000/svg" viewBox="0 0 117.66 139.76"><defs><style>.cls-1{fill:#1d1d1b;}.cls-1,.cls-2,.cls-3,.cls-4,.cls-5{fill-rule:evenodd;}.cls-2{fill:#e30613;}.cls-3{fill:#fff;}.cls-4{fill:#e2b900;}.cls-5{fill:#0092d4;}</style></defs><g id="Слой_2" data-name="Слой 2"><g id="Слой_1-2" data-name="Слой 1"><polygon class="cls-1" points="0 0 117.66 0 117.66 110.11 117.61 111.21 117.55 112.31 117.44 113.42 117.27 114.46 117.05 115.51 116.78 116.56 116.5 117.49 116.17 118.49 115.79 119.42 115.34 120.36 114.85 121.19 114.35 122.07 113.75 122.89 113.14 123.67 112.48 124.38 111.76 125.1 111.05 125.76 110.22 126.42 109.39 127.03 108.51 127.58 107.58 128.08 106.64 128.57 105.65 129.01 104.54 129.4 103.5 129.73 102.34 130.06 101.18 130.34 99.91 130.5 98.7 130.72 97.38 130.83 96.06 130.89 94.68 130.94 81.01 130.94 80.08 130.94 79.14 131 78.2 131 77.32 131.11 76.44 131.16 75.61 131.27 74.78 131.44 73.96 131.55 73.19 131.71 72.41 131.88 71.64 132.1 70.87 132.32 70.16 132.54 69.49 132.76 68.78 133.03 68.12 133.31 67.45 133.59 66.85 133.92 66.19 134.19 65.58 134.52 65.03 134.85 64.42 135.19 63.87 135.57 63.32 135.96 62.77 136.34 62.22 136.73 61.72 137.11 61.23 137.55 60.73 138 60.23 138.38 59.79 138.82 58.8 139.76 57.87 138.82 57.37 138.38 56.87 138 56.38 137.55 55.88 137.11 55.38 136.73 54.83 136.34 54.28 135.96 53.73 135.57 53.18 135.19 52.63 134.85 52.02 134.52 51.36 134.19 50.76 133.92 50.15 133.59 49.49 133.31 48.83 133.03 48.11 132.76 47.45 132.54 46.68 132.32 45.96 132.1 45.24 131.88 44.47 131.71 43.65 131.55 42.82 131.44 41.99 131.27 41.17 131.16 40.28 131.11 39.4 131 38.47 131 37.53 130.94 36.54 130.94 22.93 130.94 21.55 130.89 20.23 130.83 18.9 130.72 17.64 130.5 16.42 130.34 15.27 130.06 14.11 129.73 13.01 129.4 12.01 129.01 10.97 128.57 9.97 128.08 9.09 127.58 8.21 127.03 7.38 126.42 6.56 125.76 5.84 125.1 5.13 124.38 4.46 123.67 3.86 122.89 3.25 122.07 2.76 121.19 2.26 120.36 1.82 119.42 1.43 118.49 1.1 117.49 0.77 116.56 0.55 115.51 0.33 114.46 0.17 113.42 0.06 112.31 0 111.21 0 110.11 0 0 0 0"/><path class="cls-2" d="M.66.72H116.89V110.11c0,11.79-7.55,20.11-22.21,20.11H81c-10.52,0-17.25,3.64-22.21,8.55-5-4.91-11.74-8.55-22.21-8.55H22.93C8.27,130.22.66,121.9.66,110.11V.72Z"/><path class="cls-1" d="M26,99.42c.88-3.31,2.92-5,6.28-5.57S39.13,91.48,43,89.66c1.65-1.21,1.87-.66.66,1.71l-1.87,2.15c-1,1.1-1.21,2.26.16,3.36,1.88.94,2.65,1.82,2.37,2.59a5.48,5.48,0,0,0-5.51,1.22c-1.15-.33-2.53-.17-4.46.77a4.25,4.25,0,0,0-3.42-.22c-.33-.83-1.27-1-2.86-.77a3.93,3.93,0,0,0-2.1-1Zm22.54,0c-2-2-2.2-3.86.06-5.4a29.73,29.73,0,0,0,5.45-6c1.55-.11,2.92-.44,4.47-.66,6.17-.77,12-2.09,16.7-4.69a1.47,1.47,0,0,1,1.92.56L80.79,88l-1.05.39,2.76,2.09c-.5.39-.17.66.44.88-.33.5-.11,1,.39.94.22.66.71,1.65-.72.27-.88-.44-1,0-.28,1.38l1.49,2.15a3.91,3.91,0,0,0,1.27,2.54l1.21,2.48a3.69,3.69,0,0,0,.33,1.1c.17.94.39,1.43,1.16,1.54a8.23,8.23,0,0,1-3.42,3.75c-3.25,1.76-5.84,1-5.56-3.25.16-2.32.6-4.25.66-6.62.94-3.69,0-5.56-3.14-5.78-1.66,0-2.92,0-3.86.71s-2.15.39-3.86-.6c-3.3-2.48-5.78-3.8-7.44-3.8,1.6,1.81,2,3.63.77,5.45,1.33.61,1.27,1.21,0,1.82a35.64,35.64,0,0,1-10.53-1.6c-1.21-.22-1.43,0-.6.66C53.51,95.62,55,97.27,55,99.58a31.11,31.11,0,0,0-4.08.33,1.64,1.64,0,0,1-2.37-.49Zm31.25,17.8c-.94.49-1.16,1-.28,1.6.61.38.94.44,1,.16,1.1-.22-.44-.82-.77-1.76ZM51,114.79c-.61.44-.88.94-.55,1.6l1.21,1a1,1,0,0,0-.17-1.54,1.6,1.6,0,0,1-.49-1.11ZM36.87,109c.88.38.88,1.21-.22,1.71-.83-.33-.77-1,.22-1.71ZM20.78,76.27c4,4.58,4.68,9.76,1.43,15.76-1.21,2.92-1.05,4.8.55,5.68a16.69,16.69,0,0,0,1-4.13c.33-2.48,1.93-2.21,4-4.36,2.26-2.31,1.6-4.74,1.38-8.59-.39-8.27,1.32-13.07,3.75-15.77-6.18-1.7-9.92,2.87-12.18,11.41ZM24.69,7.88c-.72.11-1,.61-.88,1.43l4.9,7c.17.33.5.66.44.93-.38.94-.55,1.55.28,2.37l1.65,1.6a4.68,4.68,0,0,0,.77,2.43c-.38.77.11,1.49.78,2.2.16.22.22.5.49.72l.28,2.37c-2.32,1.93-3.48,3.36-3.7,4.24-.11.5-.22.88.11,1.16L33.07,34c.27.16.6.22.71.44a2.36,2.36,0,0,1-1.93,3.19c-4,1-6.94,2.37-5.78,5.08,1.48,1.92.71,3.63-1.82,5.18a2.39,2.39,0,0,0-.77,2.2,7.69,7.69,0,0,0-1.77,2.59c-.38,1.1-.38,1.6.39,1.49,5.62-1.88,11.13-2.65,15,.6,1.93,1.6,1.6,2.43,4.63,2.59-.33,1.27,0,2,1.11,2.21L43,61c-1.21.28-2.59.28-3.8.61a18.83,18.83,0,0,1-3.91.88,29.2,29.2,0,0,0-3.26-1.93c-5.07-3.14-9.31-3.31-13,1a27.19,27.19,0,0,0-5.13,10.09c-.27.82-.93,1.16-2.26.38C9,69.82,8.54,67.9,9.86,66.63c1.88-1.77,2.59-.72,1.6.22l.06.22c1.43,0,2,1,2.53,2,1.22-3.14.55-5.29-1.15-7l-.39-.06.17,2.7c-2.93-.6-4.52,1.66-4.74,3.75s.77,3.86,3.41,5.4c1.49.5,1.93,2.21.77,3.92C9.26,82,9.7,86.47,12.29,92.2l.33-.17c.55-6.28,1.87-9.48,4-10.08a3.81,3.81,0,0,0,1.82-1.38c.6-.94.93-.83,1.37.17a7.73,7.73,0,0,1-.55,7.71c-3.63,5.9-3.8,10.42,1.38,14l.17.44-1.38,1.76c-.44.72-.11,1.6,1.1,2.59.88,1.05,1.32,2.76,1.6,4.91a2.78,2.78,0,0,0-.22,2.42c.77,1.11,2.64,1.71,5.29,1.44.27-.06.22-.28.22-.55.22-1.22-.61-2.1-1.49-3.59-2.59-2.31-3.14-4.52-2.31-6.67l.38-.6a38,38,0,0,0,7,1.87,6.87,6.87,0,0,0,0,6.06c1.66,2.87,3.42,4.19,6.78,3.92,4.46-.39,6.67-4.08,5-9.1,1.59-.88,2.64-.82,3.19.17-.05,2.26.94,1.54,1,3.75-2.64,2.31-3.63,4.3-.77,5.56,1.49,1.49.66,2-1.27,2.15-2-.49-3.52-.38-3.8,1.27-1.87.11-2.42,1.21-2.37,3,.55-1.33,1.6-1.44,2.15-1.11a8.55,8.55,0,0,0,2.92-.16,3.33,3.33,0,0,1,2.81.05,1.34,1.34,0,0,1,1.22.66c1.32,1.38,1.15-.16,4.07,1.6.72.06,1.93,0,2.15,1.16l.28-1.05a.94.94,0,0,0-.33-1.21c-.94-1.1.55-1.16,3.14-.66a6.79,6.79,0,0,0,3.64.72c1.15-1.16,1.43-.44,1.65,1.1.83-2.26.28-3.47-2-3.58.38-1.22.55.6,1.37-.89.72-.33,1.44,0,2.15.72.17-1.1-.49-1.76-1.93-2.09-.33-.94-1-1-2-.06-4.18-1.1-4.62-3.64-2.25-4.13,1.26-.33,1.76,1,2.75,1.38a8.54,8.54,0,0,0,2.21.27,5.85,5.85,0,0,1,2.92.77l.82.28c.44-.33.88-.28,1.44.22.6.88,1.21,1,1.76.27,1.65-1.32,4.13-1.32,4-.49-.06,1.21.16,1.65.6,1.54.39.06.55.55.55,1.43-1.59,0-2.7.22-2.7,1.38-1.48.44-1.43,1.49-.77,2.87-.16-2.65,2.1-.5,4.3-1.93l1.54-.17c.17.78.89,1.11,2.26,1a10,10,0,0,1,1.77-.33c2.7-.72,4.85-.55,6.44,1.65a1.94,1.94,0,0,0-.16-2c1.87-1.26,3.91-.77,2.7,1.27,1.1-.55,2.2-3.36.77-3.3.61-1.66,3.09-.28,2.37.93,1-.55,1.21-1.38,0-2.42-.17-.94-.94-1.22-2.32-.83-.77-1.32-1.76-1.38-3.08-.22-1.33.61-2.37.66-3-.22-.71-1.16-.55-1.71.45-1.32.49.16.71-.44,1.32-1.6.22-.5.66-.88,1-1.54,1.43-.22,2.59-1.49,4.08-4,1-.49,1.54-2.53,1.6-5.73.44.22,1,.06,1.7-.38-.49-.06-.71-.22-.71-1.49h1.38c.55-.22.77-.44.71-.72s-.55-.16-.93-.77A4.48,4.48,0,0,0,94,97.77l-1.32-2.15c-.94-3-2-4.69-3.42-3.59l-.38-.22a13,13,0,0,1-2.43-4.41c.06-2.09-2.15-2.2-3.3-.22l-.33-1.65-.56.88-3.47-5c.39-.06,1-.44,1.44-.5a31.12,31.12,0,0,0,12.84-4l3.08-.94a1.89,1.89,0,0,1,2.54.61l3.14,3.25a1.54,1.54,0,0,1,.27,1.93c-.33.66.44,1.54,1.55,2.48,1,1.1,1.1,2.59.22,4.46-.5,1.21-.39,2,.33,2.37l2.15,1.54c1.43,1.16,2.15.78,2.09-1.26a7.58,7.58,0,0,0-1.05-3.09,8.44,8.44,0,0,1-1.26-3.75c-.06-2.53-.39-3.85-1.44-4.74a17.31,17.31,0,0,1-3.08-3.91c-.28-.83-.5-1.32-.94-1.54-.11-2.65-2-4-3.25-3.25a8.48,8.48,0,0,1-3.14.16v-.6c1.38-.78,3.75-3.2,6.12-5.85.88-1.1,1.32-.66,2.2.22L106,68.56c-.11,1.76.16,2.92,1.37,2.81.83,1.43,1.22,2.81.45,3.41s-1.38,1.11-1.38,2c.16,1.38,1.76,2.81,3.52,3.48a.53.53,0,0,0,.56-.28,5.77,5.77,0,0,0,0-4.08l-.61-2a8.25,8.25,0,0,1,.06-2.09c.16-1.6.22-2.48-1.49-3.69a41,41,0,0,1-5.45-6.84c0-3.14-2.65-4-4.36-.55l-3.3,2.32c-.83.55-1.38-.33-1.38-1.22-.33-4.13-3.14-7.44-6.23-10.63-1.65-5-3.91-9.21-4.74-13.06,3.14.33,5.51.93,6.45,1.87,1.38,1.49,3.14,2.26,3.58,1.21.17-.33-.83-.93-1.32-1.43a3.57,3.57,0,0,1,2,1.27c1.37,0,1.82-1.05,1.43-2.48.17-1.16.11-2-.39-2.43l-1.15-.66A35.44,35.44,0,0,1,88.84,29a1.32,1.32,0,0,1-.22-.72,3.2,3.2,0,0,0-1.22-2.59l.45-.22-.06-.33,1,.22-1-1.65c-.55-2-2.42-2.37-5.24-1.55-.38.11-.88-.33-1.37-.88-1.77-1.71-3.64-2.64-3-1.38.11.23.66.83.06.78l-3-.5c-.67-.11-.78.11-.61.44a5.72,5.72,0,0,1,1.32,1.82l-3.86.22a14.22,14.22,0,0,1-2.15.33c-2.09-1.76-4.68-.44-7.38,1.6l-.39-.17,0-3.14h.33l-.28-2h.22c.22-3.08-.38-5.07-1.54-6.44-.22-.94.72-.83.94-1.11a4.51,4.51,0,0,0,.82-3c-.16-1.32-.6-1.76-1.26-1.32h-.77a3,3,0,0,1-1.82-.77,2.07,2.07,0,0,0-2.54-.06c-4,1-4.68,4.08-9.53,2-.55-.06-.66.16-.44.6a7.65,7.65,0,0,0,3.25,2.37c-.44.33-1.32.39-2.76.28.83,1.1,2.43,1.65,4.91,1.6a3.59,3.59,0,0,0,3.25-.17c.66-.38.72-.16.28.72-1.27,1-2.15,3.08-2.32,6.78a6.66,6.66,0,0,0-.94,2.53c-1.81-.49-3.41-.83-4.07-.27l-.72-.06a3.6,3.6,0,0,0-4.41-.33L39.9,24.69c-1,.72-1.93.77-2.09-.11L36.65,22.1c.05-1.76-.61-2.59-1.82-2.7a3.13,3.13,0,0,1-1-1.76L33,16.59c.27-.94-.11-1.27-.78-1.27a3.19,3.19,0,0,1-1.76-.39l-5.73-7Z"/><path class="cls-3" d="M104.21,89.5l.55-1.16c.28-.38.5-.38.67,0l1.32,1.21c-.28.27-.88.27-1.32.38l.44.72-.44.22-.17.61c-.83-.66-1.32-1.27-1.05-1.93Zm1.16-4c.17,0,.33.5.33,1s-.16,1-.33,1-.33-.49-.33-1,.11-1,.33-1Zm-.77-4.46c.11-.11.38.11.55.38s.28.66.17.72-.39-.11-.56-.44-.27-.61-.16-.66Z"/><path class="cls-3" d="M108.13,75.67c-.17-.17-.33-.11-.5,0-.61.72-.72,1.27-.39,1.76l1.22.94c.38.33.82.17.6-.16l-.44-.61c.28.11.5.39.77.39s.28-.33,0-.56c-.44-.44-.55-.6-.27-.88.11-.11.11-.22-.06-.33l-.93-.6Zm0-5.13c-.56-.66-.45-1.05.27-1-.66-1,.06-1.27.72-.17a4.65,4.65,0,0,1,.27,2.65c0,.33-.44.44-.55,0a5.6,5.6,0,0,0-.71-1.49Zm.44,4.35.27-1.26c.06-.33.17-.28.33,0a3.7,3.7,0,0,1,.94,2c.11.38,0,.6-.22.66a1,1,0,0,1-.88-.39c-.39-.44-.5-.71-.44-1Z"/><path class="cls-3" d="M89.06,60.79c0-2.32.33-4.19.33-5.9,0-.72.49-.72.49.11a32.76,32.76,0,0,1-.33,5.62c0,.28-.49.77-.49.17ZM92.25,70c.11,0,.17.11.17.22s-.06.22-.17.22-.16-.11-.16-.22,0-.22.16-.22ZM86.8,61.83l.22-.16c0-.06.16-.06.22,0l.83,1.05a.18.18,0,0,1,0,.22l-.22.17a.15.15,0,0,1-.23-.06l-.88-1.05a.14.14,0,0,1,.06-.22Zm7.93,5.9.33-2.15-.38.77c-.33,0-.39-.33-.44-1s0-1,.44-.88l.27.72.22-.5c.39-.22.45,0,.28.66l-.11,2.37c-.22.33-.39.94-.61,0ZM100.58,61a1,1,0,0,1,0-1.38.87.87,0,0,1,1.21-.16c.33.16.44.38.44.55l-.66.22.82.22c.45.39.06,1.1-.33.5a.85.85,0,0,0-1.1-.17c0,.5-.11.61-.38.22Zm-8,3.86c.11-.06.34.16.5.44s.17.55,0,.61-.33-.11-.44-.39-.17-.61-.06-.66Zm-5.07-.44c.11-.06.34.11.5.38s.17.61.06.67-.33-.11-.5-.45-.17-.55-.06-.6ZM89,61.67c.39-.06.88.38,1,1A1,1,0,0,1,89.5,64c-.44.06-.88-.33-1-1s.11-1.21.55-1.32Zm.72,3.64c-.22-1,.11-1.22.49-.23a13.23,13.23,0,0,1,.89,5.46c0,.83-.66.88-.72.11a48.08,48.08,0,0,0-.66-5.34ZM96.11,67a11.34,11.34,0,0,1,.66-3.19c.17-.5.39-.55.66-.28,1-1.6.78-.71.34.5l.27.16c1.21-2.26.72-.44.61.55-.88,1.11-1.49,1.33-1.77.56l-.27,1.43c-.22.66-.39.77-.5.27Z"/><path class="cls-3" d="M21.16,105.37c-.38,1.49-2,.72-1.21-.61,2-3.3,4-6.61,4.41-11.07.11-1.6,1.1-2.32,2.37-3,2.7-1.49,3.64-4,3.58-6.89-.61-12.46,2.87-17.91,8.21-20.06l-.16.49c-4.8,2.92-6.78,8.55-6.84,16.21a35.24,35.24,0,0,0,0,5.34l.17-.38c.16-4.52.16-8.38.71-11a14.68,14.68,0,0,1,2.48-6,15.71,15.71,0,0,1,.94-1.32c.44-.44.94-.55,1.32-.94l0,.39A14.82,14.82,0,0,0,33,73.68a42.29,42.29,0,0,0-.55,11.69,4.35,4.35,0,0,1-.39,1.54l.22-.11a5.06,5.06,0,0,0,.5-2.37c-.39-5.07,0-10.2,1.82-13.78,1.27-2.48,2-3.42,5.57-5.4l-.12.39c-3,2-5.78,4.4-6.33,12.45l.16-.16c.55-6.12,2.76-10.64,6.84-12.29,1.43-.61,3.14-.5,5-.5l-.33.28a8.72,8.72,0,0,0-7.49,3l.33.11c2-2.09,4.41-3.25,7.38-2.59l-.22.44a7,7,0,0,0-5.51,1.71v.22c1.87-1.27,3.58-1.87,5.24-1.54.55.05.71.49.55,1.16l-.33,3a34.25,34.25,0,0,1-.94,8.37l-.28.22.28-5.07-1.16,6.29c-.11.71-.6.6-.49-.06.27-1.32.71-3.14,1-5.07a.64.64,0,0,0-.55.61c-.33,2.7-.78,4.9-1.38,5.67a28,28,0,0,0,.66-5.12l-.33.27-.83,4.8c.61.33-.16.82-.38.22l.27-2.65-.22,0L39.84,83.6l.39-2.92-1,2.92h-.39l.5-2.48L37.7,85.64c-.5.11-.56,0-.17-.83l1-3.08-.33,0c-.66,2.26-1.16,3.86-2,4.36l-.27,0a8.22,8.22,0,0,0,1.37-4,10.58,10.58,0,0,1-2.31,4.46c-.17-.16.06-.66.72-1.87l.6-1.6c-.27-.33-.44-.22-.6.28a8.37,8.37,0,0,1-1.49,3.19l.71-2.7-.11-.33a8.23,8.23,0,0,1-2.09,3.8l.44.22c1.49-1,3.53-.66,5.62-1.59.44-.22.88-.33,1.16-.11l-.39,1-.38-.6a3.77,3.77,0,0,1-1,1.93l-.17-1.22c-.88,1.93-1.49,3-1.54,2L36.7,88a4.3,4.3,0,0,0-1.26,2.37c-.33-.06-.39-.72-.28-1.66l-.55,2q-.75.17-.33-1.65a7.54,7.54,0,0,1-1,2,2.09,2.09,0,0,1-.11-1.6l-.55,1c0,.77-.23,1.05-.56,1,.17-1.15.17-1.6,0-1.32l-.66,1.76c-.39.22-.5-.22-.44-1.21-.61.33-.44,1.54-.89,2-.33-.22-.38-.77-.33-1.38-.27.94-.55,1.49-.93,1.55l-.11-1.82a6.59,6.59,0,0,1-.72,2l-.5-1.33-.22,1.27c-.38.22-.71-.11-.93-.94-.06,1.71-.22,3.15-1.33,3.86a7,7,0,0,1-1,2.92l1.76-2.59c.39-.11.55.11.39.94l-1.82,3c-.28.34-.61.23-.94,0a11,11,0,0,1-1.71,3.53c.77-.49,1.27-1.54,1.88-3,.11-.44.6.11.44,1l-.44.38.05.67-.55,0v.88l-.5.22c.5,1.21-.11,2-1.32,1.38Z"/><polygon class="cls-3" points="31.52 63.87 33.67 63.49 33.56 63.93 31.52 63.87 31.52 63.87"/><path class="cls-3" d="M11.46,80.68c.28-1.05,1-1.65,1.71-2.92.44-.72.61-.22.55.44a8.29,8.29,0,0,1-2.26,2.48Z"/><path class="cls-3" d="M34,62.88c-3.52-3.14-7-4.79-9.59-4.24-4.9,1.1-7.27,5.62-8.7,9.92.82-1.44,1.54-2.37,2.42-2.65a24.7,24.7,0,0,0-4,12.29,3,3,0,0,1-.88,1.43,4.1,4.1,0,0,0-1.71,3,11.64,11.64,0,0,0,1.21-1.54A7.44,7.44,0,0,0,14.49,78c.5-1.93.72-3.86,1.11-5.29a18.62,18.62,0,0,1,2.09-4.79c1.76-2.93,4-5.57,6.61-6.67v.22c-2.53,1.38-4.35,3.47-6.39,6.72a16,16,0,0,0-1.27,2.76,11.7,11.7,0,0,0-1,3.63,13.12,13.12,0,0,1-1.87,6.07,10.13,10.13,0,0,0-1.6,2.2,2.85,2.85,0,0,0-.28,1.32c1.93-3.63,2.81-3.3,3.64-5.89,1.16-4,.39-8.05,5.68-13.84h.38C19.07,67.34,17.36,70.1,16.48,76a11.92,11.92,0,0,1-.77,3.19c-.67,1.27-2,2.26-2.43,3.53l.28-.06A15.36,15.36,0,0,0,16,79.41c1.6-3.08,1-7.22,3.08-10.52,2.65-4.36,4.69-6.62,7.94-7.88l.38-.06C23,63.32,22.21,65,20.28,67.68a10.85,10.85,0,0,0-1.71,3.41,38,38,0,0,0-1.1,5.35,9.11,9.11,0,0,1-2,4.63c-.5.6-.88.88-1.27,1.43a7.79,7.79,0,0,0-.82,2.09l.27-.11c1.21-3.25,1.93-2.53,2.81-3.63a8.17,8.17,0,0,0,1.49-3.53A20.75,20.75,0,0,1,20,69.6a21.43,21.43,0,0,1,5-6.55,7.35,7.35,0,0,1,2.92-1.6h.28c-1.49,1-2.48,1.27-3.64,2.37A20.2,20.2,0,0,0,20,70.49a24.1,24.1,0,0,0-1.7,6.94c.05-.33.22.16.33-.11,1-5.73,3-9.76,5.62-12.35A10.36,10.36,0,0,1,29,62l1-.06a10.56,10.56,0,0,0-6.5,4.52l.33,0a12.32,12.32,0,0,1,6.4-3.86l.33.05A10.49,10.49,0,0,0,27,64.42l.11.33A16,16,0,0,1,34,62.88Z"/><path class="cls-3" d="M12,87a2.56,2.56,0,0,1-.39-1.37c.06-.67.55-.61.66-.17.11.83-.27.88-.27,1.54Z"/><path class="cls-3" d="M18.35,92.86l.55-.61a.94.94,0,0,1,.83-.11c-.06.28-.66.55-1.38.72Z"/><path class="cls-3" d="M17.86,94.57l.71-.77a1.15,1.15,0,0,1,1.16-.17c-.11.33-.88.72-1.87.94Z"/><path class="cls-3" d="M17.91,95.45l.83-.72a1.2,1.2,0,0,1,1.21,0c-.11.27-1.05.61-2,.77Z"/><path class="cls-3" d="M18.13,96.22l.77-.66a1.23,1.23,0,0,1,1.16,0c-.17.33-1,.6-1.93.71Z"/><path class="cls-3" d="M18.52,97.05,19,96.5a.91.91,0,0,1,.83-.11c-.06.22-.66.49-1.32.66Z"/><path class="cls-3" d="M21.33,88.23l.44-.27a.57.57,0,0,1,.6.05c-.05.17-.55.22-1,.22Z"/><path class="cls-3" d="M20.61,89.17l.94-.44a1.21,1.21,0,0,1,1.1.27c-.22.28-1,.33-2,.17Z"/><path class="cls-3" d="M21.16,86.91l.72-.55a1,1,0,0,1,1,0c-.16.27-.88.44-1.71.55Z"/><path class="cls-3" d="M21.71,85.59l.72-.17a.89.89,0,0,1,.77.39c-.16.16-.83,0-1.49-.22Z"/><path class="cls-3" d="M20.17,100.41l.5-.28a1,1,0,0,1,.6.06c-.05.17-.55.28-1.1.22Z"/><path class="cls-3" d="M21.71,98.7l-1.21.17a1.58,1.58,0,0,0-.94,1c.39.11,1.27-.44,2.15-1.21Z"/><path class="cls-3" d="M21.16,98.15h-.93a1,1,0,0,0-.83.72c.27.11,1.05-.22,1.76-.72Z"/><path class="cls-3" d="M25.46,102.67l.55-1.16a1.55,1.55,0,0,1,1.21-.6c0,.38-.77,1.15-1.76,1.76Z"/><path class="cls-3" d="M27.94,101.51l1-.38a1.48,1.48,0,0,1,1.16.44H30c-.05.33-.71.93-1.54,1.38L29,102a2.57,2.57,0,0,1,.38-.33H29a5.85,5.85,0,0,1-1.15.93l.38-.77c.06-.11.17-.16.22-.22-.16-.05-.33-.05-.55-.11Z"/><path class="cls-3" d="M32.74,101.68c.33-.17,1.48.11,1.32.49h0c-.06.33-.77.94-1.55,1.49l.45-1a1.71,1.71,0,0,1,.33-.33H32.9a5.32,5.32,0,0,1-1.1.94l.33-.83c0-.06.16-.11.22-.17-.11,0-.22,0-.28,0a3.45,3.45,0,0,1-.82.66l.22-.55c.38-.5.66-.44,1.27-.66Z"/><path class="cls-3" d="M39.84,101.51c0-.93.72-1.49,2.1-1.65,1.6-.22,3.53.11,3,.83h-.16l-.28.66-.6,1.1.38-1.21.17-.61c-.17,0-.44-.16-.72-.22l-.49.5-.83.93.66-1.1.28-.44c-.11,0-.22-.06-.33-.06l-.5.5-.83.94.66-1.05.28-.44h-.44l-.33.5-.77,1,.55-1.16.16-.28-.6.17-.39.94.17-.88a1.74,1.74,0,0,0-1.11,1Z"/><path class="cls-3" d="M34.66,102.28v-.11h.11l1.38-.88c.94-.44,2.1-.6,1.93.17,0,.05-.11.16-.33.22,0,.27.06.6.06.93l-.39-.82H37.2a11.65,11.65,0,0,0,0,1.32l-.55-1.21a.52.52,0,0,1-.27,0c0,.61,0,1.27,0,1.93l-.77-1.6v-.11c-.11.33-.16.72-.27,1l-.17-1.1h0c-.16.44-.39,1-.55,1.54l-.06-1.16v-.22Z"/><path class="cls-3" d="M18.9,65l2.37-2.37A4.77,4.77,0,0,0,18.9,65Z"/><path class="cls-3" d="M31.91,108.13a2.51,2.51,0,0,1,0-2.32c.44-1.16,1-1.49,1.32-1.43.39.44-.11,1.32.11,2.42l-.88-.77.28,1.49-.67-.72-.16,1.33Z"/><path class="cls-3" d="M39.73,109.56c-.11-.22-.27-.33-.33-.33s0,.27.11.49.33.33.39.33,0-.27-.17-.49Z"/><path class="cls-3" d="M39.73,110.55c-.22-.33-.44-.5-.55-.44s0,.33.22.66.44.5.55.44,0-.33-.22-.66Z"/><path class="cls-3" d="M39.24,111.49c-.17-.28-.33-.44-.39-.44s-.05.33.06.6.33.44.38.39.06-.28,0-.55Z"/><path class="cls-3" d="M38.74,112.42c-.11-.44-.38-.77-.49-.71s-.11.44,0,.88.33.72.44.72.17-.44,0-.89Z"/><path class="cls-3" d="M32.29,112c.34,0,.56.16.56.27a.93.93,0,0,1-.61.06c-.28-.06-.55-.17-.5-.22s.28-.17.55-.11Z"/><path class="cls-3" d="M32,111.32c.38.06.66.22.66.33s-.33.17-.72.11-.66-.22-.66-.33.33-.16.72-.11Z"/><path class="cls-3" d="M31.85,110.44c.44.11.78.28.78.39s-.45.22-.89.11-.82-.22-.77-.39.39-.16.88-.11Z"/><path class="cls-3" d="M46.18,101.07c-.33-1.1.88-1.49,2.15-.94a6.47,6.47,0,0,0,3.8.23,7.06,7.06,0,0,1,2.43-.06c.83.44.77.83-.17,1-1.76,1.66-3.08,3.36-3.3,5-.61-.83.66-2.92,2.64-5.51a18.87,18.87,0,0,0-3.36,3.52,11.14,11.14,0,0,1,1.93-3.41c-2.15,1.59-3.64,4-3.42,8.37a8.51,8.51,0,0,1,1.44-7.66L48,104.1l2.15-3.3-1.33.44.11-.5-.82.39v-.55l-1.11.88.22-.94c-.38-.22-.66.11-1,.55Z"/><path class="cls-3" d="M47.17,107.3a2.84,2.84,0,0,0,.5,2.2c.17.17.39,0,.28-.44a3.28,3.28,0,0,1-.78-1.76Z"/><path class="cls-3" d="M49.93,107.63c.11,0,.22.28.22.66s-.11.72-.22.72-.22-.33-.22-.72.11-.66.22-.66Z"/><path class="cls-3" d="M52.46,104.82a.79.79,0,0,1-.05.61c-.17.33-.33.55-.44.49s-.06-.33.05-.6.33-.56.44-.5Z"/><path class="cls-3" d="M53.07,103.5c.11.11,0,.33-.16.55s-.39.44-.45.38,0-.33.17-.55a.82.82,0,0,1,.44-.38Z"/><path class="cls-3" d="M73.74,105.65c.93.33,1,1.65.55,3.25a7.3,7.3,0,0,0-.55-3.25Z"/><path class="cls-3" d="M68.94,112.42a2.36,2.36,0,0,0-.33-.82c.06.33.11.66.17,1l.16-.17Z"/><path class="cls-3" d="M58.14,95.78a1.25,1.25,0,0,1,.44.06l.44.71a1.45,1.45,0,0,1-.49-.11l-.39-.66Z"/><path class="cls-3" d="M57.26,100.58a1,1,0,0,1,.33.6c0,.28,0,.44-.11.39a.87.87,0,0,1-.33-.55c-.06-.28,0-.44.11-.44Z"/><path class="cls-3" d="M58.09,100.52s.22.17.27.44.17.5.11.55-.22-.16-.33-.44-.16-.55,0-.55Z"/><path class="cls-3" d="M59.08,100.36c.11,0,.33.33.38.71s.11.5-.16.5-.17-.11-.22-.5-.06-.71,0-.71Z"/><path class="cls-3" d="M60,100a1.5,1.5,0,0,1,.45.72c.11.39.16.77,0,.77s-.27-.22-.44-.66-.17-.77-.06-.83Z"/><path class="cls-3" d="M61,100c.16,0,.33.34.44.78s0,.88-.06.93-.33-.38-.38-.82-.11-.89,0-.89Z"/><path class="cls-3" d="M62.11,100.19c.11-.06.44.5.49.94s.17.66-.16.71-.28-.16-.39-.66,0-1,.06-1Z"/><path class="cls-3" d="M62.83,100c.16-.06.33.33.49.83s.11.93,0,.93-.33-.33-.44-.82-.16-.94-.05-.94Z"/><path class="cls-3" d="M64,99.69c.11,0,.28.5.28,1.11s-.11,1.1-.28,1.1-.27-.5-.27-1.1.11-1.11.27-1.11Z"/><path class="cls-3" d="M64.92,100c.11,0,.22.45.22.94s-.11.94-.22.94-.22-.39-.22-.94,0-.94.22-.94Z"/><path class="cls-3" d="M65.86,99.75c.11,0,.22.49.22,1.1S66,102,65.86,102s-.22-.49-.22-1.1.11-1.1.22-1.1Z"/><path class="cls-3" d="M66.85,99.47c.16.06.22.55.16,1.27s-.22,1.16-.38,1.16-.17-.55-.11-1.21.16-1.22.33-1.22Z"/><path class="cls-3" d="M68.17,99.42c.17,0,.17.55.06,1.21s-.28,1.16-.44,1.16-.17-.55-.06-1.21.33-1.16.44-1.16Z"/><path class="cls-3" d="M69.22,98.81c.16,0,.44.83.33,1.6s-.39,1.49-.55,1.43-.06-.71,0-1.48.06-1.6.17-1.55Z"/><path class="cls-3" d="M63.6,105c0-.06.16.16.27.39A1.64,1.64,0,0,1,64,106s-.22-.17-.27-.39-.17-.55-.11-.55Z"/><path class="cls-3" d="M64.37,104.76c.11,0,.27.28.38.61s.11.5,0,.55-.17-.11-.28-.44a1.09,1.09,0,0,1,0-.72Z"/><path class="cls-3" d="M71.81,102.45v.39h0l.49-.34a15.63,15.63,0,0,0,.06-2.7,25.44,25.44,0,0,1-.55,2.65Z"/><path class="cls-3" d="M71.26,103.66c-.28,1.43-.33,1.88-.88,2.37a5.1,5.1,0,0,0,.11-1.71,1.3,1.3,0,0,1-.39.11v.17a2.84,2.84,0,0,1-.61,2.15c0-.77.28-1.49.28-2.26-.17.05-.28.11-.44.16v.78a6.53,6.53,0,0,1-.44,1.21,5.41,5.41,0,0,0,.11-1.93c-.11.05-.28.05-.39.11V105c0,.16,0,.33-.16.33s-.11-.11-.11-.28-.06-.16-.11-.22a.56.56,0,0,0-.28.06v0c.06.17.06.28,0,.34s-.16-.17-.27-.34a1.81,1.81,0,0,0-.28.06c0,.28,0,.39-.17.5s-.27-.17-.33-.45c-.16.06-.33.06-.49.11,0,.23,0,.39-.06.39s-.16-.11-.27-.33h-.44c0,.22,0,.33,0,.39s-.17-.11-.28-.33l0,.05c0-.05,0-.05,0-.05s0-.17-.11-.28a1.11,1.11,0,0,1-.17-.72c.12,0,.28.17.45.55a1.15,1.15,0,0,1,.11.39.92.92,0,0,1,.38-.11c0-.11,0-.17,0-.22-.11-.44-.11-.83,0-.88s.27.27.38.71a2.57,2.57,0,0,1,.06.28l.44-.17a2.06,2.06,0,0,1-.06-.55c0-.22,0-.33.06-.33s.33.33.44.77c.11-.05.16-.05.27-.11,0-.05,0-.05,0-.11a1.63,1.63,0,0,1-.11-.66c-.06-.16-.06-.22,0-.27s.33.38.44.77a.18.18,0,0,0,.06.16c.11-.05.16-.05.27-.11v-.88c0-.22.06-.33.11-.33s.11.11.17.28.11.49.16.77h0a.86.86,0,0,0,.33-.11v-.44c.06-.17.06-.28.11-.28s.17.28.22.55c.17,0,.28-.11.44-.16v-.61c0-.16.06-.33.11-.33s.11.06.11.22a1.54,1.54,0,0,1,.11.55c.11,0,.23,0,.34-.16h0c0-.33.05-.66.05-.89s.11-.38.17-.38.11,0,.11.27a4.05,4.05,0,0,1,.05.83h0a.86.86,0,0,1,.33-.11A23.79,23.79,0,0,0,72,97.71c-.11-.22-.22-.39-.33-.61a12.16,12.16,0,0,1-.93,5,13.86,13.86,0,0,0-.06-5.62h-.16c.05,2.26.05,4.13-.56,5.4a13.06,13.06,0,0,0-.55-5.9.86.86,0,0,0-.33-.11c.5.44.39,2.21.17,2.48-.33-1.05-.06-1.38-1-2.09H68a2.45,2.45,0,0,1,.44,2,6.17,6.17,0,0,0-1.16-1.77h-.49c.71.83.71,1,.6,1.66-.27-.72-1.37-1.22-1.81-1.55-.22,0-.28.06-.5.06.55.27,1.32,1.27,1,1.6-.39-.44-1.22-.89-1.55-1.49-.22,0-.11.11-.33.11.11.33,0,.55.06.94a2.1,2.1,0,0,1-1.38-.83c-.11,0-.33-.06-.33,0s.28.55.33.72c-.11-.17-1.27-.78-1.38-.94s.22-.06-.44-.11c.06.16.44,1,.5,1.21-.11-.16-.94-1.05-1.05-1.16-.27,0-.5,0-.77-.11l-.5-.82a34.63,34.63,0,0,0,8.55-.55l3.08-.61c1-.33,1.76.22,2,1.82L73,98.26A3.56,3.56,0,0,1,73.3,102a5.45,5.45,0,0,0,1.93,3c.88.83,1,2-.06,3.64a22.65,22.65,0,0,1-3.42,5.51s-.11.11-.11.16a.83.83,0,0,0-.16.22c0-.11.11-.16.16-.27,0-.28-.11-.55-.16-.83a1.49,1.49,0,0,1,.27.61l.5-.83c-.06-.27-.11-.55-.17-.88.11.22.22.38.33.61.11-.23.28-.45.39-.67-.11-.27-.17-.6-.28-.93a3.8,3.8,0,0,1,.39.66,5.56,5.56,0,0,0,.44-.83c0-.27-.16-.55-.22-.82a4.43,4.43,0,0,1,.33.55,7.37,7.37,0,0,0,.33-1.22l-5.67,3.53c.49-.44,1-.83,1.54-1.27l-.06.06-.16-1.05a7.31,7.31,0,0,1,.38.88c.11-.11.28-.22.39-.33L70,110.11a5.32,5.32,0,0,1,.45,1.1c.16-.11.33-.27.49-.38,0-.55-.11-1.16-.22-1.77a5.3,5.3,0,0,1,.55,1.49,4.94,4.94,0,0,1,.44-.39c0-.77-.16-1.65-.27-2.48a5.2,5.2,0,0,1,.66,2.1c.11-.11.22-.17.33-.28a26.82,26.82,0,0,0-.33-2.7,6.3,6.3,0,0,1,.77,2.32c0-.06.11-.11.17-.17a25.06,25.06,0,0,0-.33-3.19,4.86,4.86,0,0,1,.71,2.75l.33-.33a15.66,15.66,0,0,0-1.1-4.52c-.22.77-.22,1-.44,1,.11-.88,0-1.26-.11-1.37a4,4,0,0,1-.77,2.37l.22-2Z"/><path class="cls-3" d="M66.3,107.13h0c0,.33,0,.61-.22.61s-.17-.33-.11-.61Z"/><path class="cls-3" d="M66.9,106.53c.11,0,.17.16.17.55s0,.66-.28.66-.27-.39-.16-.72.16-.49.27-.49Z"/><path class="cls-3" d="M67.68,106.64h0c0,.6,0,1-.23,1s-.22-.5-.11-1Z"/><path class="cls-3" d="M67.56,105.87c.06,0,.06.11.12.27H67.4c0-.16.11-.27.16-.27Z"/><path class="cls-3" d="M68.34,105.76c.11,0,.16.22.16.71s0,.94-.38.88-.28-.49-.17-1,.22-.6.39-.6Z"/><path class="cls-3" d="M64.53,89.94a12,12,0,0,1,4.25,2.7c.22.39.11.5-.22.33-1-.33-2.43-2-4-3Z"/><path class="cls-3" d="M69.82,93.52c.28.17.39.33.33.39s-.27,0-.55-.11-.38-.39-.33-.44.28,0,.55.16Z"/><path class="cls-3" d="M55.94,95.56l1.48.17.34.55-.06-.06c-.17,0,.5,1.77-.39-.11-.11-.22-.44-.16-.71-.27s-.17-.17-.66-.28Z"/><path class="cls-3" d="M49.05,119.37c.27,0,.55.11.55.22s-.17.16-.44.16-.55,0-.55-.16.16-.22.44-.22Z"/><path class="cls-3" d="M49.76,120.75c.45-.11.94-.17,1-.06s-.22.28-.66.44a1.46,1.46,0,0,1-1,0c-.05-.11.22-.27.66-.38Z"/><path class="cls-3" d="M50.21,121.19c.49-.11,1-.17,1.1-.06s-.28.33-.77.44-1,.17-1.11.06.22-.33.78-.44Z"/><path class="cls-3" d="M50.87,121.68c.33-.11.66-.11.71,0s-.16.22-.49.33-.72.06-.77-.05.22-.22.55-.28Z"/><path class="cls-3" d="M51.31,122.12c.33,0,.55.11.55.22s-.17.17-.44.17-.55-.06-.55-.17.16-.22.44-.22Z"/><path class="cls-3" d="M57.2,119.92c.44-.17.89-.17.94,0s-.22.5-.66.67-.88.16-.94-.06.22-.44.66-.66Z"/><path class="cls-3" d="M56.43,119.42c.33-.16.66-.16.72,0s-.17.39-.5.5-.66.11-.71,0,.16-.39.49-.5Z"/><path class="cls-3" d="M55.72,118.43a.61.61,0,0,1,.55,0c0,.17-.11.33-.39.39s-.49.11-.55,0,.11-.28.39-.39Z"/><path class="cls-3" d="M47.73,113.86a.23.23,0,0,0-.45-.06,1.09,1.09,0,0,0,.45,1.1c.44.22.55-.22.33-.38a1.07,1.07,0,0,1-.33-.66Z"/><path class="cls-3" d="M47,113.47c.06-.33-.22-.49-.44-.22a1.17,1.17,0,0,0,0,1.38c.38.49.71.05.6-.22a1.19,1.19,0,0,1-.11-.94Z"/><path class="cls-3" d="M85.42,88.73c-.33.49-.44,2.37,1.21,4.63.61.77-.11,1.32.77,1.43.34-.06.56-.33.61-.83l-.55-.27h.77l-.83-.55c.28-.06.94.11.89-.17s-.83-.39-1.22-.55L88,92.2c.06-.28-.5-.5-1.38-.77l.88-.22-1-.61.77-.22-1.21-.61.66-.33L86,89.22l.66-.33c-.55-.22-.77-.71-1.27-.16Z"/><path class="cls-3" d="M84.1,90.16a2.55,2.55,0,0,1-.22-1.87c.38-1,.77-1.27,1.1-1.27.66.72-.44,1.16-.66,1.71-.17.11-.22.49-.22,1.43Z"/><path class="cls-3" d="M83.82,86.74c.28-.27.61-.44.72-.33s-.06.39-.33.72-.61.49-.72.38.06-.44.33-.77Z"/><path class="cls-3" d="M83.55,90.27a.38.38,0,0,1,.33.39.36.36,0,0,1-.33.33.38.38,0,0,1-.39-.33.38.38,0,0,1,.39-.39Z"/><path class="cls-3" d="M84.26,91.37c.22.06.28.33.11.61s-.33.44-.49.33-.28-.33-.11-.61.33-.44.49-.33Z"/><path class="cls-3" d="M85,92.53c.28.11.34.39.11.72a.85.85,0,0,1-.82.38.47.47,0,0,1-.17-.71.81.81,0,0,1,.88-.39Z"/><path class="cls-3" d="M85.86,93.8c.17.22.06.44-.22.55a.61.61,0,0,1-.72-.17c-.11-.16,0-.38.22-.49a.65.65,0,0,1,.72.11Z"/><path class="cls-3" d="M89.83,94.46a.31.31,0,0,0-.17-.5c-.27,0-.44,0-.6-.33-.22-.66.11-1,.66-1.16.44,0,.61.17.49.45l-.27.22a1.67,1.67,0,0,1,1,.6c-.27,0-.44.06-.49.28.93-.17.88,1.32,0,1-.55-.16-.83.06-.55,1,.22,1.1,1,1.37.94.22-.11-.55,1.76-.66,2,.55l-.72-.28c.17.88.89.5,1,1.27l-.61.06a4,4,0,0,1,1.54,1.81c-.77-.11-.82-.93-1.54-.93.94,1.26,2,1,2.59,2.26a5.21,5.21,0,0,1-2.76-1.66c.94,1.33,1.55,2.43,1.33,3-1.38-.61-1.66-2.65-2.21-3.25,0,1,.77,1.65.5,2.81a5.16,5.16,0,0,1-.83-3.36c.55.11.77-.28.77-1.22s-.6-.93-.49,0c0,.72-.5.94-2,.06-.22.22.11.5.94,1l0,.83.44-.72.16,2.32c-.05.6-.22.49-.38-.11l-.17-1.16c0,.83-.11,1.21-.39,1.16l-.22-2.15-.6.77L89,98.1l-.55.44V97.05c-.38.22-.83,0-1.27-.61a1.72,1.72,0,0,0,1.49-.22c-.27-1.1.22-1.65,1.16-1.76Z"/><path class="cls-3" d="M76.71,101.18a1.29,1.29,0,0,0-.33-1.32c-.22-.22-.38-.28-.33,0,.11.44.55.88.66,1.32Z"/><path class="cls-3" d="M75.83,97.82c.72.39,1,.44,1.43,1.49.11.38.06.66-.22.33-.44-.5-.66-1.32-1.21-1.82Z"/><path class="cls-3" d="M75.94,95.67A3.2,3.2,0,0,1,77.71,98c.11.6-.06.93-.39.44-.55-.78-.72-1.93-1.38-2.76Z"/><path class="cls-3" d="M76.38,94.13a3,3,0,0,1,1.82,2.7c0,.6-.27,1-.44.44a7.86,7.86,0,0,0-1.38-3.14Z"/><path class="cls-3" d="M76.82,93.3a3.16,3.16,0,0,1,1.88,2c0,.55,0,.83-.39.39a6,6,0,0,0-1.49-2.43Z"/><path class="cls-3" d="M83.33,120.58a1.5,1.5,0,0,1,2-.66c.44.11.38.66.38,1-.27-.28-.55-.61-.83-.28-.77-.61-1-.27-1.59-.11Z"/><path class="cls-3" d="M80.35,120.8c.22,0,.39.11.39.33s-.17.28-.39.28a.31.31,0,0,1-.33-.28.32.32,0,0,1,.33-.33Z"/><path class="cls-3" d="M78.42,120.8c.11,0,.28.17.39.44s0,.55-.06.55-.27-.11-.38-.44-.06-.55,0-.55Z"/><path class="cls-3" d="M79.08,120.69c.06,0,.17.11.22.33s.06.33,0,.39-.17-.11-.22-.33-.06-.33,0-.39Z"/><path class="cls-3" d="M79.25,113.58c-.06.06-.11.11-.11.17-.22.22-.44.38-.5.27s0-.33.11-.55l.22-.22s0-.11-.11-.16,0,.11-.11.16c-.22.28-.49.44-.6.33s-.06-.38.16-.66a.91.91,0,0,1,.22-.22c0-.06,0-.11-.11-.11h0c-.22.28-.49.39-.6.33s-.06-.39.16-.66a.12.12,0,0,1,.11-.11c-.11-.11-.11-.17-.16-.22-.17.11-.28.16-.39.11s0-.28.17-.5c-.12-.22-.17-.44,0-.55.33-.27.49.11.82.83.11.27,0,.44.17.6s.44.33.55.5a1.38,1.38,0,0,1,.27,1.16c-.11,0,0-.06-.27-.5Z"/><path class="cls-3" d="M79.25,114.13c.16.11,0,.44-.22.77s-.55.5-.66.39-.06-.44.16-.77.61-.5.72-.39Z"/><path class="cls-3" d="M86,110.88s0,.33-.11.66-.33.55-.44.5,0-.33.11-.66.33-.55.44-.5Z"/><path class="cls-3" d="M85.2,110.55c.11.06.06.5-.17,1s-.55.83-.71.77-.11-.49.16-1,.55-.82.72-.77Z"/><path class="cls-3" d="M83.27,109.78c.11,0,.06.38-.11.83s-.38.66-.5.6,0-.38.12-.77.38-.72.49-.66Z"/><path class="cls-3" d="M29.81,16.64A1.41,1.41,0,0,1,31,15.43l1.21.22c.44.33.39.44-.11.5-1-.17-1.54.05-1.82.71s-.55.61-.5-.22Z"/><path class="cls-3" d="M33.67,19a.31.31,0,0,1,.28.33.37.37,0,0,1-.28.33.31.31,0,0,1-.27-.33c0-.22.11-.33.27-.33Z"/><path class="cls-3" d="M29.65,17.86c-.39.49-.28,1,.38,1.7l.89,1.11c.77.55,1.15.44,1-.39-.11-.55.06-.77.55-.77a1,1,0,0,0,.72-.5c.11-.44.06-.66-.33-.77a5,5,0,0,1-1.82.83A4.89,4.89,0,0,0,32.4,18a.65.65,0,0,1,.72-.11.63.63,0,0,0-.49-.66,3.37,3.37,0,0,0-2.26,1.32,2.24,2.24,0,0,1,2.09-1.49.66.66,0,0,0-.28-.71,2.39,2.39,0,0,0-1.7.49l-.83,1Z"/><path class="cls-3" d="M34.11,24.69a23.75,23.75,0,0,1,4.58,6.23v2L38,30.64c0,1.6,0,2.65-.17,2.32l-.55-3.31-.39,1.43-.33-2c-.27-.22-.33,1.05-.27,2.81-.5-.49-.44-1.93-.39-3.52l-.55,1.54a6.11,6.11,0,0,1,0-3c-.33-.27-.55.28-.66,1.93a5.6,5.6,0,0,1-.11-3l-.39.83-.11-1.93Z"/><path class="cls-3" d="M47.61,9.15a3.86,3.86,0,0,0,2.26.55l.06.44A7.6,7.6,0,0,0,54,8.6a.71.71,0,0,0-.61,0c-1,.49-.88.16,1-.77.28-.17.5,0,.94-.11l1.21-.28c-1,.88-2,1.76-3.08,2.59a5,5,0,0,1-4.19.66,11.75,11.75,0,0,1-2.1-1.27c-.16-.27-.33-.44.44-.27Z"/><path class="cls-3" d="M55.22,9.42a.23.23,0,1,1,0,.44.22.22,0,1,1,0-.44Z"/><path class="cls-3" d="M56.87,12.73c.11-.16.22-.22.33-.11s.11.22,0,.33-.27.22-.33.17-.11-.22,0-.39Z"/><path class="cls-3" d="M60.79,11.24c.16-.05.33-.05.38.06a.28.28,0,0,1-.22.38c-.16.11-.33.11-.38,0s0-.28.22-.39Z"/><path class="cls-3" d="M59.9,10.64c.17-.11.34-.17.39-.06s.06.28,0,.39-.34.16-.39,0-.06-.22,0-.38Z"/><path class="cls-3" d="M53.9,11.79a.31.31,0,0,1,.38.11.3.3,0,0,1-.27.28.33.33,0,0,1-.39-.11c0-.11.11-.22.28-.28Z"/><path class="cls-3" d="M56.05,15.87c.22-.11.49-.11.55,0s-.06.28-.33.39-.5,0-.55-.06.05-.27.33-.33Z"/><path class="cls-3" d="M49,12.12a8,8,0,0,0,2.54-.77l1.27-.6c.6-.28.71-.22.22.27a14.37,14.37,0,0,1-1.77,1.21,2.63,2.63,0,0,1-2.42.45c-.61-.17-.39-.5.16-.56Z"/><path class="cls-3" d="M52.85,11.57A6.4,6.4,0,0,1,55,10.31a7.14,7.14,0,0,1,2.81-.5c.66-.61,1.27.22.55.88a3.78,3.78,0,0,1-.77.5,6.35,6.35,0,0,1-2.26,1c-1,.27-1.1.16-.28-.39a7.43,7.43,0,0,1,.78-.55,4.14,4.14,0,0,1,1.87-.55c-.94-.6-2.76.33-4.57,1.21-.56.28-.72.11-.28-.33Z"/><path class="cls-3" d="M57.81,8.71A4,4,0,0,1,59,8.65c.71.22,1,.61,1.1,1.1a1.23,1.23,0,0,1-.72.89c-.16-.89-.49-1.38-1-1.55A2.05,2.05,0,0,0,57.81,9V8.71Z"/><path class="cls-3" d="M57,8.93a1.82,1.82,0,0,1,.5-.22V9L57,9.15c-.22,0-.44-.11-.06-.22Z"/><path class="cls-3" d="M56,8.38a3.09,3.09,0,0,1,1.71-.89,9.22,9.22,0,0,1,2.09.06c1.38.5.83.94,0,.61a2.24,2.24,0,0,0-2,0c-.06.55-1,.11-1.55.49-.38.17-.44.06-.22-.27Z"/><path class="cls-3" d="M60,8.54c.45,0,.78.06.83.44a1.09,1.09,0,0,1-.38,1.11c.16-1.05-.34-.94-.45-1.55Z"/><path class="cls-3" d="M61.23,8.27a2,2,0,0,1,0,1.32l-.44.83c-.11.38,0,.49.27.38a1.31,1.31,0,0,0,.66-1.21c0-.83.06-1.21.33-1.49-.49-.83-1-.72-.82.17Z"/><path class="cls-3" d="M57.7,13.12c0,.55,1.27.66,1.43.05s-.22-1.16-.05-1.82a1.74,1.74,0,0,0-1.38,1.77Z"/><path class="cls-3" d="M57.37,14.55a1.27,1.27,0,0,1,1.38-.61c.49,0,.77.11.77.61A6.64,6.64,0,0,1,59.46,16c-.16.44-.22.38-.77.44s-.82-.28-1.49.11c.39-.94-.05-1.32.17-2Z"/><path class="cls-3" d="M59.74,12.4c-.28-.44,0-.61.33-.28a1.44,1.44,0,0,1,.55,1.05c.06.39-.38.72-.66.39s0-.66-.22-1.16Z"/><path class="cls-3" d="M60,14.49c-.16-.55.06-.6.72-.33.44.39.5.66.28.88a1.39,1.39,0,0,1,.05,1.77c-.27-.22-.6-.11-.82-.44-.06-.22-.23-.11-.12-.94a1.35,1.35,0,0,0-.11-.94Z"/><path class="cls-3" d="M60.79,19c.27,0,.44.17.44.33s-.22.28-.44.22-.44-.16-.44-.33.22-.22.44-.22Z"/><path class="cls-3" d="M57.37,18.52c.27,0,.5.16.44.33s-.22.33-.5.27-.49-.16-.44-.33.22-.33.5-.27Z"/><path class="cls-3" d="M61.56,17.91a3.18,3.18,0,0,0-2.37-1.1,8.63,8.63,0,0,0-2.92.38,3.79,3.79,0,0,0-.72,3l.5.11-.44.33h.6l-.38.55.33.11-.28.72.33.22-.16.44.44.06-.11.44.33.05-.11.44.33.11a3.25,3.25,0,0,0,1,.88,1.6,1.6,0,0,0,1,.11A8.83,8.83,0,0,0,60.4,23.2c.17-.05.22-.38.22-.88a.82.82,0,0,0,.44-.83l.28-.38V19.78a1.47,1.47,0,0,1-.83.11l-.77-.33-.22,1.71c0,.33-.17.83-.55.66L58,21.49c-.22-.11-.16-.44.11-.55l.33-.05V19.4a1.9,1.9,0,0,1-1.71-.17,1.4,1.4,0,0,0-.66-.11,2.34,2.34,0,0,1,.61-.77l-.33-.49c.11,0,.33.05.49.05.77-.05,1.16-.16,1.38.06a2.39,2.39,0,0,0,.61.49l0-.38c.17-.44.5-.56,1-.39l-.11,1.1,1.77-.55v-.33Zm-4.08,4.52a3.63,3.63,0,0,1,1.54,0c.88.22.94.55.11,1.05a5.36,5.36,0,0,1-1.6-.17c.17-.27.34-.38-.05-.88Zm.66.39a.82.82,0,0,1,.88,0c.17.11.11.27-.05.38a1.06,1.06,0,0,1-.61,0c-.16-.16,0-.27-.22-.38Z"/><path class="cls-3" d="M58.31,21.11a.14.14,0,0,1,.16.16c0,.06,0,.11-.16.11s-.17-.05-.17-.11a.17.17,0,0,1,.17-.16Z"/><path class="cls-3" d="M59.19,18.57c0-.11.05-.22.05-.38.28-.28.39-.44.39-.17a1.55,1.55,0,0,1-.06.55Z"/><path class="cls-3" d="M58.86,21.27c0-.71.16-1.32.27-2.2h.39a18.48,18.48,0,0,1-.33,2.31c-.11.22-.22.11-.33-.11Z"/><path class="cls-3" d="M54.61,17.47c0-.44.39-.39.44,0a2,2,0,0,1-.38,1.76c-.28.17-.66,0-.44-.33a1.66,1.66,0,0,0,.38-1.43Z"/><path class="cls-3" d="M54.28,20.61c-.11-.49.22-.66.33-.11a8.44,8.44,0,0,0,2.54,4.3c.61.5-.06.94-.61.44a7.67,7.67,0,0,1-2.26-4.63Z"/><path class="cls-3" d="M59.79,25.13a1.36,1.36,0,0,1,.61-1.27c.33-.22.44.17.28.39-.33.38-.61.38-.89.88Z"/><path class="cls-3" d="M45.41,31.25a1.8,1.8,0,0,1,.33-.94,1.32,1.32,0,0,1-.38-.28,9.46,9.46,0,0,1-1.22,1.82,7.26,7.26,0,0,1,1.6-2.92,9.51,9.51,0,0,1-.33,1c.11.11.28.23.39.34a1.34,1.34,0,0,0,.27-.34,1.67,1.67,0,0,1,0,.5h0l0,.17L46,30.53a2,2,0,0,1-.55.72Z"/><path class="cls-3" d="M44.75,32.24a1.22,1.22,0,0,1,.39-.77,1.11,1.11,0,0,1-.39.77Z"/><path class="cls-3" d="M47.67,32.68c.06-.22.11-.44.17-.61h0L48,32a.41.41,0,0,1,.11-.22h0c.11-.11.22-.27.33-.38a1.62,1.62,0,0,1-.72,1.32Z"/><path class="cls-3" d="M47.56,34.28c-.17-.55,0-.94.66-1.27,0,.83,0,1.05-.66,1.27Z"/><path class="cls-3" d="M48.88,33.78a5.87,5.87,0,0,0,.44-3.58c.61,1.54.5,2-.44,3.58Z"/><path class="cls-3" d="M57.87,38.8a12.41,12.41,0,0,0,.33-3.42c-.11.06-.17.06-.28.11a8.4,8.4,0,0,1-.55,2.21,7.53,7.53,0,0,0,.22-2.15.86.86,0,0,1-.33.11,10.92,10.92,0,0,1-.44,1.76A9.47,9.47,0,0,0,57,35.71c-.16,0-.33.06-.49.06-.06.71-.17,1.48-.33,2.48,0-.83-.06-1.66-.06-2.43h-.55a20.65,20.65,0,0,1-.27,2.81c-.06-1-.06-1.93-.11-2.86a5.56,5.56,0,0,0-.56-.11,22.75,22.75,0,0,1-.27,3c-.06-1.05-.11-2-.11-3l-.5-.16a20.8,20.8,0,0,1-.44,2.75c0-1,0-1.87.06-2.86l-.5-.17c-.05,1.1-.16,2.09-.22,3.25A15,15,0,0,1,52.46,35a1.07,1.07,0,0,1-.44-.22,12.9,12.9,0,0,0-.27,3.81,6.8,6.8,0,0,1-.06-3.92,1.26,1.26,0,0,0-.33-.22,9.29,9.29,0,0,1-.77,1.49,9.82,9.82,0,0,0,.55-1.6c-.16-.11-.38-.22-.55-.33a7.46,7.46,0,0,1-1,2.43,14.9,14.9,0,0,0,.83-5.51A11.18,11.18,0,0,1,50.7,33l.61.28a23.76,23.76,0,0,0,.16-2.87,6.81,6.81,0,0,1,.22,2.92,1.65,1.65,0,0,0,.5.17,3.52,3.52,0,0,1,.27-.44l-.16.49c.11,0,.27.06.39.06.11-.33.16-.72.33-1.16,0,.44-.06.83-.06,1.27.17,0,.28.05.44.05,0-.27.06-.6.06-.93a6.54,6.54,0,0,1,.16,1c.17,0,.39,0,.55,0V32.63c.11.49.22.88.28,1.26a2.46,2.46,0,0,0,.66.06,10.09,10.09,0,0,1,.06-1.32c.11.49.16.93.27,1.32H56V32a11.52,11.52,0,0,1,.39,1.93c.16,0,.33,0,.49,0,0-.44-.11-.94-.16-1.44a5.22,5.22,0,0,1,.44,1.38c.11,0,.22-.05.33-.05-.06-.5-.17-1-.22-1.55a14,14,0,0,1,.5,1.44.65.65,0,0,0,.33-.06c-.11-.77-.17-1.6-.33-2.53C59,34.17,59,35.6,57.87,38.8Z"/><path class="cls-3" d="M59.41,35.16l.22.5.77-.72c.22-.28.44-.22.61.17l.05-.89c.28-.16.5,0,.72.22a.86.86,0,0,0,0-.82l.11-1.11c-.44-.71-.77-1.15-1.26-1.32a2,2,0,0,1,.11,1.55,1.7,1.7,0,0,0-.94-1.49,1.89,1.89,0,0,1,.22,1.32,1.71,1.71,0,0,0-.55-.5l.11.67L59.3,33l.11,2.2Z"/><path class="cls-3" d="M64.48,31.25c0,.16,0,.27-.11.27s-.22-.11-.39-.27Z"/><path class="cls-3" d="M64.15,30.31h0a2.38,2.38,0,0,1,.22.66h-.61a4.43,4.43,0,0,1-.33-.55s0-.05,0-.11Z"/><path class="cls-3" d="M63.16,29.26c.16,0,.55.33.82.83h-.71c-.22-.44-.28-.83-.11-.83Z"/><path class="cls-3" d="M62.83,31.19c.05-.05.27.17.49.5s.22.6.17.66-.28-.17-.44-.5-.28-.66-.22-.66Z"/><path class="cls-3" d="M61.78,31s.33.22.6.61.34.77.22.82-.33-.22-.6-.6-.33-.77-.22-.83Z"/><path class="cls-3" d="M44,28.82c.16.11.27.22.38.28l.28-.28a1.13,1.13,0,0,1-.44.77,4.26,4.26,0,0,1,.16-.44,2.57,2.57,0,0,0-.38-.33Z"/><polygon class="cls-3" points="39.07 84.1 38.85 84.81 38.63 84.7 38.74 84.1 39.07 84.1 39.07 84.1"/><path class="cls-3" d="M22,108.4c.72-.27.88.06,1.1.88.61.55,1,1,1,1.44q1.91,1.56-.66,1.32a1.2,1.2,0,0,1-.88-1.32L22,108.4Z"/><path class="cls-3" d="M22.26,112.64a1.76,1.76,0,0,0,.22,2.15,1.38,1.38,0,0,0,1.11.5l-.22-.61.66.44c0-.33-.28-.71-.88-1.15l.82.22c0-.44-.38-.83-1-1.16h.55c-.28-.77-.77-1-1.22-.39Z"/><path class="cls-3" d="M24.41,113c.22,0,.39.22.44.55s-.05.61-.27.66-.39-.22-.44-.55.11-.66.27-.66Z"/><path class="cls-3" d="M35.6,75.28a10.63,10.63,0,0,1,1.76-5.18,41.68,41.68,0,0,0-1.76,5.18Z"/><path class="cls-3" d="M39.57,65c-.66.28-.72-.28-.22-.66a5.2,5.2,0,0,1,3.53-1.21h2.31c.88,0,.77.88,0,.82H43.48A7.35,7.35,0,0,0,39.57,65Z"/><path class="cls-3" d="M44.58,64.2c.61,0,1.11.11,1.11.22s-.5.22-1.11.22-1.1,0-1.1-.22.5-.22,1.1-.22Z"/><path class="cls-3" d="M49.1,52.52c-.11-.11-.38.28-.77.77s-.55.88-.49.88.38-.27.71-.77.61-.88.55-.88Z"/><path class="cls-3" d="M45.25,56.32c-.28.5-.17.77.38,1,2.21.67,4.35-.05,6.5-1.26l2.7-1.27c.5-.61.39-.77-.27-.55l-1.32.66.33-1.1a5.18,5.18,0,0,0-1.49,1.71l-.22-.56a2.14,2.14,0,0,0-.72,1.16l-.27-.6a1.57,1.57,0,0,0-.66.71l.11-.77c-.22-.16-.56.22-1,1.1l.22-.82c-.16-.17-.44.16-.82,1l.88-2.65c-.44.06-1.05,1-1.71,2.81-.28.06-.39,0-.33-.27l1-1.93c-.49-.06-1,.66-1.71,1.93l.77-2.21-1.43,1.88v-.72a2,2,0,0,0-.93.77Z"/><path class="cls-3" d="M45.52,92.2c-.22-.22.17-.44.28-.33l.66.6c.16.17-.22.45-.39.34l-.55-.61Z"/><path class="cls-3" d="M46,91.76c-.11-.17.16-.39.27-.28l.55.55c.17.17-.16.39-.27.28L46,91.76Z"/><path class="cls-3" d="M46.35,91.26c-.22-.22.16-.49.33-.33l.66.66c.16.17-.28.44-.39.28l-.6-.61Z"/><path class="cls-3" d="M46.62,90.44c-.22-.28.28-.67.55-.5l1,1c.27.28-.39.72-.56.5l-1-1Z"/><path class="cls-3" d="M47.67,89.55c-.33-.33.11-.77.39-.49l1.21,1c.33.28-.17.78-.44.56l-1.16-1.11Z"/><path class="cls-3" d="M48.39,89a.28.28,0,1,1,.33-.44l1,.88c.28.28-.16.66-.38.5l-1-.94Z"/><path class="cls-3" d="M49.32,88.67c-.22-.22.06-.55.28-.38l.88.77c.22.22-.16.6-.33.44l-.83-.83Z"/><path class="cls-3" d="M44.91,82.44c0-.27-.44-.16-.49.06l-.11,1c0,.22.49.11.49,0l.11-1Z"/><path class="cls-3" d="M43.48,83.82c0-.44-.49-.22-.49.06l.11.77c0,.38.55.16.49-.06l-.11-.77Z"/><path class="cls-3" d="M41.83,84.87c-.06-.39-.33-.28-.33,0l-.06.72c0,.38.39.22.39,0v-.72Z"/><path class="cls-3" d="M43.92,83.49a.25.25,0,0,1,.22.28.25.25,0,0,1-.22.27c-.05,0-.16-.11-.16-.27s.11-.28.16-.28Z"/><path class="cls-3" d="M42.38,84.48a.32.32,0,0,1,.28.33c0,.22-.12.33-.28.33s-.28-.11-.28-.33a.31.31,0,0,1,.28-.33Z"/><path class="cls-3" d="M41,85.48c0-.34-.44-.34-.44-.06v.66c0,.33.5.28.5.06L41,85.48Z"/><path class="cls-3" d="M53,43.81c.17,0,.28.17.28.39s-.11.44-.28.44-.22-.22-.22-.44.11-.39.22-.39Z"/><path class="cls-3" d="M53.62,44.86c-.11,0-.16-.28-.16-.61s0-.66.16-.66.22.28.22.66-.11.61-.22.61Z"/><path class="cls-3" d="M54.67,44.58c.27,0,.5.11.5.22s-.23.17-.5.17-.44-.11-.44-.17.22-.22.44-.22Z"/><path class="cls-3" d="M55.22,45.52a.24.24,0,0,1,.22.22.25.25,0,0,1-.22.28.28.28,0,0,1-.17-.28.26.26,0,0,1,.17-.22Z"/><path class="cls-3" d="M56.1,45.47h2c.66,0,.77.33.33.93.22,1.1-1.16,1.82-1.1.06-.11-.33-.5-.5-1.27-.5-.33-.11-.33-.44,0-.49Z"/><path class="cls-3" d="M52.91,58.42a.26.26,0,0,1,.27.27.3.3,0,0,1-.27.33c-.11,0-.22-.16-.22-.33a.25.25,0,0,1,.22-.27Z"/><path class="cls-3" d="M52,58.69a.37.37,0,0,1,.33.39.35.35,0,0,1-.33.33.32.32,0,0,1-.33-.33c0-.22.11-.39.33-.39Z"/><path class="cls-3" d="M53.13,59.3c.71-.5,1.43-.83,1.54-.66s-.39.71-1.16,1.26-1.43.78-1.6.61.44-.72,1.22-1.21Z"/><path class="cls-3" d="M55.77,57.59c.44-.39.88-.61.94-.55s-.22.49-.66.88-.88.61-.94.5.22-.5.66-.83Z"/><path class="cls-3" d="M54.06,61.78a7.06,7.06,0,0,1,.55-1.1l-.11-.06a2.14,2.14,0,0,1,1.27-1.49l.11.06a3,3,0,0,1,.83-.55c-.17.27-.28.55-.44.77l.16.11a3.39,3.39,0,0,1,1.44-.88,7.36,7.36,0,0,1-1,1.1l.33.22a6.16,6.16,0,0,1,1.6-1c-.39.38-.77.82-1.22,1.21l.39.22a4.07,4.07,0,0,1,1.65-.77c-.27.22-.55.44-.77.66a9.26,9.26,0,0,1,1.38-.17c-.72.34-1.16.45-1.71.67l.44.27a3.35,3.35,0,0,1,1.66-.49c-.39.22-.83.49-1.27.71l.38.22a2.91,2.91,0,0,1,1.6-.33,8.9,8.9,0,0,0-1.21.55l.22.17a3.65,3.65,0,0,1,1.49-.33c-.44.16-.77.38-1.16.55l.33.16a2.68,2.68,0,0,1,1.27-.11,7.66,7.66,0,0,0-1,.33l1.15.72-.22.11-1.76-.6a.28.28,0,0,0-.22.11c0-.06.06-.11.11-.17l-.44-.11c-.22.11-.5.28-.77.39a1.85,1.85,0,0,1,.44-.5l-.44-.17c-.22.11-.5.28-.77.39a3.12,3.12,0,0,1,.44-.55l-.44-.17a10,10,0,0,1-.94.61,3.27,3.27,0,0,1,.55-.72l-.61-.22a8.81,8.81,0,0,1-.82.72,1.68,1.68,0,0,1,.44-.83l-.55-.22c-.28.28-.61.55-.94.83a5.79,5.79,0,0,1,.55-.94l-.88-.33a6,6,0,0,1-1,.94Z"/><path class="cls-3" d="M47.89,63.49c-.72,1.43-1.43,3.63-1.93,8.1a18.3,18.3,0,0,0-.05,6c.22,1.11.71,1.49,1.21,1.44l8.21-1.32c.61-.12,1.21-.61.94-1.16l-.33-.66-.28.93-.44-.77-.33.88-.5-1.1L54,77.15l-.5-1-.27,1.1L53,76.27l-.33,1.16-.39-1.05-.33,1.27-.44-1.21-.33.88-.38-.72-.28.66-.38-.55a1.46,1.46,0,0,0-1.16,0l-.17.28-.22-.28c-.6-.16-1.27-.27-1.87-.38l.77-.39c0-.27-.28-.38-.77-.33L47.5,75l-.88-.16.83-.5c0-.22-.22-.44-.88-.71l.88-.28v-.22L46.57,73l.93-.44c.11-.22-.16-.39-.77-.61l.77-.22c0-.22-.11-.49-.66-.71l.66-.22-.66-.5.83-.33c0-.28-.11-.39-.61-.61L48,69a1.18,1.18,0,0,0-.83-.61l.83-.27-.67-.44.78-.34-.61-.22.72-.44c.16-.16-.11-.33-.72-.38l.83-.33,0-.33-.77.11.39-.33-.5-.39,1.16-.28.11-.22-.83-.22.66-.38a.6.6,0,0,0-.66-.44Zm1.27,1.15.16,0a33,33,0,0,0-.49,11c-.28-5.23.38-10.8,1.38-11.74l.16.39a22.82,22.82,0,0,0-.5,11.3c-.49-5.74,0-9,.94-10.81v.56c-.77,4-.83,7.27-.11,9.92l.22-.17a32.23,32.23,0,0,1,.44-10.69l.39,0A28.86,28.86,0,0,0,51.53,75l.22-.22A29.85,29.85,0,0,1,52,64.64l.33.06a30.37,30.37,0,0,0-.11,10.19l.22,0a30.49,30.49,0,0,1,.39-10.25l.22.22a39.59,39.59,0,0,0,0,9.86l.22-.11c-.11-4-.33-7.11.17-9.42l.27-.33a37.27,37.27,0,0,0,.11,9.81h.22a40.51,40.51,0,0,1,.17-10.2l.22.17a69.21,69.21,0,0,0,0,10.08l.22,0c-.22-4.74,0-8,.45-9.92.44-.17.44.38,0,1a39.25,39.25,0,0,0,0,8.87l.33.06A34.78,34.78,0,0,1,56,64.81c.28-.28.55,0,.22.72a38.21,38.21,0,0,0-.27,9.09h.38c.44.16.5.33.06.49a58.75,58.75,0,0,1-7.77,1.22c-.5,0-.66-.22-.66-.94a33.36,33.36,0,0,1,1.21-10.75Zm9.09,2.26.33-1.65c.39-.22.55-.11.5.33L58.36,67l-.11-.06Zm-.61-1.76c-.38,2.76-.38,4.41-.66,7.27l.22.5a42,42,0,0,1,.94-7.66c.17-.44-.27-.55-.5-.11ZM56.82,65c.16-.22.44-.17.38.11a51.78,51.78,0,0,0-.77,8.38h-.16A30,30,0,0,1,56.82,65Zm-11.46,18a6.84,6.84,0,0,1,.38-2.75c.11-.39.5-.61,1.16-.67l7.38-1.1c.39,0,.44.17.39.66a5.24,5.24,0,0,1-.55,1.93c-.28.22-.33-.71-.28-2.15-.55,1.33-.33,2.7-1.21,2.92-.39-.6.22-1.76.33-2.64-.83.77-.55,1.71-1.27,2.7-.27,0-.22-.88,0-2.37A7.64,7.64,0,0,1,50.54,82a4.34,4.34,0,0,1-.17-2c-.33,1.43-.72,2.42-1,2.59a8.5,8.5,0,0,1,.06-2.37L49.21,80a5.9,5.9,0,0,1-.77,2.59A3.16,3.16,0,0,1,48.55,80h-.33c-.22.72-.33,1.32-.66,1.54-.44,0-.66-.55-.66-1.38a5.14,5.14,0,0,1-1.54,2.87Z"/><path class="cls-3" d="M59.3,67.45c-.44.34-.61.72.27.67-.6.55-.66.93-.16,1.1-1.1,1.38-1.1,1.76-.06,1.16-1.21,1.54-1,1.76-.22,1.48-1,1.27-.88,1.44-.55,1.49-.71,1-.71,1.49,0,1.43a1.71,1.71,0,0,0-1.05,1.55c-.22.88-2.59,1.87-.61,2.7a3.93,3.93,0,0,1,1.49,2.59c.17.77.5.82,1.16.55a8.63,8.63,0,0,1,1.65-.28c1,.11,1.1-1-.05-1.21.11-.44-.28-.66-.88-.38.49-.83-.12-.61-.34-.72.34-.17.28-.55-.6-.06l-.11-.27a.92.92,0,0,0,.71-.77L58.42,79c.44-.38.66-.66.6-.93l-1,.22c1.1-.78,1.54-1.33,1.48-1.6L58.31,77c.82-.66,1.37-1.21,1.32-1.54l-1,.38c0-.33.44-.66,1.26-.88s1-.77.89-1.38l-1.49.72a11.2,11.2,0,0,0,2.48-2.76c-.11-.38-1.32.44-2.92,1.77V73a12.5,12.5,0,0,0,3.58-3.64l-2.92,2.26,2.64-3.14c-.16-.38-.93.06-2.42,1.6l.11-.33,1.38-1.49A5.12,5.12,0,0,0,63.38,66c.27-.72-.66.22-2.1,1.48-.33.34-.71.5-1.1.89l3.36-3.53.06-.44c-.33-.33-2.48,2.2-4.3,3.08Zm-4,13.62c-.61-.39.06-1.27.5-.89l1.65,1.22c.5.38,0,1-.39.77l-1.76-1.1ZM56,80c-.6-.39.11-1.16.5-.83l.88.88c.5.45.16.83-.28.61L56,80Zm3.53,3.31c-.44-.22-.66.11-.39.33a10.36,10.36,0,0,0,2.32,1.48,5.1,5.1,0,0,0,2.53.5c.61,0,.88-.38.11-.55a19.8,19.8,0,0,1-4.57-1.76Zm.44-.06c-.28-.33-.22-.61.16-.83l2-.16a1.34,1.34,0,0,1,1,.66l.93,1c.39.49.06.88-.33.77A22.71,22.71,0,0,1,60,83.27Z"/><path class="cls-3" d="M61.94,78a2.85,2.85,0,0,1,1.55-1.33A26.66,26.66,0,0,0,69,75.39c.55-.39.77-.28.71.33-.16,1.71-.38,3.14-.88,3.58v-3l-.22,0a6.51,6.51,0,0,1-.77,3L68,76.66h-.27l-.61,2.7L67.23,77c0-.33-.11-.39-.27-.22-.39,2.75-.88,3.91-1.43,4.3A9.39,9.39,0,0,0,66,77l-.17-.11a12.53,12.53,0,0,1-.88,3.86c-.55-.83.5-2.26.28-3.64h-.12l-1,3.42c-.33,0-.22-.44.11-1.32l.11-1.93-.16.11a9.69,9.69,0,0,1-.94,2.48l.17-2.54-.72,1.82.06-1.48-.78.33Zm8.16-2.1c.05-.6.72-.44.44.17l-.33.77H70l.06-.94Zm-.17,2.26c.06,0,.11.17.11.39S70,79,69.93,79s-.11-.16-.11-.38.06-.39.11-.39Zm.28-.83c.11,0,.17.06.17.22s-.06.23-.17.23a.24.24,0,0,1-.22-.23.2.2,0,0,1,.22-.22ZM70.15,74c.17,0,.28.22.34.5s.05.55-.11.55-.23-.17-.28-.44a.94.94,0,0,1,.05-.61Zm-.82-1.6a1.46,1.46,0,0,1,.49,1.33c0,.55-.49.93-.49.55a3.6,3.6,0,0,0-.39-1.71c-.22-.28.17-.39.39-.17Zm-4-1c0-.55.49-.11.49.22l-.16.88c-.17.17-.22.06-.39-.27l.06-.83Zm-1.93,2.87c-.44.27-.44.49,0,.66l.22-.06V75c0,.22.11.39.22.39s.22-.17.22-.39v-.17l.5-.11v1.11c-.17,0-.33,0-.55.11a.18.18,0,0,0-.17-.17.24.24,0,0,0-.22.22.21.21,0,0,1,.06.11c-.11.06,0,.06.22.22l3.69-.82c1.1,0,1.38-.83,1.1-2.15.17-.44.06-.61-.33-.55l-.83-.12.5-.33c.66-.33.66-.49.11-.49L67,71.64l.94-.16c.28-.06.39-.39,0-.55l-1-.11.78-.17c.49-.38.22-.66-.72-.77.33-.39.27-.66-.11-.66-.17-.39-.66-.66-.5,0l.22,3.64c.11.39,0,.66-.49.83l-2.7.55Zm2.09-1.43a.28.28,0,1,1,0,.55.25.25,0,0,1-.22-.28.25.25,0,0,1,.22-.27ZM67.68,74a.13.13,0,0,1,.11.11c0,.11-.06.17-.11.17s-.12-.06-.12-.17a.13.13,0,0,1,.12-.11Zm-.23-.71c.23-.06.39,0,.45.11s-.11.27-.34.33-.38,0-.44-.17.11-.22.33-.27Zm-2.53,2.37H65V74.56l-.28.11.17,1Zm.61-.17c.11,0,.16,0,.27,0v-1l-.49.11.22,1Zm.66-.22s.11,0,.16-.11v-.88l-.22,0,.06.94Zm.49-.22a.27.27,0,0,0,.17-.06c.38-.44.38-.66-.06-.77h-.11v.83Z"/><path class="cls-3" d="M75.23,23c-4.58-.38-6.78,1.1-8,2.65a7.88,7.88,0,0,0-1.7,4.46c.11.28.6-.33,1.32-1.27l-.44-.16a3.85,3.85,0,0,1,.49-.94c.11-.17.11-.44.39-.61a1,1,0,0,0,.55-.6h-.39c1.27-1.55,3-1.93,5-1.88L74,24.8a1,1,0,0,0,.72-.17c.16-.11.22-.27-.06-.27a13.73,13.73,0,0,0-5.23.22c1.27-.83,3.08-.88,5.67-.77,1,.05,1.11-.72.12-.83Zm-8,29.43c.17.11.22.44.11.83s-.38.6-.55.55-.27-.44-.16-.77.38-.67.6-.61Zm-4,1.6s.16.27.16.55-.11.55-.16.55-.17-.22-.17-.55.06-.55.17-.55Zm.33,1.93a3.72,3.72,0,0,1,1.54-2.59c.77-.55.94-.39.33.38a20.39,20.39,0,0,0-1.32,2.37c-.17.33-.66.72-.55-.16Zm2.31-4.19a3.09,3.09,0,0,0-1.76,1.49c-.28.66-.17.71.33.22a12.16,12.16,0,0,1,1.65-1.33c.22-.16.44-.55-.22-.38Zm-4.74,3.69c-.38.5-.33.66.33.39a10.42,10.42,0,0,1,2.37-3l1.88-1.65c1.43-.33,2.26-1.88,2.53-4.47l-.11-.33a7.88,7.88,0,0,1-2.64,3.86,11.65,11.65,0,0,0-2.59,2.65c-.34.33-.34.71-.61,1.15a14.1,14.1,0,0,0-1.16,1.38Zm-.44-1.16c-.33.61,0,.83.28.33a20.13,20.13,0,0,1,3.47-4.07,10.75,10.75,0,0,0,3.69-4.91c.44-1.32,0-1.71-.38-.88a10.56,10.56,0,0,1-2.87,4.79,14.82,14.82,0,0,0-4.19,4.74Zm-.16-1.82c-.28.5-.33.89-.11,1.16,1-.38.71-2,3.3-3.36.33-.44.22-.61-.33-.44L61,51.58c.82-1.32,1.65-2.37,2.86-2.64A3.48,3.48,0,0,0,66,47.78c.28-.61.17-.77-.27-.5-1.49,1-2.76,1.38-3.92,2.26a6,6,0,0,0-2,3.26l.78-.34Zm-.17-3.19c.44-.94,1.65-1.54,3.36-2.1A6.57,6.57,0,0,0,66.68,45c.88-.55.72-.06.44.55a2.54,2.54,0,0,1-1.1,1A11,11,0,0,1,63.6,48,5.91,5.91,0,0,0,61,49.82c-.49.39-.71.22-.55-.55ZM63,46.13a6,6,0,0,0,2.09-1.82c.78-1.1,1.11-1.16.89,0a3.37,3.37,0,0,1-2.26,2.42c-1.16.44-1.49-.11-.72-.6Zm3.47-2.54.39-2a3.65,3.65,0,0,1,.83-2.1l.6-1.65c.17-.66.44-.61.44.22l-.38,1.05c.33.16.16.49-.06.82,0,.39,0,.83-.44.94-.11,1.49-.28,2.7-.72,3.09-.66.82-.88.71-.66-.39Zm-2.64-.27.88-2.15c.22-.77.61-1.22,1.1-1.27L67,38.74c.28-.33.44.11.28.39l-.88,1.43A6.36,6.36,0,0,1,64.75,44c-.22.22-.6.22-.38-.11l1-2.1-1.33,1.82c-.38.5-.44.11-.27-.27Zm-1.55.88c.5-1.32.67-2,1.16-2.48.61-.61.77-.55.39.16a5.4,5.4,0,0,0-.66,2.7c0,1.11-1.38.89-.89-.38Zm-.11-1.77c.06.45.11.34.33,0l.5-1.37a16.37,16.37,0,0,0,2-1.93c.33.49.94,0,1.87-1.21a3.77,3.77,0,0,0,2-2.54c.28-.94.11-1.1-.49-.5-.89,1.16-1.55,1.6-1.88,2.43-1,.33-1.87,1.49-3.08,2a1.07,1.07,0,0,0-.44,1c-.5.33-.83.88-.89,2.09Zm.11-2.7a.4.4,0,0,1,.45-.16.35.35,0,0,1-.06.49.34.34,0,0,1-.5.17.48.48,0,0,1,.11-.5Zm6.12-9.42a7,7,0,0,1,2.59-2c1-.44,1,.38.28.38-.55,0-1.33.5-2.59,2.1-.33.44-.72.05-.28-.5ZM61.12,41.55c-.17-2,.27-3.14,1.21-3.8,2.53-1.54,3.42-3.8,4.24-3.75a19.68,19.68,0,0,1,3.58-4.3c1.11-.77,1.33-.6.72.61-1.6,2.26-3.19,5-4.63,5.73a2,2,0,0,0-1.54,1.05l1-.5c.5-.05.55.11.22.44-.83.44-2.2,2.59-2.53,1.22-.55,1-1.49.88-1.55,1.93l-.11,1.37c-.22.39-.38.39-.6,0Zm9.81-14.44c.49.06.71.22.33.67a9.1,9.1,0,0,0-3.47,2.75,1.14,1.14,0,0,1-.67,1.27c0,.83-.49,1.21-1.32,1.32l-1.21,1.54c.27.39-.17,1-1.05,1.88-.55.6-.77.44-.66-.55.66-1.82,1.93-4.47,2.54-4.47.33,0,.33-.11.44-.71,0-.44.49-.33.38,0s.06.49.33.16c1.38-2.26,2.87-3.42,4.36-3.86Zm-3.7.56c1-1.16,2.7-1.93,5.9-1.88.66.06.55.72,0,.66a5.28,5.28,0,0,0-1.55.28,7,7,0,0,0-1.82.55,8.53,8.53,0,0,0-3,3c-.33.16-.39,0-.22-.34,1.1-2,2.42-3,3.8-3.14l.06-.11c-.78-.16-1.71.17-3.09,1.44-.17.16-.22,0-.06-.44ZM68.45,26a6.05,6.05,0,0,1,4.18-1c1,.12,1,.72.45.67a7.52,7.52,0,0,0-4.52.55c-.55.27-.44,0-.11-.22Z"/><path class="cls-3" d="M76.11,21.44c-.39-.5-.11-.77.55-.72,1.71.33,3.19.55,4.13,1.32.55.39.11.78-.27.5l-1.16-.61c0,.5-.39.28-1-.27-.44.44-1,.22-1.6-.44l.39,1.1c.05.22-.17.22-.28.05l-.71-.93Zm2.37.88c-.22.16,0,.55.22.72s.49.11.38-.22-.38-.67-.6-.5Z"/><path class="cls-3" d="M82,23.7c-.16-.11-.55-.28,0-.39-.55-.33-.33-.77,0-.83,1.49-.05,2.65-.88,4.36.06l.77.88c.49,1.16.05,1.71-.61.88-.33-.49,0-.93-.88-1.32a5.46,5.46,0,0,1,.77,2.59c1.27,1.21.11,1.49-.22.72L85.7,24c.11,1.1.16,1.93,0,1.93-.39,0-.17-.77-.33-1.71-.11-.39-.23-1.1-.45-1.16a5.66,5.66,0,0,0-2.53,0c1.21-.05,2,0,2.31.33A1.94,1.94,0,0,1,85,25.13c-.28.44-.44.33-.44-.22l-.17-.72c-.05-.38-.49-.44-1.1-.38A1.78,1.78,0,0,1,82,23.7Z"/><path class="cls-3" d="M66.68,64.86a59.23,59.23,0,0,0,6.12,8.38c.28.33.06-.66.28-.27a10.28,10.28,0,0,0,1.59,2.37c.33-.28-.71-1.22-.88-2.32l3.14,3.64c.28-.5-1.54-2.65-3-4.52l.22-.22,3.59,4.68.16,0c-.55-1.55-2.2-3.42-3.31-5.13l.11-.38c.67.82,1.55,2.09,2.26,3.14a18,18,0,0,0,2.26,2.92c1.33.33-3.14-4.35-5.18-8.27l.06-.22c2.42,3.69,4.57,7.06,6.94,8.6.28.16.5-.17.22-.5A75.69,75.69,0,0,1,75,68.94l.11-.22c2.32,2.76,3.53,5.9,7.94,8.54.28.17.44.45.72.22,1-.77-3.81-1.92-7.5-8.15l.06-.44a30.79,30.79,0,0,0,2.86,3.74c1.77,1.93,4.52,4.19,5,3.86s-4-3.41-6.33-7.11l.11-.11A24.36,24.36,0,0,0,86.3,77c.55.27.33.22,1,.22,1.71.11-3.8-2.7-6.66-5.84l.05-.28c.83.72,1.87,1.66,3,2.59a46.32,46.32,0,0,0,4,2.54c1,.55,1.87.88,2.26.71,1-.49-3.8-2.2-5-3.47.72.39,1.44.66,2,.94,2.1,1,3.59,1.76,3.92,1.38s-.89-.89-2.81-1.6c-.22-.22-.06-.28.49-.17,2.21.88,3.47,1.49,3.75,1.33.72-.23-.44-.72-1.76-1.55,1.65.72,3.08,1.38,3.85,1.16.28-.06-.93-.72-2-1.65,1.49.93,5,2.2,1.65-.17l.22-.11c1.27.94,2.87,1.32.94-.22h.28c1.1.88,1.7,1.54.88-.28,1.1,1.6,2.2,2.21.71-.11l1.71,1.33c-.6.27-.55.44,0,.77,1.43.94,1.55.77,1.27,0a3,3,0,0,0-1.38-3.09c-1.1-.71-1,.11.22,2.1a5,5,0,0,1-1.15-1.27,1.41,1.41,0,0,0-1.27-.72,66.94,66.94,0,0,0-7.55.88A6.15,6.15,0,0,1,85,72c-.66-.55-.88-.77-.55-1.37a.76.76,0,0,0-.33-1L82.33,66a11.34,11.34,0,0,0,.72.88c.72,1.16,1.21,2.1,1.38,2-.28-.77-1.21-2.48-1.93-4.41,1.38,2.43,2.59,4.52,2.92,4.25a21.2,21.2,0,0,0-2.37-4.63,7.83,7.83,0,0,1,.66.71c.44.56.83,1,1.05.94-.88-1.82-1.82-3-2.81-3.31-1.54-.55-2.48-.77-2.26.23l-.77-.89-.83-.11c-.27.11.11.55.66,1.49l-.16.11-.94-1.49c-.28-.16-.66-.33-.72,0l.5,1-1.05-1.16c-.49-.28-1-.39-1-.17L76.88,64c-.28-.39-.72-.77-1.1-1.32-.61-.83-1.11-1.44-1.82-1.55s.71,1.1,1.71,3.47L73.3,61.23c-.22-.17-1.16-.33-1.22,0l2.76,4a22.44,22.44,0,0,1-3.25-4,.63.63,0,0,0-.5-.16c-.11-.06-.22,0-.33.11l3.36,4.35A21.07,21.07,0,0,1,72.3,63.6c-.71-1-1.37-1.66-1.92-2.54a.53.53,0,0,0-.72-.05c-.28.38,2.53,3.25,3.75,5a27.69,27.69,0,0,1-4.25-5c-.55-.28-.93-.28-1.1,0s3.42,3.74,4.8,5.89A60.36,60.36,0,0,1,67.68,61c-.23-.28-.89-.28-.89,0,0,.55,3.09,3.36,5.57,6.78-1.82-2-4-4.63-5-5.19-.44-.05,1.1,1.88,4.63,5.9a47.8,47.8,0,0,1-4.85-5.12c-.44.38,1.49,2.81,4.3,5.89l-4.41-4.63c-.61-.38-.72-.33-.39.22Zm18.74-1c-.39-.55.17-.83.61-.17a35.3,35.3,0,0,1,2.31,4.19c.28.66-.11.83-.38.22a27,27,0,0,0-2.54-4.24Zm-1.71-.55c-.27-.44.44-.72,1,0A36.84,36.84,0,0,1,88,68.67c.49,1.1,0,1.37-.5.38a36.13,36.13,0,0,0-3.75-5.78Z"/><path class="cls-3" d="M75.83,26a4,4,0,0,0,1.54,3.09,14.45,14.45,0,0,0-.82-1.6c-.33-.77-.5-1.38-.72-1.49ZM79.25,60.4c-.11-1.6-1-2.76-2.76-4.08.06.39,1.16,1.32,1.82,2.48s.66,1.38.94,1.6Zm-.06-1.65a17,17,0,0,1-.93-1.66c-.55-.93-1.49-1.87-1.55-2.15a5.77,5.77,0,0,1,2.48,3.81ZM79,56.65a11.94,11.94,0,0,1-.71-1.26C77.82,54.67,77.1,54,77,53.73A4,4,0,0,1,79,56.65Zm-.22-2.15a2.47,2.47,0,0,0-1.32-1.93c0,.17.5.61.83,1.11a8.75,8.75,0,0,0,.49.82Zm-.82-30.2a3.92,3.92,0,0,0,.88,3.37,9.59,9.59,0,0,0-.5-1.82,5.42,5.42,0,0,0-.38-1.55ZM68.17,59.79c-.83.06-1-.11-1-.93.39.38.72.55,1,.93Zm-1.1-1.43c.55.55,1.1.88,1.65,1.49a.77.77,0,0,0,.83-.11c-.88-.94-1.71-1.49-2.65-2.43.06.33.11.72.17,1Zm-.22-1.54c1.16,1.16,2,1.87,3.08,3,.34.17.56.17.72,0C69.38,58.2,68.23,57,67,55.39a6.49,6.49,0,0,0-.11,1.43Zm.22-1.77c1.43,1.66,2.81,3.09,4.3,4.91.44.22.77.22.93,0-1.43-1.87-3.25-3.91-4.9-5.95-.11.28-.17.5-.28.72a.52.52,0,0,0-.05.27Zm.38-1.37C69.33,55.83,71,57.76,73,60.12a.77.77,0,0,0,.77.06c-.22-.22-1.54-1.82-1.76-2.09-1.6-2-2.54-3-4.35-5.24a5.14,5.14,0,0,1-.23.83Zm.34-1.16c2,2.2,2.7,3.2,4.84,5.73.23.33,1.38,1.49,1.6,1.76.28.56,1.22.56.77.17s0-.11-.55-.83c-1.76-2.15-4.68-5.67-6.44-7.88-.06.39-.17.72-.22,1.05Zm.27-1.32c.06-.33.11-.61.17-.88,1.65,2.09,4.9,6,6.77,8.32,1,1.21.94,1.15,1.49,1.76,0,.28-.22.17-.6.06A11.8,11.8,0,0,1,75,59.3c-2.32-2.7-4.85-5.84-6.89-8.1ZM68.23,50a8.55,8.55,0,0,0,.16-1.21,44.09,44.09,0,0,0,7.11,8.26c-.22-1.1-3.75-4.13-5.9-7-.44-.77-.82-1.48-1.1-2.09.06-.33.06-.61.11-1a28.31,28.31,0,0,0,7.17,8.71c-.39-1-3.81-3.75-5.63-6.67a20.35,20.35,0,0,1-1.43-2.87v-.49a29.52,29.52,0,0,0,7.17,8.7c-.33-1-3.86-3.85-5.57-6.66a23.92,23.92,0,0,1-1.49-2.93v-.55a35.13,35.13,0,0,0,7.55,9.26c-.33-.94-4.3-4.41-5.95-7.11a20.89,20.89,0,0,1-1.49-3V42.6a27.77,27.77,0,0,0,7.33,9.15c-.33-.94-4.13-4.08-5.67-6.67a17.61,17.61,0,0,1-1.55-3.2,3.56,3.56,0,0,1,.06-.82c1,2.92,4,6.44,7,8.81-.33-.82-3.86-3.69-5.29-6.11a26.87,26.87,0,0,1-1.71-3.42,5,5,0,0,1,.06-.94c.88,2.87,3.64,6.34,6.72,8.77-.22-.83-3.53-3.42-5-5.74a22.17,22.17,0,0,1-1.71-3.69v-.16c.06-.33.06-.72.11-1,.61,2.87,3.25,6.56,6.4,9.09-.22-.71-3.26-3.3-4.52-5.45a37.38,37.38,0,0,1-1.88-3.92c.94-7.93,4.3-12.62,9.21-13.44l.11.05a5.26,5.26,0,0,0,.55,3.2A18.1,18.1,0,0,0,79,24.8V24l.44.11c0,1.11.44,2.15.94,2.26a3.77,3.77,0,0,1-.45-2l.61.17c0,1.16.39,2.42.94,2.48a3.25,3.25,0,0,1-.44-2.26l.11,0a2.55,2.55,0,0,0,.49,1.11c.22-.28.11-.83,0-1.44a2,2,0,0,1,2.09.22c.28.33.17.5-.22.5h-.38l.88.39c.05.11.22.22-.28.27l-.33.28,1.16.11c.38.16.33.27.22.44l-.28.33a6.93,6.93,0,0,1,3.31.88c-.05.44-.55.39-1.49-.11.22.55,1.1.61,1,.94-.11.6-1.43.05-2,.82l1.49.06c.33.22.22.38-.28.38.77.94,1.38,1.22,1.6.56q.33-.75.66,0c.94.55,1.1.6.55.71l-.88.17,1,.16a.28.28,0,0,1,.11.5c-.72.11-.77.22.55.27.55.28.77.56.55.78-1.16,0-1.1.22.28.33.33.16.44.38.38.55-.71.16-.6.33.28.33.11.16.22.27,0,.44q-1.23.33.33.33c.06.39.66.33.89.83.88-.17,1.26.44.49.44l0,.16c1.26.06,1.81.39,1.65,1.16-.11.33-1.82-.66-1.1,2l.27.28c.5.11-.05-1.21.77-1.1.11.05.22.44.06,1.1s-.55.88-1.16.5S93,39.62,93,39.18l0-.82c-.61,0-.72-.33-.77-.94,0-.11-.22-.06-.17-.22-1-.17-1.43.16-1.7.88-.06.28-.28.06-.39-.22,0-.16-.33.06-.55,0s-.11-.39-.28-.34-.11.17-.33.17-.11-.44-.44-.11-.27.22-.33-.11.28-.83-.33-.06c-.22.11-.28.11-.39-.16-.33-.94-.55-1-.66-.17-.16.33-.33.39-.33-.11-.33-1.43-.38-1.43-.27-.05-.06.6-.22.55-.55-.17-.39-1.15-.56.11-.83-.44s-.11-1.6-.77-1.87l.38,1.93c0,.27-.44.33-.49-.11-.22-1.27-1-3.47-.88-2.76l.49,2.65c.06.22-.55.11-.66-.22l-.66-3.31c-.17-.94-.17,1.76.22,2.92,0,.17-.44.17-.39-.05s-.49-3.42-.66-3.26c-.38.39.66,3.53-.16,3-.11-.06-.39-3.2-.5-3.26s0,3-.11,3c-.88-1.1.06-4.08-.55-4.24-.11,0-.39,3.63-.5,3.52C79.91,37,82.17,37.14,82,38l-1.59-.83c.44.83,1.1,1.71,1.54,2.65-.5.16,0,.83.38,1.16-.49-.06-.38.27.56,1.15.22.17.27.33.22.5-1.16-.28-1.27-.28.6,1.21-1.16-.16-1.21-.05.11.83a1.45,1.45,0,0,1,.55.83c.06.22-.16.11-.27.11s-.55-.33-.66-.39c-.33,0-.11.39,1.43,1.54.39.33.55.61.27.72-1.87-1.16-1.76-.88.28.88.5.77.55,1.1.39,1.21-1.66-1.37-2.76-2.26.11.61.49.5.6.83.22.88-2.87-2.15-1.33-.71.6,1.27.11.11,0,.27-.11.22-2.75-2-2.86-1.54.06,1.49.11.27.27.49.16.71s-.27,0-.38,0c-2-1.87-1.82-1.49.44,1.6.33.49.49.93-.06.66-2.48-2.81-3.25-3.42,0,.88.33.55.38.83-.06.66-2.26-3.08-2.31-2.7-.11.61.17.38.17.44,0,.38-2-2.48-2.64-3.08-.11.55.33.67.28.78,0,.45-2.48-3.09-2.54-2.7-.11.49.22.39.33.61-.06.44-2.86-3.25-2.86-3.14-.11.39.06.88.06.82-.49.38-.28-.33-.28-.6-.56-.88-1.76-2.15-2-2,.12.77-.23.22-.5.22-.83,0-1.82-2.37-2-2.37-.55-.11l-1-.17a2.55,2.55,0,0,0-.56-.71c-1.7-1.66-2.31-1.82-.6.33,0,0-.11.11-.06.16l-1.93-.33a.94.94,0,0,1-.71-.38,12.18,12.18,0,0,0-2.7-3.31c.11.5,1.15,1.38,2,2.76.22.88-.77.49-1.1.33-.61-.83-.83-.94-1.71-2C73,55.66,70.38,52.35,68.23,50Zm6.66-23.15a12.92,12.92,0,0,1,.83,1.66c.44.88,1.1,1.71,1.16,2a4.76,4.76,0,0,1-2-3.64Zm-.82.89A20.56,20.56,0,0,1,75,29.7,20.06,20.06,0,0,1,76.38,32a6,6,0,0,1-2.31-4.24Zm-.77,1a19.18,19.18,0,0,1,1,2.15C75,32,76,33.18,76.05,33.51a6.57,6.57,0,0,1-2.75-4.74Zm-.67,1a7.8,7.8,0,0,0,3.15,5.29c-.06-.39-1.33-1.65-2-2.92s-.88-2.1-1.16-2.37Zm-.6,1a8.84,8.84,0,0,0,3.58,5.84c-.11-.44-1.54-1.88-2.31-3.25s-1-2.32-1.27-2.59Zm-.55,1c.16,2,1.65,4.52,4,6.34-.11-.49-1.77-2-2.59-3.53s-1-2.48-1.38-2.81Zm-.55,1c.22,2.26,1.93,4.91,4.41,6.89-.11-.55-1.93-2.21-2.93-3.86s-1.1-2.64-1.48-3ZM70.49,34c.22,2.42,2.09,5.29,4.79,7.44-.17-.61-2.15-2.37-3.2-4.14s-1.21-2.86-1.59-3.3Zm-.39,1.1c.22,2.59,2.26,5.68,5.18,8-.22-.66-2.37-2.59-3.53-4.52s-1.26-3-1.65-3.47Zm-.44,1.05c.38,2.75,2.7,6.28,5.79,8.76-.22-.72-2.76-3-4-5s-1.38-3.19-1.82-3.74Zm7.27-10.86c.17.06.39.66.61,1.27a12.16,12.16,0,0,1,.55,1.32,3,3,0,0,1-1.16-2.59ZM91.32,39.79c-.61-.61-1,.11-.17.88s1.49.44,1.27.22l-1.1-1.1ZM86.85,33c-.11,0,.06.66.11,1a1.19,1.19,0,0,0,.33.82c.22.28.33.34.28.22a8,8,0,0,1-.5-1.65.38.38,0,0,0-.22-.38Zm-.77-.83c-.11,0,.06.77.06,1.16a1.77,1.77,0,0,0,.33,1c.22.27.33.38.27.27a7.61,7.61,0,0,1-.44-2,.68.68,0,0,0-.22-.44Zm-.82-.83c-.12-.05,0,.83,0,1.27a2,2,0,0,0,.33,1.21c.22.33.33.44.28.28a12.27,12.27,0,0,1-.44-2.26c0-.33-.06-.44-.22-.5Zm-.78-.82c-.11-.11,0,.93,0,1.43a2.56,2.56,0,0,0,.28,1.38q.4.57.33.33A16.84,16.84,0,0,1,84.7,31c0-.39-.11-.5-.22-.55Zm-.77-.89a10.94,10.94,0,0,0,0,1.66,2.74,2.74,0,0,0,.27,1.49c.22.49.39.6.33.44a15.71,15.71,0,0,1-.33-2.92.85.85,0,0,0-.22-.67Zm-.82-.82a13.12,13.12,0,0,0-.06,1.82,2.93,2.93,0,0,0,.28,1.65c.22.55.33.66.33.5a17.3,17.3,0,0,1-.33-3.26c0-.44-.06-.6-.22-.71Zm-.72.05a11.11,11.11,0,0,0-.11,1.44,2.31,2.31,0,0,0,.22,1.37c.16.44.27.55.27.39a16,16,0,0,1-.22-2.59c.06-.39,0-.5-.16-.61Zm-.61,0c-.11-.05-.11.77-.16,1.16A1.71,1.71,0,0,0,81.51,31c.16.38.22.44.22.33a8.41,8.41,0,0,1-.06-2,.58.58,0,0,0-.11-.5Z"/><path class="cls-4" d="M24.74,9c1.66,2,3.2,4,5,6.29a.52.52,0,0,1-.6.6c-1.82-2.59-3.2-4.68-4.58-6.67-.27-.38.06-.44.22-.22Zm8.33,14.17c.16.44-.17.66-.5.22a2.06,2.06,0,0,1,.22-2.81,1.87,1.87,0,0,1,2.81-.28c.55.44.39.5-.27.5-1.88,0-2.59.93-2.26,2.37ZM35,22.26c-.77-.27-1,.06-.82.89,11,15.54,27.72,38.24,47.39,65l-.11.38,1.66.94-.56-2.21-.33.22C67.07,66.35,49.49,41.44,35,22.26Z"/><path class="cls-5" d="M61.72,26.34C61.72,26,63.16,25,65,23.7a3.62,3.62,0,0,1,2.31-.88,2.72,2.72,0,0,0,1,.05c.44.28.27.5-.22.61a.6.6,0,0,0-.67-.11c-.49.11-.55.44-.88.55l-.22-.33c-.66.44-1.1,1.65-1.6,2.26l-.11-.61c-.33.06-.55.77-1,1.16,0-.44-.06-.66-.22-.66-.83.55-1.44.82-1.66.6ZM39.84,55.22c.5,0,.94.17.94.33s-.44.39-.94.39-1-.17-1-.39.44-.33,1-.33Zm3.75-.77c.33-.5.72-.72.83-.61s-.06.66-.33,1.1-.72.78-.83.61.06-.61.33-1.1Zm-1.21.66c.22-.39.5-.61.61-.5s0,.5-.22.89-.56.6-.67.49,0-.49.28-.88Zm-1.1.22c.22-.33.44-.5.49-.44s0,.44-.16.77-.44.44-.55.39a.86.86,0,0,1,.22-.72ZM22.93,51.42l-.22.6c.27.06.49-.33.77-.49l-.22,1c.33,0,1.1-.77,1.65-1.16l-.39,1c.5,0,.83-.71,1.22-1.1l-.22,1c.6-.06,1-.83,1.48-1.27l-.11,1c.44-.05.78-.66,1.22-1l.22.71c.38.06.6-.49.93-.71l.17.66.83-.83.16.72.94-.33.27.38.77-.38,0,.82,1-.44.11.55.77-.44v.72l.88-.22.06.66,1.32-.55-.44,1,1.15-.72-.16.78,1.27-.55L37.64,54c.83.06,1.1-.55,1.65-.82l-.38,1a4.25,4.25,0,0,0,2.26-1.71c.16.28,0,.72-.55,1.66a3.21,3.21,0,0,0,1.65-1.66L42,53.62a2.35,2.35,0,0,0,1.6-1.27l-.05,1.11a3,3,0,0,0,1-1.33c.55.22,1.16-.11,1.38-1s.11-1.1-.61-.82C42.93,52,39.79,52.41,35.16,51A39.52,39.52,0,0,0,26,50c-1.38,0-2.53.17-3.08,1.44Zm7-11.85a3.42,3.42,0,0,1,1.22-1l.11.5,1.32-.44.11.44,1.43-.77c-.82,1-1,1.48-.71,1.48s1.26-1.21,1.59-.88c-.71,1.1-.05.77,1.16-.22.33.11-.44.88-.33,1s.55-.22,1.43-.82c.22-.17.72-.72.83-.44s-.27.49-.44.71c-.88,1-.66.88.88-.11.22-.11.55-.38.77-.27-1,1.37-.6,1.1.94.16.22-.11.5-.49.77-.22-1.93,1.71-1.6,1.93.88.72-1.15,1.32-.88,1.38.94.22.17-.06.39,0,.61-.11-.83.83-.94,1.43-.55,1.21a3.49,3.49,0,0,1,1.76-.49c-.77.77-.72,1.1.27.93.34.11,0,.5-1,1.16-.16.27-.33,0-.49-.66-.11.38-.28.38-.44.16l-.22,1.44-.34-.06v-.83c-.16-.22-.33-.22-.49,0l-.28,1.11-.49-.28a2.45,2.45,0,0,1-.77,1.05c-.34-.44-.56-.33-.67,0-.22.06-.33-.11-.55,0-.16.49-.33.6-.6.27a6.53,6.53,0,0,0-1.27,1l-.22-.56c-.39.56-.72.89-.94.78l-.38-.39-.61,1-1,.28c0,.27.38.27,1,.16a28.47,28.47,0,0,0,3.69-.82,31.62,31.62,0,0,0,3.63-1c1.05-.5,2.26-1.38,3.48-2,.27.22,0,.77-2.26,2.59l-1.1-.33.6.82a.79.79,0,0,1-.77.33l-1-.49.33,1c-.72,0-1-.88-1.71-.49l.28.82-1.49-.44.27,1-1.26-.56-.28.56c-.39,0-.61.11-.66.27,2.92.5,6.12-.55,9.42-2.15.17-.05.22.06.22.33a6,6,0,0,1-2.7,3.53L44.36,48c-1,.44-2.09,2.59-2.92,2.86l.88-2.31-2.59,2.15c-.22-.28.11-.89.67-1.66-.78,0-2.1,1.82-2.32,1.71-.55-.27.44-.83.66-1.21-.71-.06-1.21.6-1.82.94-.05-.34.33-.72,1-1.33l-2.15,1c0-.38.82-.71,1-1.26a5.47,5.47,0,0,1-2.1,1l.67-1-1.88,1,1.16-1.21-2,.93.55-1-1.44.93.61-1.15a3.71,3.71,0,0,1-1.76,1c.38-.5.66-.88.6-1.16a3.89,3.89,0,0,1-1.6.94l.28-.94a4.66,4.66,0,0,1-1.82,1.16l.66-1.1c.11-.17.06-.39-.16-.22l-1.49,1.21c.33-.61.49-1,.27-1.16l-1,.55.11-.6-1.21,1.32c-.17-.06,0-.39.22-1l-1.27.82a5.07,5.07,0,0,1,3.25-2.64,23,23,0,0,1,4.24-.77,15.08,15.08,0,0,0,4.69-1.16,8.53,8.53,0,0,0,2.42-1.32c.44-.33.28-.44-.22-.39l-2,.11v-.88l-.77,1.05-.17-1.05-.66,1.82-.28-2.1L34.17,44l-.28-2.2-.82,2.53-.22-2.64-.5,2.7-.5-2.76-.33,2.76L31,41.83l-.22,2.48L30,41.77,30,44.42l-.83-2.54L29,44.14l-.55-2.2-.22,2-.44-1.82-.28,2c-.83-1.55-1.16-2.81-.61-3.53a3.19,3.19,0,0,1,3-1Zm6.29-6c.16,0,.33.22.44.61s.11.71.05.71-.33-.22-.44-.6a1.09,1.09,0,0,1,0-.72Zm-5.62-.66c.82-1.27,1.48-1.65,1.92-.66.56-1.76,1.16-1.93,1.93-.39,1.05,0,1.27,1.6,1.11,4l-1-2.64v1.7c-.66-2.92-4.9-1.21-4-2Zm18.29-9.59a8.86,8.86,0,0,1,3.58,1.21c.06.17.11.28-.11.17a2,2,0,0,0-1.15-.5c.11.5,0,.72-.17.66-.44-.77-.82-.88-1.16-.71-.11.05-.16.11-.27.05-.33-.71-.5-.71-.66-.44-.33-.27-.33-.44-.06-.44Zm-6.22.33c-.28.17-.28.28-.06.33.39-.33.77-.38,1.27.11,0-.71.27-.66.88.22-.22-.88,0-1.1.94.22,0-.71.05-.82.66.39.16.22.33.22.38.11-.33-1.27-.16-1.21.55.11.22.28.33.28.33.11,0-.88.34-.72,1.16.5.22.27.33.38.39.11-.17-.72.16-.66.88.22.55-.06,1.32.38,2.31,1.26.11.17.22.22.34.17-.56-1,.11-.61,1,0,.55-.28.6-.44.27-.55a17.29,17.29,0,0,1-4.52-2.21c-1.26-1-1.82-.71-3.3-1.65a3.22,3.22,0,0,0-3.47.55ZM40,25.41c-.66.22-.66.49-.05.6a1.46,1.46,0,0,0,.72,0c.38-.05.55,0,.71.33.28.55.61.77.88.61s-1-1.05-.44-1.05h.33c.94.88,1.82,1.38,1.77,1.21l-.39-1c-.11-.33.39-.16.61.06l1.27,1.1c.16.22,0-.17-.22-.88-.12-.22.22-.22.44,0,.77.77,1.7,2.09,1.7,1.6v-.5c0-.22.28-.22.45,0,.44.55,1,1.05,1,.83l-.11-.44c-.06-.28.16-.28.49,0L50.43,29c.27.22.49.11.38-.06l-.22-.33c-.16-.27-.05-.33.28-.11l1.15.83c.22.16.22-.06-.11-.55h.66c.12.38.39.49,1,.77.17.11.22-.11.55-.22l1.6-.5c.5-.16.44-.49,0-.38-2.31.6-4.74-.55-7.33-2-3.42-1.82-6.17-1.82-8.49-1Zm22.71,1.26c.11.11,0,.28-.17.5a.48.48,0,0,1-.49.16.48.48,0,0,1,.16-.49c.22-.17.39-.22.5-.17Zm1.76.44c-.38-.27-.55.39.11.17l.94-.83c.44-.77.17.22.44.17a1.86,1.86,0,0,0,.72-1.49l.77-.39c.44-.38.33-.55-.28-.49a10.27,10.27,0,0,0-2,2l-.66.88Z"/></g></g></svg>