<svg xmlns="http://www.w3.org/2000/svg" viewBox="0 0 206.89 206.89"><defs><style>.cls-1{fill:#002546;stroke:#0078c1;stroke-miterlimit:10;stroke-width:8px;}.cls-2{fill:#fff;}</style></defs><g id="Слой_2" data-name="Слой 2"><g id="Слой_1-2" data-name="Слой 1"><rect class="cls-1" x="4" y="4" width="198.89" height="198.89" rx="34.02"/><g id="Out_line" data-name="Out line"><path class="cls-2" d="M184.42,105.7l-4.85-4.85a29.68,29.68,0,0,0-14.64-8,36.67,36.67,0,0,0-2.25-4.58,17.52,17.52,0,0,0-3.69-9,17.38,17.38,0,0,0-23.83-22.17,29.85,29.85,0,0,0-6.47-20.46l-6.23-7.78a2.48,2.48,0,0,0-3.49-.39,3.59,3.59,0,0,0-.39.39l-6.22,7.78a29.74,29.74,0,0,0-4.85,8.72,37.42,37.42,0,0,0-5.7.2,29.63,29.63,0,0,0-12.46-2.72H83.24a2.48,2.48,0,0,0-2.48,2.49v6.85c0,.91,0,1.82.12,2.72a38,38,0,0,0-11.6,19.6l.15,0a17.36,17.36,0,0,0-2.65,16.2l-8.05,41.62A2.47,2.47,0,0,0,56,134.19l-2.15,8.62-6.16,2.05A2.48,2.48,0,0,0,46.09,148a2.4,2.4,0,0,0,.6,1l.87.88L43.33,152A13.24,13.24,0,1,0,61.1,169.73l2.11-4.23.87.88a2.49,2.49,0,0,0,4.12-1l2-6.16,8.62-2.16a2.48,2.48,0,0,0,1.86-2.76l49.64-9.6a37.26,37.26,0,0,0,14.39-2.95v0a29.71,29.71,0,0,0,11.92,4l9.9,1.1a2.48,2.48,0,0,0,2.74-2.19,1.69,1.69,0,0,0,0-.55l-1.09-9.9A29.84,29.84,0,0,0,164,121.85l.32,0a29.66,29.66,0,0,0,15.81-8.27l4.32-4.32A2.48,2.48,0,0,0,184.42,105.7ZM123.07,70.38a17.38,17.38,0,0,0,7.2,28.83,14.91,14.91,0,0,1-4.77.79c-.37,0-.74,0-1.11,0a17.29,17.29,0,0,0-7-2.33,16,16,0,0,1-1.75-1.32,17.3,17.3,0,0,0-2-20.27A15,15,0,0,1,123.07,70.38ZM128,129.82a7.53,7.53,0,0,1-2.49-.42A7.45,7.45,0,0,0,128,116.8a9.82,9.82,0,0,0-.29-1.88H128a7.46,7.46,0,1,1,0,14.91ZM78.27,95c0-.29,0-.57,0-.86a9.92,9.92,0,0,0,5.93,3.23,12.42,12.42,0,0,0,14.36,7.22A12.43,12.43,0,0,1,78.27,95Zm17.4-10a7.46,7.46,0,0,1,0,14.92,7.54,7.54,0,0,1-2.49-.43,7.45,7.45,0,0,0,4.55-9.5A7.53,7.53,0,0,0,95.65,87a11,11,0,0,0-.29-1.88Zm-5,5a2.49,2.49,0,1,1-2.49,2.48A2.48,2.48,0,0,1,90.7,90.06Zm-7.43,1.83a5,5,0,1,1,4.9-8.64A4.91,4.91,0,0,1,90,85.11,7.48,7.48,0,0,0,83.27,91.89Zm25,23.74a17.37,17.37,0,0,0-2.5,6.93,12.43,12.43,0,0,1,19.58-15.31A12.77,12.77,0,0,1,127,110a13.26,13.26,0,0,0-2,.32,9.93,9.93,0,0,0-16.73,5.33ZM123,124.85a2.49,2.49,0,1,1,2.49-2.48A2.49,2.49,0,0,1,123,124.85Zm-5-12.42a5,5,0,0,1,4.32,2.51,7.48,7.48,0,0,0-6.78,6.77,5,5,0,0,1,2.46-9.28ZM135.44,95a12.42,12.42,0,0,1-9.59-20.32,12.42,12.42,0,0,0,7.21,14.36A10,10,0,0,0,136.29,95C136,95,135.72,95,135.44,95Zm2.48-10a2.49,2.49,0,1,1,2.49-2.48A2.48,2.48,0,0,1,137.92,85.08Zm5,7.46A5,5,0,0,1,138.58,90a7.46,7.46,0,0,0,6.77-6.77,5,5,0,0,1-2.46,9.29Zm2.48-14.6a9.09,9.09,0,0,0-1.88-.29,7.45,7.45,0,0,0-12.6,2.46,7.46,7.46,0,0,1,14.06-5,7.54,7.54,0,0,1,.43,2.49C145.38,77.73,145.38,77.84,145.37,77.94Zm-32.3,9.63a12.54,12.54,0,0,1-5.17,10.08,17.78,17.78,0,0,0,.2-2.62c0-.45,0-.9-.06-1.34a10.93,10.93,0,0,0,.06-1.15,12.45,12.45,0,0,0-8-11.59,17,17,0,0,0-2.41-5.46,12.43,12.43,0,0,1,15.34,12.08ZM94.65,80.16a13,13,0,0,0-2,.31A9.93,9.93,0,0,0,76,85.8a17.12,17.12,0,0,0-2.5,6.94A12.43,12.43,0,1,1,93,77.43a12.3,12.3,0,0,1,1.62,2.73Zm-4,32.27a17.32,17.32,0,0,0,8-2,17.35,17.35,0,0,0,1.83,13.3l-11.4-11.4C89.67,112.4,90.18,112.43,90.7,112.43Zm12.8,21.28a37.51,37.51,0,0,0,13.25,8.59L77.08,150l-9-9,21.34-21.34ZM123,137.28a12.45,12.45,0,0,1-12.43-12.43c0-.28,0-.57,0-.85a10,10,0,0,0,5.93,3.23,12.41,12.41,0,0,0,14.36,7.21A12.36,12.36,0,0,1,123,137.28Zm17.34-13.77a10.74,10.74,0,0,0,.06-1.14,12.45,12.45,0,0,0-7.95-11.59,17.05,17.05,0,0,0-2.42-5.46,12.42,12.42,0,0,1,10.17,22.15,17.68,17.68,0,0,0,.2-2.62C140.41,124.41,140.39,124,140.35,123.51Zm5-21a12.46,12.46,0,0,1-7.65-2.63,17.37,17.37,0,0,0,6.93-2.5A9.93,9.93,0,0,0,150,80.61a12.92,12.92,0,0,0,.32-2,12.42,12.42,0,0,1-4.93,23.83Zm9.94-29.82a12.31,12.31,0,0,1-.35,2.9,17.25,17.25,0,0,0-5.46-2.41,12.43,12.43,0,0,0-11.59-8c-.38,0-.77,0-1.14,0s-.9,0-1.34,0a17.68,17.68,0,0,0-2.62.2,12.42,12.42,0,0,1,22.5,7.26ZM116.24,39.73l4.28-5.35,4.28,5.35a24.89,24.89,0,0,1,4.6,22,17.66,17.66,0,0,0-2.26,3.57c-.54,0-1.09-.07-1.64-.07a18.71,18.71,0,0,0-2.49.16V47.8h-5V66.66a20.1,20.1,0,0,0-3.44,1.8A24.78,24.78,0,0,1,116.24,39.73ZM85.73,47.8h3.62a24.76,24.76,0,0,1,16.48,6.25,29.77,29.77,0,0,0,2.24,12.58L97,55.51,93.43,59l11.76,11.76a17.29,17.29,0,0,0-10.55.46,25,25,0,0,1-8.91-19.07ZM82,60.74A29.65,29.65,0,0,0,85.2,67.8a17.26,17.26,0,0,0-8.81,1.29A33,33,0,0,1,82,60.74ZM71.39,97.83a37.38,37.38,0,0,0,8,11.73l6.59,6.59L64.6,137.49,63.09,136l7.53-38.92C70.87,97.32,71.13,97.58,71.39,97.83ZM45.56,156.42l5.71-2.86.08.09-9.18,14.42A8.27,8.27,0,0,1,45,156.73,6.45,6.45,0,0,1,45.56,156.42Zm11.09,11.09A8.27,8.27,0,0,1,46,171.39l9-14.14,4.55,4.55Zm11.07-12.76A2.49,2.49,0,0,0,66,156.38L64.76,160,53,148.31l3.65-1.21a2.5,2.5,0,0,0,1.62-1.76l1.42-5.68,13.68,13.67Zm64.34-15a17.87,17.87,0,0,0,5-4.56,28.87,28.87,0,0,0,3,3.09A32.53,32.53,0,0,1,132.06,139.71Zm25.16,1.08a24.84,24.84,0,0,1-15.83-8.19,17.52,17.52,0,0,0,5.43-4.74l6,6,3.52-3.52-7-7a17.1,17.1,0,0,0,.69-2.42,29.88,29.88,0,0,0,8.23,1.39,24.66,24.66,0,0,1,5.05,12.47l.76,6.81ZM176.58,110a25,25,0,0,1-26.31,5.69,17.6,17.6,0,0,0-1.6-5.77h16.59v-5H154.33a17.56,17.56,0,0,0,6.89-7.73,24.85,24.85,0,0,1,14.84,7.12l3.09,3.09Z"/></g></g></g></svg>