<svg xmlns="http://www.w3.org/2000/svg" viewBox="0 0 400 104.43"><defs><style>.cls-1{fill:#ef7d17;}</style></defs><g id="Слой_2" data-name="Слой 2"><g id="Слой_1-2" data-name="Слой 1"><path class="cls-1" d="M94.6,52.66H66.73v-3.2H93.09l10.5-12.76-11.3-9.3H60.6V5.61Q58.11,3,56,3.22A5.23,5.23,0,0,0,52.6,5.46V30.71H49.4V4.55l.22-.37C49.71,4,51.83.42,55.61,0c2.63-.26,5.24,1,7.78,3.88l.41.46V24.2H93.44l14.65,12.07Z"/><rect class="cls-1" x="22.38" y="15.24" width="18.84" height="3.2"/><rect class="cls-1" x="25.58" y="22.71" width="15.64" height="3.2"/><rect class="cls-1" x="71.27" y="32.49" width="17.95" height="3.2"/><rect class="cls-1" x="71.27" y="39.6" width="12.27" height="3.2"/><rect class="cls-1" x="60.73" y="30.53" width="3.2" height="71.64"/><polygon class="cls-1" points="44.34 73.24 24.9 73.24 9.98 57.63 24.2 43.11 44.34 43.11 44.34 46.31 25.54 46.31 14.43 57.65 26.27 70.04 44.34 70.04 44.34 73.24"/><rect class="cls-1" x="5.01" y="101.24" width="26.8" height="3.2"/><rect class="cls-1" x="36.07" y="101.24" width="34" height="3.2"/><rect class="cls-1" x="77.4" y="101.24" width="17.47" height="3.2"/><rect class="cls-1" x="100.73" y="101.24" width="7.07" height="3.2"/><rect class="cls-1" x="28.52" y="53.24" width="14.62" height="3.2"/><rect class="cls-1" x="32.47" y="59.91" width="10.67" height="3.2"/><polygon class="cls-1" points="52.6 102.17 49.4 102.17 49.4 38 17.74 38 0 20.25 16.83 3.42 43.14 3.42 43.14 6.62 18.16 6.62 4.53 20.25 19.07 34.8 52.6 34.8 52.6 102.17"/><path class="cls-1" d="M163.07,11.64h-16.8V58.85H135.9V11.64H119.1V3.13h44Z"/><path class="cls-1" d="M213.9,58.85h-9.37a4.1,4.1,0,0,1-3.85-2.08L189,38.93a4.18,4.18,0,0,0-1.45-1.43,5.07,5.07,0,0,0-2.33-.42h-4.43V58.85H170.39V3.13h17a35.56,35.56,0,0,1,9.73,1.17,18.71,18.71,0,0,1,6.66,3.3,12.78,12.78,0,0,1,3.84,5.07,16.68,16.68,0,0,1,1.23,6.49,16.61,16.61,0,0,1-.83,5.32A15.29,15.29,0,0,1,205.63,29a16,16,0,0,1-3.85,3.59A19.28,19.28,0,0,1,196.56,35a10.25,10.25,0,0,1,1.85,1.36A9.91,9.91,0,0,1,200,38.27ZM187.23,29.64a16.07,16.07,0,0,0,5.11-.73,9.92,9.92,0,0,0,3.58-2,8.1,8.1,0,0,0,2.1-3.07,10.64,10.64,0,0,0,.7-3.89,7.88,7.88,0,0,0-2.8-6.51c-1.86-1.52-4.71-2.28-8.53-2.28h-6.63v18.5Z"/><path class="cls-1" d="M267.69,58.85h-8a3.42,3.42,0,0,1-2.2-.67,4.13,4.13,0,0,1-1.27-1.68l-4.16-11.37H229L224.8,56.5a3.66,3.66,0,0,1-1.19,1.62,3.34,3.34,0,0,1-2.2.73h-8.09L235.24,3.13H245.8Zm-18.3-21L242.6,19.28c-.33-.83-.68-1.8-1-2.93s-.72-2.35-1.09-3.66c-.33,1.31-.68,2.53-1,3.68s-.71,2.13-1,3l-6.74,18.46Z"/><path class="cls-1" d="M316.79,3.13,294.28,58.85h-9.36L262.41,3.13h8.33a3.52,3.52,0,0,1,2.19.65,4,4,0,0,1,1.28,1.7l13.14,34c.43,1.1.85,2.32,1.25,3.64s.77,2.7,1.14,4.14c.3-1.44.64-2.82,1-4.14a33.84,33.84,0,0,1,1.19-3.64L305,5.48a3.75,3.75,0,0,1,1.22-1.62,3.38,3.38,0,0,1,2.21-.73Z"/><path class="cls-1" d="M333,11.37V26.83h19.5v8H333V50.57h24.74v8.28H322.56V3.13h35.15v8.24Z"/><path class="cls-1" d="M399.53,50.3v8.55H366.88V3.13h10.37V50.3Z"/><path class="cls-1" d="M301.86,83.5a9.08,9.08,0,0,1,3.76.7,6.81,6.81,0,0,1,2.55,1.89,7.88,7.88,0,0,1,1.46,2.82,12.64,12.64,0,0,1,.46,3.49,14.46,14.46,0,0,1-.55,4.14,9.3,9.3,0,0,1-1.61,3.19,7.09,7.09,0,0,1-2.59,2,8.09,8.09,0,0,1-3.49.72H294V70.11h15.26v4.66H298.19V83.5Zm0,14.29a4.65,4.65,0,0,0,1.95-.36,3.38,3.38,0,0,0,1.27-1,4.1,4.1,0,0,0,.68-1.53A8,8,0,0,0,306,93a8.71,8.71,0,0,0-.2-2,3.78,3.78,0,0,0-.68-1.52,3.19,3.19,0,0,0-1.26-.95,5,5,0,0,0-1.95-.33h-3.67v9.58Z"/><path class="cls-1" d="M341.79,102.5h-3.23a1.14,1.14,0,0,1-.89-.39,2.47,2.47,0,0,1-.51-1l-1.68-6.61h-9.32l-1.68,6.61a2.16,2.16,0,0,1-.48.94,1.12,1.12,0,0,1-.9.43h-3.25l8.83-32.39H333Zm-7.38-12.23-2.74-10.78c-.14-.48-.28-1-.42-1.7s-.29-1.37-.44-2.13c-.13.76-.27,1.48-.42,2.14s-.28,1.24-.42,1.74l-2.72,10.73Z"/><path class="cls-1" d="M352.12,73.15a9.46,9.46,0,0,1,3.1-2.51,8.92,8.92,0,0,1,4-.89,8.43,8.43,0,0,1,3.29.62,7.12,7.12,0,0,1,2.5,1.76,7.84,7.84,0,0,1,1.58,2.69,10.14,10.14,0,0,1,.55,3.42,11.29,11.29,0,0,1-.72,4.13,6.85,6.85,0,0,1-2.19,3,7.8,7.8,0,0,1,1.43,1.27,7.51,7.51,0,0,1,1.1,1.61,8.7,8.7,0,0,1,1,4.11,14.61,14.61,0,0,1-.56,4.1,10.23,10.23,0,0,1-1.65,3.32,7.81,7.81,0,0,1-2.66,2.22,7.57,7.57,0,0,1-3.59.82,8.93,8.93,0,0,1-2.31-.3,9.76,9.76,0,0,1-2.15-.86,10.63,10.63,0,0,1-1.93-1.35,10.14,10.14,0,0,1-1.6-1.74l1.22-2.89a2,2,0,0,1,.42-.53.79.79,0,0,1,.53-.21,1.35,1.35,0,0,1,.89.46q.48.45,1.17,1a8.65,8.65,0,0,0,1.62,1,5.22,5.22,0,0,0,2.27.45,4.1,4.1,0,0,0,3.25-1.3,5.89,5.89,0,0,0,1.15-4,6,6,0,0,0-.31-2,4.12,4.12,0,0,0-.89-1.48,3.7,3.7,0,0,0-1.39-.93,4.82,4.82,0,0,0-1.81-.33h-3.18V83.05h2.89a4.07,4.07,0,0,0,3-1.11,4.37,4.37,0,0,0,1.1-3.21,4.18,4.18,0,0,0-1-3,3.88,3.88,0,0,0-3-1.11,4.78,4.78,0,0,0-1.95.36,8.88,8.88,0,0,0-1.42.77c-.4.28-.73.54-1,.78a1.18,1.18,0,0,1-.74.36.72.72,0,0,1-.53-.23,2.15,2.15,0,0,1-.4-.67Z"/><path class="cls-1" d="M400,102.5h-3.24a1.12,1.12,0,0,1-.88-.39,2.62,2.62,0,0,1-.52-1l-1.68-6.61h-9.31l-1.68,6.61a2.4,2.4,0,0,1-.48.94,1.12,1.12,0,0,1-.91.43h-3.25l8.84-32.39h4.28Zm-7.39-12.23-2.74-10.78c-.13-.48-.27-1-.42-1.7s-.29-1.37-.43-2.13c-.14.76-.28,1.48-.42,2.14s-.29,1.24-.42,1.74l-2.72,10.73Z"/></g></g></svg>