<svg xmlns="http://www.w3.org/2000/svg" viewBox="0 0 150.69 175.08"><defs><style>.cls-1{fill:#95c11f;}.cls-2{fill:#237131;}.cls-3{fill:#dedc00;}.cls-4{fill:#ffce32;}.cls-5{fill:#e73439;}.cls-6{fill:#e30613;}.cls-7{fill:#4a4a49;}.cls-8{fill:#13110c;}.cls-9{fill:#06050b;}.cls-10{fill:#1d1d1b;}</style></defs><g id="Слой_2" data-name="Слой 2"><g id="Слой_1-2" data-name="Слой 1"><path class="cls-1" d="M29.34,157.14a4,4,0,0,1-.56,2.33A5.66,5.66,0,0,1,27,160.94a11.33,11.33,0,0,1-1.78.78,17,17,0,0,1-2.33.66,23.46,23.46,0,0,1-2.66.43,23.47,23.47,0,0,1-2.76.16,23,23,0,0,1-6.84-1,15.64,15.64,0,0,1-5.55-3,14.24,14.24,0,0,1-3.72-5,18.27,18.27,0,0,1,.13-14.19,15,15,0,0,1,4-5.14,16.61,16.61,0,0,1,5.62-3.07,21.39,21.39,0,0,1,6.51-1,15.93,15.93,0,0,1,7.63,1.54c1.87,1,2.81,2.38,2.81,4a3.92,3.92,0,0,1-.66,2.28A5.36,5.36,0,0,1,25.84,140a21.52,21.52,0,0,0-3.16-1.49,11.84,11.84,0,0,0-4.29-.74,9.31,9.31,0,0,0-6.76,2.43,9,9,0,0,0-2.51,6.74,10.86,10.86,0,0,0,.68,4,7.78,7.78,0,0,0,1.85,2.79,7.63,7.63,0,0,0,2.69,1.62,9.83,9.83,0,0,0,3.24.53,9,9,0,0,0,2-.2,5.22,5.22,0,0,0,1.32-.46v-4.76H15.46a7.69,7.69,0,0,1-.59-1.47,6.75,6.75,0,0,1-.28-1.92,3.54,3.54,0,0,1,.84-2.64,3,3,0,0,1,2.15-.81h8.57a2.92,2.92,0,0,1,3.19,3.19v10.34Z"/><path class="cls-1" d="M47.17,145.48a4.39,4.39,0,0,0,3-1,3.68,3.68,0,0,0,1.12-2.92,3.49,3.49,0,0,0-1.24-2.91,6.3,6.3,0,0,0-3.93-1c-.51,0-.91,0-1.22,0l-1,.15v7.6ZM44,152.22V162a13.6,13.6,0,0,1-1.75.31,18.78,18.78,0,0,1-2.35.15,10.35,10.35,0,0,1-2.05-.18,3.42,3.42,0,0,1-1.47-.63,2.84,2.84,0,0,1-.89-1.27,6.26,6.26,0,0,1-.3-2.13V134.34a2.23,2.23,0,0,1,.58-1.65,4.22,4.22,0,0,1,1.59-.94,19.09,19.09,0,0,1,4-.88,39.27,39.27,0,0,1,4.86-.28q7,0,10.54,2.94a9.77,9.77,0,0,1,3.55,7.95,8.86,8.86,0,0,1-1.62,5.37,11.76,11.76,0,0,1-3.85,3.45C56,152,57.24,153.51,58.42,155a29.75,29.75,0,0,1,2.79,3.95,4.72,4.72,0,0,1-1.85,2.71,5.12,5.12,0,0,1-3,.94,6.46,6.46,0,0,1-1.93-.25A4.85,4.85,0,0,1,53,161.6a5.89,5.89,0,0,1-1.11-1.12,14.11,14.11,0,0,1-1-1.42l-4.25-6.84Z"/><path class="cls-1" d="M66,136.16a4.38,4.38,0,0,1,4.72-4.71H87.46a6.82,6.82,0,0,1,.91,3.39,3.7,3.7,0,0,1-.84,2.74,3,3,0,0,1-2.2.81H74.64v4.71H86a6,6,0,0,1,.63,1.45,6.15,6.15,0,0,1,.28,1.9,3.77,3.77,0,0,1-.81,2.73A2.91,2.91,0,0,1,84,150H74.64v5.32h13a5.92,5.92,0,0,1,.63,1.48,6.32,6.32,0,0,1,.28,1.92,3.83,3.83,0,0,1-.83,2.76,3,3,0,0,1-2.21.84H70.74A4.38,4.38,0,0,1,66,157.59V136.16Z"/><path class="cls-1" d="M93.79,136.16a4.38,4.38,0,0,1,4.71-4.71h16.73a6.46,6.46,0,0,1,.63,1.47,6.75,6.75,0,0,1,.28,1.92,3.7,3.7,0,0,1-.84,2.74,3,3,0,0,1-2.2.81H102.41v4.71h11.4a6.9,6.9,0,0,1,.63,1.45,6.46,6.46,0,0,1,.28,1.9,3.77,3.77,0,0,1-.81,2.73,2.91,2.91,0,0,1-2.18.81h-9.32v5.32h13a6.91,6.91,0,0,1,.91,3.4,3.78,3.78,0,0,1-.84,2.76,3,3,0,0,1-2.2.84H98.5a4.38,4.38,0,0,1-4.71-4.72V136.16Z"/><path class="cls-1" d="M149.38,161.09a4.57,4.57,0,0,1-2.06,1.09,12,12,0,0,1-3.21.38,11.19,11.19,0,0,1-3.55-.56,4.88,4.88,0,0,1-2.74-2.68l-5-10.24c-.51-1-1-2-1.37-3s-.85-2-1.32-3.22l-.3,0c.13,1.83.21,3.68.23,5.58s0,3.75,0,5.57V162a13.85,13.85,0,0,1-1.7.31,17.23,17.23,0,0,1-2.25.15,11.65,11.65,0,0,1-2-.15,3.07,3.07,0,0,1-1.42-.61,3,3,0,0,1-.86-1.24,5.88,5.88,0,0,1-.3-2V133a4.22,4.22,0,0,1,2.18-1.52,9.48,9.48,0,0,1,3.14-.51,10.87,10.87,0,0,1,3.57.59,4.81,4.81,0,0,1,2.71,2.66l5.07,10.23c.51,1.05,1,2,1.37,3s.84,2,1.31,3.21l.26-.05c-.14-1.82-.22-3.64-.26-5.47s0-3.65,0-5.47v-8.21a14.66,14.66,0,0,1,1.7-.3,15.72,15.72,0,0,1,2.26-.16,6.11,6.11,0,0,1,3.39.79q1.17.78,1.17,3.27v26Z"/><polygon class="cls-2" points="2.94 168.21 7.79 168.21 7.79 173.95 6.38 173.95 6.38 169.4 4.34 169.4 4.34 173.95 2.94 173.95 2.94 168.21 2.94 168.21"/><path class="cls-2" d="M13.28,172.76A1.62,1.62,0,0,0,14.83,171a1.55,1.55,0,1,0-3.1,0,1.62,1.62,0,0,0,1.55,1.72Zm0-4.65a2.91,2.91,0,0,1,3,2.93,3,3,0,1,1-6,0,2.91,2.91,0,0,1,3-2.93Z"/><path class="cls-2" d="M19.28,170.09v-1.88h3.85V174h-1.4v-4.54H20.61v.7c0,2.83-.87,3.91-2.48,3.91v-1.28c.68-.09,1.15-.59,1.15-2.65Z"/><polygon class="cls-2" points="25.93 168.21 29.53 168.21 29.53 169.41 27.33 169.41 27.33 170.46 29.08 170.46 29.08 171.66 27.33 171.66 27.33 172.75 29.64 172.75 29.64 173.95 25.93 173.95 25.93 168.21 25.93 168.21"/><path class="cls-2" d="M32.39,172.25a1.87,1.87,0,0,0,1.22.57c.49,0,.76-.23.76-.64s-.21-.57-.68-.57H33V170.5h.57a.6.6,0,1,0,0-1.19,2,2,0,0,0-1.19.48l-.54-1a3,3,0,0,1,2-.67,1.7,1.7,0,0,1,1.84,1.62,1.41,1.41,0,0,1-.75,1.26h0a1.29,1.29,0,0,1,.9,1.28,1.85,1.85,0,0,1-2,1.77,2.93,2.93,0,0,1-2.11-.88l.73-.92Z"/><polygon class="cls-2" points="38.3 168.21 39.71 168.21 39.71 170.5 41.8 170.5 41.8 168.21 43.2 168.21 43.2 173.95 41.8 173.95 41.8 171.7 39.71 171.7 39.71 173.95 38.3 173.95 38.3 168.21 38.3 168.21"/><path class="cls-2" d="M48.63,171.62l-.33-1.12c-.1-.36-.23-1-.23-1h0s-.12.62-.23,1l-.33,1.12Zm-1.31-3.41H48.8l2,5.74H49.31l-.36-1.2H47.16l-.34,1.2H45.37l2-5.74Z"/><path class="cls-2" d="M55.55,170.85v-1.44h-.48a1.09,1.09,0,0,0-.67.16.67.67,0,0,0-.19.54.66.66,0,0,0,.73.74Zm-2.07,1.25c.16-.26.22-.34.22-.34v0a1.85,1.85,0,0,1-.92-1.7,1.71,1.71,0,0,1,1.06-1.7,3.14,3.14,0,0,1,1.11-.13h2V174h-1.4V172H55L54,174H52.38l1.1-1.85Z"/><polygon class="cls-2" points="59.62 172.63 60.94 172.63 60.94 173.95 59.62 173.95 59.62 172.63 59.62 172.63"/><path class="cls-2" d="M67.44,172.25a1.87,1.87,0,0,0,1.22.57c.5,0,.76-.23.76-.64s-.21-.57-.68-.57h-.69V170.5h.57a.6.6,0,1,0,0-1.19,2,2,0,0,0-1.19.48l-.54-1a3,3,0,0,1,2-.67,1.7,1.7,0,0,1,1.84,1.62A1.4,1.4,0,0,1,70,171h0a1.3,1.3,0,0,1,.9,1.28,1.86,1.86,0,0,1-2.05,1.77,3,3,0,0,1-2.11-.88l.73-.92Z"/><path class="cls-2" d="M76.62,172.75v-3.34H75.47v.27a7.09,7.09,0,0,1-.62,3.07Zm-3.21,0a6.26,6.26,0,0,0,.73-3.19v-1.35H78v4.54h.64v2.33H77.43V174H74.11v1.13h-1.3v-2.33Z"/><path class="cls-2" d="M83.72,172.76A1.62,1.62,0,0,0,85.27,171a1.55,1.55,0,1,0-3.1,0,1.63,1.63,0,0,0,1.55,1.72Zm0-4.65a2.91,2.91,0,0,1,3,2.93,3,3,0,1,1-6,0,2.91,2.91,0,0,1,3-2.93Z"/><path class="cls-2" d="M91.31,171a.7.7,0,0,0,.73-.79.68.68,0,0,0-.71-.77h-.71V171Zm-2.1-2.76H91.6a1.84,1.84,0,0,1,1.87,2,1.86,1.86,0,0,1-1.87,2h-1V174H89.21v-5.74Z"/><path class="cls-2" d="M98.51,172.76a1.62,1.62,0,0,0,1.55-1.72,1.55,1.55,0,1,0-3.1,0,1.62,1.62,0,0,0,1.55,1.72Zm0-4.65a2.91,2.91,0,0,1,3,2.93,3,3,0,1,1-6,0,2.91,2.91,0,0,1,3-2.93Z"/><path class="cls-2" d="M106.25,172.75a.57.57,0,0,0,.61-.61.55.55,0,0,0-.61-.58h-.85v1.19Zm-.12-2.32a.48.48,0,0,0,.5-.53.47.47,0,0,0-.53-.49h-.7v1ZM104,168.21h2.11c1.15,0,2,.51,2,1.5a1.41,1.41,0,0,1-.66,1.22v0a1.29,1.29,0,0,1,.9,1.29c0,1.25-1,1.71-2.19,1.71H104v-5.74Z"/><path class="cls-2" d="M113.36,171.62,113,170.5c-.1-.36-.23-1-.23-1h0s-.12.62-.23,1l-.33,1.12Zm-1.31-3.41h1.48l2,5.74H114l-.36-1.2h-1.79l-.34,1.2H110.1l2-5.74Z"/><path class="cls-2" d="M120.28,170.85v-1.44h-.47a1.13,1.13,0,0,0-.68.16.7.7,0,0,0-.19.54.66.66,0,0,0,.73.74Zm-2.07,1.25c.16-.26.22-.34.22-.34v0a1.85,1.85,0,0,1-.92-1.7,1.71,1.71,0,0,1,1.06-1.7,3.14,3.14,0,0,1,1.11-.13h2V174h-1.4V172h-.51L118.68,174h-1.57l1.1-1.85Z"/><polygon class="cls-2" points="124.35 172.63 125.67 172.63 125.67 173.95 124.35 173.95 124.35 172.63 124.35 172.63"/><polygon class="cls-2" points="131.93 168.21 135.53 168.21 135.53 169.41 133.33 169.41 133.33 170.46 135.08 170.46 135.08 171.66 133.33 171.66 133.33 172.75 135.64 172.75 135.64 173.95 131.93 173.95 131.93 168.21 131.93 168.21"/><path class="cls-2" d="M141.41,172.75v-3.34h-1.15v.27a7.09,7.09,0,0,1-.62,3.07Zm-3.21,0a6.37,6.37,0,0,0,.73-3.19v-1.35h3.89v4.54h.64v2.33h-1.25V174H138.9v1.13h-1.3v-2.33Z"/><path class="cls-2" d="M148.56,171.62l-.32-1.12c-.11-.36-.23-1-.23-1h0s-.13.62-.23,1l-.33,1.12Zm-1.3-3.41h1.48l1.95,5.74h-1.45l-.35-1.2H147.1l-.35,1.2h-1.44l1.95-5.74Z"/><path class="cls-3" d="M89.28,36.64A40.53,40.53,0,0,1,69.07,71.72,41.16,41.16,0,0,1,62.58,67,40.52,40.52,0,0,1,69.07,1.57,40.74,40.74,0,0,1,84.91,18.33a40.23,40.23,0,0,1,4.37,18.31Z"/><path class="cls-1" d="M89.28,36.64A40.53,40.53,0,0,1,69.07,71.72,41.16,41.16,0,0,1,62.58,67,40.46,40.46,0,0,1,84.91,18.33a40.23,40.23,0,0,1,4.37,18.31Z"/><path class="cls-4" d="M64.48,68.32a41,41,0,0,0,1.12,6.09A40.55,40.55,0,0,0,115.21,24.8,40.53,40.53,0,0,0,64.48,68.32Z"/><path class="cls-5" d="M86.24,76.46A27.37,27.37,0,1,1,58.87,49.1,27.36,27.36,0,0,1,86.24,76.46Z"/><path class="cls-6" d="M46.11,76.46A27.38,27.38,0,0,1,66.17,50.08a27.37,27.37,0,1,0,0,52.77A27.38,27.38,0,0,1,46.11,76.46Z"/><path class="cls-5" d="M110.73,83.27A20.56,20.56,0,1,1,90.17,62.71a20.56,20.56,0,0,1,20.56,20.56Z"/><path class="cls-6" d="M80.88,83.27A20.56,20.56,0,0,1,95.8,63.5a20.56,20.56,0,1,0,0,39.55A20.57,20.57,0,0,1,80.88,83.27Z"/><path class="cls-7" d="M50.88,65.88a5.34,5.34,0,1,1-5.33-5.33,5.34,5.34,0,0,1,5.33,5.33Z"/><path class="cls-8" d="M41.78,65.88a3.77,3.77,0,1,1,3.77,3.77,3.77,3.77,0,0,1-3.77-3.77Zm10.67,0a6.91,6.91,0,1,0-6.9,6.91,6.91,6.91,0,0,0,6.9-6.91Z"/><path class="cls-8" d="M105.6,84.4c0-2.08.77-3.77,1.71-3.77S109,82.32,109,84.4s-.77,3.76-1.72,3.76-1.71-1.69-1.71-3.76Zm4.85,0c0-3.81-1.41-6.91-3.14-6.91s-3.14,3.1-3.14,6.91,1.41,6.9,3.14,6.9,3.14-3.1,3.14-6.9Z"/><path class="cls-9" d="M75,34.2a40.66,40.66,0,0,0-4.37,5.12V29.85L76.49,24a1.56,1.56,0,0,0,0-2.22,1.58,1.58,0,0,0-2.22,0l-3.63,3.64V16a1.57,1.57,0,0,0-3.14,0v9.42l-3.64-3.64A1.57,1.57,0,0,0,61.64,24l5.86,5.86V44.37a41.61,41.61,0,0,0-1.82,4,29.58,29.58,0,0,0-6.81-.8,28.72,28.72,0,0,0-6.67.78A39,39,0,0,1,69.07,3.4a39.14,39.14,0,0,1,17.2,22.75A41.66,41.66,0,0,0,75,34.2Zm34.15,49.07a19,19,0,1,1-19-19,19,19,0,0,1,19,19Zm7.56-58.87a1.55,1.55,0,0,0-1.11-1.12,42.36,42.36,0,0,0-26.44,1.58A42.36,42.36,0,0,0,69.85.21a1.57,1.57,0,0,0-1.57,0,42.17,42.17,0,0,0-19.09,49A29,29,0,0,0,29.93,76.46a28,28,0,0,0,.25,3.78,1.56,1.56,0,0,0,1.55,1.36h.21a1.57,1.57,0,0,0,1.35-1.76,25.21,25.21,0,0,1-.22-3.37A25.8,25.8,0,0,1,81,63.15a22.12,22.12,0,0,0-7.53,34.6,25.51,25.51,0,0,1-14.57,4.51A25.8,25.8,0,0,1,34.44,84.79a1.57,1.57,0,1,0-3,1,28.94,28.94,0,0,0,27.4,19.6A28.56,28.56,0,0,0,75.7,100a22.11,22.11,0,1,0,28.7-33.65c.48-.44.95-.89,1.41-1.34a42.25,42.25,0,0,0,7.84-10.83,1.57,1.57,0,1,0-2.8-1.41,39.42,39.42,0,0,1-7.26,10c-.58.57-1.18,1.13-1.79,1.67A22.12,22.12,0,0,0,84,62a27.13,27.13,0,0,0-1.46-2.3L86.21,56h14.41a1.57,1.57,0,0,0,0-3.14H89.35l6.48-6.48h8.29a1.57,1.57,0,0,0,0-3.14H99L109.22,33A1.57,1.57,0,0,0,107,30.79L96.75,41V35.89a1.57,1.57,0,1,0-3.14,0v8.29l-6.48,6.48V39.39a1.57,1.57,0,1,0-3.14,0V53.8l-3.46,3.46a28.89,28.89,0,0,0-11.83-8A39,39,0,0,1,88.77,28.44a39.19,39.19,0,0,1,25.15-2.35,39,39,0,0,1-1,21.75,1.57,1.57,0,1,0,3,1,42,42,0,0,0,.84-24.45Z"/><path class="cls-5" d="M77.45,110a8,8,0,1,1,3.81-10.63A8,8,0,0,1,77.45,110Z"/><path class="cls-6" d="M70.48,101.85a8,8,0,0,1,7.33-6.23,7.91,7.91,0,0,0-2.07-.78,8,8,0,1,0-3.47,15.59,7.5,7.5,0,0,0,2.2.18,8,8,0,0,1-4-8.76Z"/><path class="cls-7" d="M77.1,106.15a1.42,1.42,0,1,1,.67-1.89,1.42,1.42,0,0,1-.67,1.89Z"/><path class="cls-8" d="M77.24,104.51a.83.83,0,0,1-1.5.71.83.83,0,1,1,1.5-.71Zm-2.57,1.21a2,2,0,1,0,1-2.68,2,2,0,0,0-1,2.68Z"/><path class="cls-10" d="M81.14,99.21a7.85,7.85,0,1,0-3.75,10.44,7.86,7.86,0,0,0,3.75-10.44Zm-16.75,7.91a10.67,10.67,0,1,1,14.21,5.09,10.68,10.68,0,0,1-14.21-5.09Z"/><path class="cls-7" d="M105.6,84.4c0-2.08.77-3.77,1.71-3.77S109,82.32,109,84.4s-.77,3.76-1.72,3.76-1.71-1.69-1.71-3.76Z"/></g></g></svg>