<svg xmlns="http://www.w3.org/2000/svg" viewBox="0 0 193.96 176.71"><defs><style>.cls-1{fill:#e20e18;}</style></defs><g id="Слой_2" data-name="Слой 2"><g id="Слой_1-2" data-name="Слой 1"><path class="cls-1" d="M143.56,56.11C141,34.1,129.82,18.94,110.67,9.7l-1.62.75c-.13,1.73-.38,3.45-.38,5.18q0,38.09,0,76.16c0,5.56,0,5.56-5.48,5.54-4.46,0-8.94-.18-13.39.07-3.46.18-4.59-1.05-4.55-4.52.15-14.51.06-29,.06-43.52q0-17.58,0-35.15c0-1.2-.13-2.4-.22-4C73.55,12.09,67.26,20,61.17,28.17S50.15,45,51.35,56.29c-2.34,0-4.3.27-6.12-.1-1-.21-2.59-1.54-2.56-2.31.53-12.66-6.7-21.82-14-30.83-4.46-5.52-9.56-10.56-16.93-12.25-.78-.18-1.57-.31-2.93-.57-.09,1.88-.23,3.47-.23,5.06q0,38.49,0,77c0,4.7-2.74,6.65-7.09,4.84A3.76,3.76,0,0,1,0,94.2Q0,48.58.1,3A16.82,16.82,0,0,1,.61.09c24.05.8,34.83,18.48,46.08,35.76,4.81-6.58,9.19-13.15,14.15-19.24C68.61,7.08,78.56,1.15,91.06.07c.79-.07,1.6,0,2.89,0V87.87c5.85,1.33,6.11,1.12,6.12-4.38q0-38.71,0-77.42V0c11.19.56,20.86,3.62,28.11,11.71,6.72,7.49,12.83,15.53,19.22,23.34,4.55-6.15,9.26-12.81,14.27-19.24A41.31,41.31,0,0,1,193.58.23c.12,1.71.34,3.46.34,5.21q0,42.48,0,85c0,7.56,0,7.56-8.37,6.53V9.26C181,11.4,177,12.48,174,14.82a63.47,63.47,0,0,0-21.57,30,16.32,16.32,0,0,0-1,6.53c.4,4.27-1.45,5.51-5.3,4.93C145.22,56.18,144.27,56.16,143.56,56.11Z"/><path class="cls-1" d="M142.73,73.62h8.12v68.12l6.58.83v34.14h-7.78V151.12H42.92V73.64h8v68.24c1.67.11,3,.28,4.31.28,27.61,0,55.23,0,82.84.09,3.62,0,4.78-.93,4.75-4.67-.18-19.66-.08-39.33-.08-59Z"/></g></g></svg>