<svg xmlns="http://www.w3.org/2000/svg" xmlns:xlink="http://www.w3.org/1999/xlink" viewBox="0 0 214.96 214.96"><defs><style>.cls-1{fill:url(#Безымянный_градиент_11);}.cls-2{fill:url(#Безымянный_градиент_11-2);}.cls-3{fill:url(#Безымянный_градиент_11-3);}.cls-4{fill:url(#Безымянный_градиент_11-4);}.cls-5{fill:url(#Безымянный_градиент_11-5);}.cls-6{fill:url(#Безымянный_градиент_11-6);}.cls-7{fill:url(#Безымянный_градиент_11-7);}.cls-8{fill:url(#Безымянный_градиент_11-8);}.cls-9{fill:url(#Безымянный_градиент_11-9);}.cls-10{fill:url(#Безымянный_градиент_11-10);}</style><linearGradient id="Безымянный_градиент_11" y1="64.52" x2="64.49" y2="64.52" gradientUnits="userSpaceOnUse"><stop offset="0" stop-color="#fff359"/><stop offset="0.01" stop-color="#fce958"/><stop offset="0.07" stop-color="#f0c756"/><stop offset="0.12" stop-color="#e7ac54"/><stop offset="0.17" stop-color="#e19953"/><stop offset="0.23" stop-color="#dd8e52"/><stop offset="0.29" stop-color="#dc8a52"/><stop offset="0.7" stop-color="#d46d50"/><stop offset="1" stop-color="#cf584f"/></linearGradient><linearGradient id="Безымянный_градиент_11-2" x1="14.33" y1="182.72" x2="50.16" y2="182.72" xlink:href="#Безымянный_градиент_11"/><linearGradient id="Безымянный_градиент_11-3" x1="14.33" y1="154.06" x2="50.16" y2="154.06" xlink:href="#Безымянный_градиент_11"/><linearGradient id="Безымянный_градиент_11-4" x1="14.33" y1="125.39" x2="50.16" y2="125.39" xlink:href="#Безымянный_градиент_11"/><linearGradient id="Безымянный_градиент_11-5" x1="64.49" y1="107.48" x2="214.96" y2="107.48" xlink:href="#Безымянный_градиент_11"/><linearGradient id="Безымянный_градиент_11-6" x1="125.4" y1="187.67" x2="152.4" y2="187.67" xlink:href="#Безымянный_градиент_11"/><linearGradient id="Безымянный_градиент_11-7" x1="136.14" y1="53.74" x2="164.8" y2="53.74" xlink:href="#Безымянный_градиент_11"/><linearGradient id="Безымянный_градиент_11-8" x1="107.48" y1="44.78" x2="114.64" y2="44.78" xlink:href="#Безымянный_градиент_11"/><linearGradient id="Безымянный_градиент_11-9" x1="107.48" y1="77.03" x2="114.64" y2="77.03" xlink:href="#Безымянный_градиент_11"/><linearGradient id="Безымянный_градиент_11-10" x1="107.48" y1="111.06" x2="114.64" y2="111.06" xlink:href="#Безымянный_градиент_11"/></defs><g id="Слой_2" data-name="Слой 2"><g id="Слой_1-2" data-name="Слой 1"><path class="cls-1" d="M63.7,58.67,35,22.84a3.71,3.71,0,0,0-5.6,0L.78,58.67a3.58,3.58,0,0,0,2.8,5.82H14.33V103.9a3.58,3.58,0,0,0,3.58,3.58H46.57a3.58,3.58,0,0,0,3.59-3.58V64.49H60.9a3.58,3.58,0,0,0,2.8-5.82ZM46.57,57.32A3.58,3.58,0,0,0,43,60.91v39.41H21.49V60.91a3.58,3.58,0,0,0-3.58-3.59H11l21.2-26.51L53.45,57.32Z"/><path class="cls-2" d="M46.57,172H17.91a3.58,3.58,0,0,0-3.58,3.58v14.33a3.58,3.58,0,0,0,3.58,3.59H46.57a3.59,3.59,0,0,0,3.59-3.59V175.55A3.58,3.58,0,0,0,46.57,172ZM43,186.3H21.49v-7.16H43Z"/><path class="cls-3" d="M46.57,143.31H17.91a3.58,3.58,0,0,0-3.58,3.58v14.33a3.58,3.58,0,0,0,3.58,3.58H46.57a3.58,3.58,0,0,0,3.59-3.58V146.89A3.58,3.58,0,0,0,46.57,143.31ZM43,157.64H21.49v-7.17H43Z"/><path class="cls-4" d="M46.57,114.65H17.91a3.58,3.58,0,0,0-3.58,3.58v14.33a3.58,3.58,0,0,0,3.58,3.58H46.57a3.58,3.58,0,0,0,3.59-3.58V118.23A3.58,3.58,0,0,0,46.57,114.65ZM43,129H21.49v-7.17H43Z"/><path class="cls-5" d="M209.71,122.25l-27-27V50.16a25.08,25.08,0,1,0,0-50.16H89.57a25.08,25.08,0,0,0,0,50.16v75.23a10.76,10.76,0,0,0,10.74,10.75h41.51l4.3,4.29a36.24,36.24,0,0,0-2.76,21.43c2.54,14.07,12.8,21.81,15.89,23.85l3.94-6c-2.48-1.64-10.74-7.87-12.77-19.15a29.22,29.22,0,0,1,3.2-19.13,3.59,3.59,0,0,0-.61-4.26L145.84,130,128.11,112.3a8,8,0,0,1-.57-10.71,8,8,0,0,1,11.74-.86l44.58,41.61,4.89-5.23-7.29-6.81a10.6,10.6,0,0,0,1.26-4.91v-20l21.93,21.93a10.82,10.82,0,0,1,3.15,7.6V215H215V134.91A17.8,17.8,0,0,0,209.71,122.25ZM175.55,46.58v78.21l-31.39-29.3A15.2,15.2,0,0,0,123,117.36L134.66,129H100.31a3.59,3.59,0,0,1-3.58-3.59V28.66h78.82Zm3.58-25.08h-86a3.58,3.58,0,0,0-3.58,3.58V43a17.91,17.91,0,1,1,0-35.82h93.15a17.91,17.91,0,0,1,0,35.82V25.08A3.58,3.58,0,0,0,179.13,21.5Z"/><path class="cls-6" d="M139.16,188a43.41,43.41,0,0,1-6.61-19.86l-7.15.56a50.35,50.35,0,0,0,23.14,38.57l3.86-6A43.63,43.63,0,0,1,139.16,188Z"/><path class="cls-7" d="M154.05,35.83h-7.16a10.76,10.76,0,0,0-10.75,10.75V60.91a10.76,10.76,0,0,0,10.75,10.74h7.16A10.76,10.76,0,0,0,164.8,60.91V46.58A10.76,10.76,0,0,0,154.05,35.83Zm3.59,25.08a3.59,3.59,0,0,1-3.59,3.58h-7.16a3.58,3.58,0,0,1-3.58-3.58V46.58A3.58,3.58,0,0,1,146.89,43h7.16a3.59,3.59,0,0,1,3.59,3.59Z"/><rect class="cls-8" x="107.48" y="35.83" width="7.17" height="17.91"/><rect class="cls-9" x="107.48" y="68.07" width="7.17" height="17.91"/><rect class="cls-10" x="107.48" y="100.32" width="7.17" height="21.5"/></g></g></svg>