<svg xmlns="http://www.w3.org/2000/svg" xmlns:xlink="http://www.w3.org/1999/xlink" viewBox="0 0 214.96 214.96"><defs><style>.cls-1{fill:url(#Безымянный_градиент_11);}.cls-2{fill:url(#Безымянный_градиент_11-2);}</style><linearGradient id="Безымянный_градиент_11" y1="107.48" x2="214.96" y2="107.48" gradientUnits="userSpaceOnUse"><stop offset="0" stop-color="#fff359"/><stop offset="0.01" stop-color="#fce958"/><stop offset="0.07" stop-color="#f0c756"/><stop offset="0.12" stop-color="#e7ac54"/><stop offset="0.17" stop-color="#e19953"/><stop offset="0.23" stop-color="#dd8e52"/><stop offset="0.29" stop-color="#dc8a52"/><stop offset="0.7" stop-color="#d46d50"/><stop offset="1" stop-color="#cf584f"/></linearGradient><linearGradient id="Безымянный_градиент_11-2" x1="46.88" y1="107.48" x2="168.08" y2="107.48" xlink:href="#Безымянный_градиент_11"/></defs><g id="Слой_2" data-name="Слой 2"><g id="Слой_1-2" data-name="Слой 1"><path class="cls-1" d="M107.48,0A107.48,107.48,0,1,0,215,107.48,107.54,107.54,0,0,0,107.48,0Zm0,205.64a98.16,98.16,0,1,1,98.16-98.16A98.27,98.27,0,0,1,107.48,205.64Z"/><path class="cls-2" d="M163.42,84.17H130.79V51.54a4.64,4.64,0,0,0-4.66-4.66H88.83a4.64,4.64,0,0,0-4.66,4.66V84.17H51.54a4.64,4.64,0,0,0-4.66,4.66v37.3a4.64,4.64,0,0,0,4.66,4.66H84.17v32.63a4.64,4.64,0,0,0,4.66,4.66h37.3a4.64,4.64,0,0,0,4.66-4.66V130.79h32.63a4.64,4.64,0,0,0,4.66-4.66V88.83A5,5,0,0,0,163.42,84.17Zm-4.4,37.3H126.13a4.64,4.64,0,0,0-4.66,4.66v32.63h-28V126.13a4.64,4.64,0,0,0-4.66-4.66H56.2v-28H88.83a4.64,4.64,0,0,0,4.66-4.66V56.2h28.23V88.83a4.65,4.65,0,0,0,4.67,4.66H159Z"/></g></g></svg>