<svg xmlns="http://www.w3.org/2000/svg" xmlns:xlink="http://www.w3.org/1999/xlink" viewBox="0 0 214.96 214.96"><defs><style>.cls-1{fill:url(#Безымянный_градиент_11);}.cls-2{fill:url(#Безымянный_градиент_11-2);}.cls-3{fill:url(#Безымянный_градиент_11-3);}.cls-4{fill:url(#Безымянный_градиент_11-4);}.cls-5{fill:url(#Безымянный_градиент_11-5);}.cls-6{fill:url(#Безымянный_градиент_11-6);}.cls-7{fill:url(#Безымянный_градиент_11-7);}.cls-8{fill:url(#Безымянный_градиент_11-8);}.cls-9{fill:url(#Безымянный_градиент_11-9);}</style><linearGradient id="Безымянный_градиент_11" x1="17.91" y1="59.11" x2="125.39" y2="59.11" gradientUnits="userSpaceOnUse"><stop offset="0" stop-color="#fff359"/><stop offset="0.01" stop-color="#fce958"/><stop offset="0.07" stop-color="#f0c756"/><stop offset="0.12" stop-color="#e7ac54"/><stop offset="0.17" stop-color="#e19953"/><stop offset="0.23" stop-color="#dd8e52"/><stop offset="0.29" stop-color="#dc8a52"/><stop offset="0.7" stop-color="#d46d50"/><stop offset="1" stop-color="#cf584f"/></linearGradient><linearGradient id="Безымянный_градиент_11-2" x1="17.91" y1="187.92" x2="32.14" y2="187.92" xlink:href="#Безымянный_градиент_11"/><linearGradient id="Безымянный_градиент_11-3" x1="132.56" y1="44.78" x2="214.96" y2="44.78" xlink:href="#Безымянный_градиент_11"/><linearGradient id="Безымянный_градиент_11-4" x1="150.47" y1="21.5" x2="175.55" y2="21.5" xlink:href="#Безымянный_градиент_11"/><linearGradient id="Безымянный_градиент_11-5" x1="182.72" y1="21.5" x2="197.05" y2="21.5" xlink:href="#Безымянный_градиент_11"/><linearGradient id="Безымянный_градиент_11-6" x1="150.47" y1="35.83" x2="197.05" y2="35.83" xlink:href="#Безымянный_градиент_11"/><linearGradient id="Безымянный_градиент_11-7" x1="150.47" y1="50.16" x2="175.55" y2="50.16" xlink:href="#Безымянный_градиент_11"/><linearGradient id="Безымянный_градиент_11-8" x1="111.16" y1="187.92" x2="125.39" y2="187.92" xlink:href="#Безымянный_градиент_11"/><linearGradient id="Безымянный_градиент_11-9" x1="0" y1="123.12" x2="214.96" y2="123.12" xlink:href="#Безымянный_градиент_11"/></defs><g id="Слой_2" data-name="Слой 2"><g id="Слой_1-2" data-name="Слой 1"><path class="cls-1" d="M71.65,0A53.74,53.74,0,0,0,17.91,53.74V93.15A25.12,25.12,0,0,0,43,118.23h3.58v-7.17H43A17.92,17.92,0,0,1,25.08,93.15V53.74a46.58,46.58,0,0,1,93.15,0V93.15a17.93,17.93,0,0,1-17.91,17.91H96.73v7.17h3.59a25.11,25.11,0,0,0,25.07-25.08V53.74A53.74,53.74,0,0,0,71.65,0Z"/><path class="cls-2" d="M29.52,168.85l2.62-4.13-6.05-3.84L23.47,165A35.71,35.71,0,0,0,25,205.43V215h7.17V204.21a3.6,3.6,0,0,0-.79-2.24A28.55,28.55,0,0,1,29.52,168.85Z"/><path class="cls-3" d="M197.05,0H150.47a17.93,17.93,0,0,0-17.91,17.91V53.74a17.92,17.92,0,0,0,17.91,17.91h7.17V86a3.57,3.57,0,0,0,2.21,3.31,3.39,3.39,0,0,0,1.37.28,3.58,3.58,0,0,0,2.53-1l16.87-16.87h16.43A17.92,17.92,0,0,0,215,53.74V17.91A17.93,17.93,0,0,0,197.05,0ZM207.8,53.74a10.75,10.75,0,0,1-10.75,10.75H179.13a3.58,3.58,0,0,0-2.53,1.05l-11.8,11.8V68.07a3.58,3.58,0,0,0-3.58-3.58H150.47a10.75,10.75,0,0,1-10.75-10.75V17.91A10.75,10.75,0,0,1,150.47,7.17h46.58A10.75,10.75,0,0,1,207.8,17.91Z"/><rect class="cls-4" x="150.47" y="17.91" width="25.08" height="7.17"/><rect class="cls-5" x="182.72" y="17.91" width="14.33" height="7.17"/><rect class="cls-6" x="150.47" y="32.24" width="46.57" height="7.17"/><rect class="cls-7" x="150.47" y="46.57" width="25.08" height="7.17"/><path class="cls-8" d="M119.83,165l-2.62-4.13-6,3.84,2.62,4.13A28.52,28.52,0,0,1,112,202a3.59,3.59,0,0,0-.78,2.24V215h7.16v-9.53A35.7,35.7,0,0,0,119.83,165Z"/><path class="cls-9" d="M211.38,121.81H179.13a25.07,25.07,0,0,0-25,24.06l-10.8,19.44V150.47a25.12,25.12,0,0,0-25.08-25.08h-13.1l-.09-.07-.07.07H96.73a7.15,7.15,0,0,1-7.16-7.16V109.8a35.83,35.83,0,0,0,17.91-31V50.16a35.83,35.83,0,0,0-4.3-17,3.59,3.59,0,0,0-4.66-1.54L37.88,60.15a3.58,3.58,0,0,0-2.05,3.24V78.82a35.81,35.81,0,0,0,17.91,31v8.43a7.16,7.16,0,0,1-7.17,7.16H25.08A25.11,25.11,0,0,0,0,150.47V215H7.17V150.47a17.92,17.92,0,0,1,17.91-17.91h11.4l32.26,45.08a3.58,3.58,0,0,0,2.87,1.49h0a3.59,3.59,0,0,0,2.87-1.43l34-45.14h9.67a17.92,17.92,0,0,1,17.91,17.91v28.66a3.59,3.59,0,0,0,6.72,1.74l16.88-30.4h20.54L145.35,215h8.15l34.95-64.49h1.43A25.1,25.1,0,0,0,215,125.39,3.58,3.58,0,0,0,211.38,121.81ZM43,78.82V65.66l55.32-26a28.52,28.52,0,0,1,2,10.53V78.82a28.67,28.67,0,0,1-57.33,0ZM71.73,169.5,60.67,154.06h22.7Zm17.06-22.61H55.53L45.27,132.56h1.3a14.34,14.34,0,0,0,14.34-14.33V113a35.66,35.66,0,0,0,21.49,0v5.24a14.34,14.34,0,0,0,14.33,14.33H99.6Zm101.09-3.58h-28.3A17.93,17.93,0,0,1,179.13,129h28.31A18,18,0,0,1,189.88,143.31Z"/></g></g></svg>