<svg xmlns="http://www.w3.org/2000/svg" xmlns:xlink="http://www.w3.org/1999/xlink" viewBox="0 0 213.08 213.08"><defs><style>.cls-1{fill:url(#Безымянный_градиент_11);}</style><linearGradient id="Безымянный_градиент_11" y1="106.54" x2="213.08" y2="106.54" gradientUnits="userSpaceOnUse"><stop offset="0" stop-color="#fff359"/><stop offset="0.01" stop-color="#fce958"/><stop offset="0.07" stop-color="#f0c756"/><stop offset="0.12" stop-color="#e7ac54"/><stop offset="0.17" stop-color="#e19953"/><stop offset="0.23" stop-color="#dd8e52"/><stop offset="0.29" stop-color="#dc8a52"/><stop offset="0.7" stop-color="#d46d50"/><stop offset="1" stop-color="#cf584f"/></linearGradient></defs><g id="Слой_2" data-name="Слой 2"><g id="Слой_1-2" data-name="Слой 1"><g id="Page-1"><g id="_038---Market-Stall" data-name="038---Market-Stall"><path id="Shape" class="cls-1" d="M207.9,58.71a17.8,17.8,0,0,0,5.18-12.54,15.82,15.82,0,0,0-2.49-8.45L192.89,9.9a21.33,21.33,0,0,0-18-9.9H38.14A21.35,21.35,0,0,0,20.2,9.88L2.49,37.73A15.68,15.68,0,0,0,0,46.17,17.8,17.8,0,0,0,5.21,58.74a18.06,18.06,0,0,0,5.44,3.67V135A10.63,10.63,0,0,0,7.1,155.6v36.82a10.63,10.63,0,0,0,3.55,20.65H202.42A10.63,10.63,0,0,0,206,192.42V155.6A10.63,10.63,0,0,0,202.42,135V62.4a18.18,18.18,0,0,0,5.48-3.69Zm-5-5a10.73,10.73,0,0,1-7.56,3.13H184.67A10.65,10.65,0,0,1,174,46.17h32A10.7,10.7,0,0,1,202.88,53.69ZM167.38,135l3.05-24.42a3.55,3.55,0,0,0-3.52-4H145.6a3.55,3.55,0,0,0-3.52,4l3,24.42H117.19V120.74a7.1,7.1,0,0,0-7.1-7.1H71V99.43h3.55a7.1,7.1,0,0,0,7.1-7.1v-7.1a7.1,7.1,0,0,0-7.1-7.1H46.17a7.1,7.1,0,0,0-7.11,7.1v7.1a7.1,7.1,0,0,0,7.11,7.1h3.55v14.21H46.17a7.1,7.1,0,0,0-7.11,7.1V135H32V63.57a17.71,17.71,0,0,0,10.65-6.86,17.7,17.7,0,0,0,14.21,7.21H71a17.66,17.66,0,0,0,14.2-7.21,17.67,17.67,0,0,0,14.21,7.21h14.2a17.7,17.7,0,0,0,14.21-7.21,17.66,17.66,0,0,0,14.2,7.21h14.21a17.66,17.66,0,0,0,14.2-7.21,17.71,17.71,0,0,0,10.65,6.85V135Zm-17.76-21.31h13.27L160.22,135h-7.93ZM67.47,92.33H46.17v-7.1H74.58v7.1Zm-10.65,7.1h7.1v14.21h-7.1Zm-3.55,21.31h56.82V135H46.17V120.74ZM166.91,46.17a10.65,10.65,0,0,1-10.65,10.65H142.05A10.65,10.65,0,0,1,131.4,46.17Zm-42.62,0a10.65,10.65,0,0,1-10.65,10.65H99.44A10.65,10.65,0,0,1,88.78,46.17Zm-78.12,0H81.68A10.65,10.65,0,0,1,71,56.82H56.82A10.65,10.65,0,0,1,46.17,46.17Zm-20-32.49A14.23,14.23,0,0,1,38.14,7.1H174.93a14.22,14.22,0,0,1,12,6.6L203,39.06H172.85l-6.19-15.52a3.55,3.55,0,0,0-6.6,2.64l5.15,12.88H131.4V32a3.56,3.56,0,0,0-7.11,0v7.1H88.78V32a3.55,3.55,0,1,0-7.1,0v7.1H47.86L53,26.18a3.55,3.55,0,1,0-6.6-2.64L40.21,39.06H10ZM7.1,46.17h32A10.65,10.65,0,0,1,28.41,56.82H17.76A10.64,10.64,0,0,1,7.1,46.17ZM17.76,63.92h7.1v71h-7.1ZM198.87,191.77H14.2V156.25H198.87Zm3.55,14.2H10.65a3.55,3.55,0,0,1,0-7.1H202.42a3.55,3.55,0,1,1,0,7.1ZM206,145.6a3.55,3.55,0,0,1-3.55,3.55H10.65a3.55,3.55,0,0,1,0-7.1H202.42A3.55,3.55,0,0,1,206,145.6ZM195.32,135h-7.1v-71h7.1Z"/></g></g></g></g></svg>