<svg xmlns="http://www.w3.org/2000/svg" viewBox="0 0 206.89 206.89"><defs><style>.cls-1{fill:#0077c0;}.cls-2{fill:none;stroke:#0077c0;stroke-miterlimit:10;stroke-width:8px;}</style></defs><g id="Слой_2" data-name="Слой 2"><g id="Слой_2-2" data-name="Слой 2"><path class="cls-1" d="M162.37,43.09h-5.22l-5.93-14a7.3,7.3,0,0,0-6.73-4.46H60.61a7.31,7.31,0,0,0-6.74,4.46l-5.93,14H42.72a6.06,6.06,0,0,0-6.06,6V62.91a6.06,6.06,0,0,0,6.06,6h3.91l14.74,107a7.34,7.34,0,0,0,7.24,6.32h67.87a7.35,7.35,0,0,0,7.25-6.32L158.46,69h3.91a6.06,6.06,0,0,0,6.06-6V49.14A6.06,6.06,0,0,0,162.37,43.09Zm-24.74,132a1.16,1.16,0,0,1-1.15,1H68.61a1.16,1.16,0,0,1-1.15-1L52.85,69h99.39ZM162.27,62.81H42.82V49.24H112a3.08,3.08,0,1,0,0-6.15H54.63l4.91-11.6a1.16,1.16,0,0,1,1.07-.7h83.88a1.16,1.16,0,0,1,1.06.7l4.91,11.6H136.64a3.08,3.08,0,1,0,0,6.15h25.63Z"/><path class="cls-1" d="M69.3,120.63a33.25,33.25,0,1,0,33.25-33.25A33.29,33.29,0,0,0,69.3,120.63Zm33.25-27.09a27.09,27.09,0,1,1-27.1,27.09A27.12,27.12,0,0,1,102.55,93.54Z"/><path class="cls-1" d="M87.74,135.43a20.93,20.93,0,1,0-6.13-14.8A20.78,20.78,0,0,0,87.74,135.43ZM113,131.08a14.77,14.77,0,0,1-19.6,1.15,9.18,9.18,0,0,1,9.15-8.52,15.35,15.35,0,0,0,13.73-8.54A14.82,14.82,0,0,1,113,131.08Zm-20.9-20.9A14.77,14.77,0,0,1,111.69,109a9.18,9.18,0,0,1-9.14,8.53,15.34,15.34,0,0,0-13.74,8.54,14.8,14.8,0,0,1,3.29-15.91Z"/><rect class="cls-2" x="4" y="4" width="198.89" height="198.89" rx="34.02"/></g></g></svg>