<svg xmlns="http://www.w3.org/2000/svg" viewBox="0 0 206.89 206.89"><defs><style>.cls-1{fill:#0077c0;}.cls-2{fill:none;stroke:#0077c0;stroke-miterlimit:10;stroke-width:8px;}</style></defs><g id="Слой_2" data-name="Слой 2"><g id="Слой_2-2" data-name="Слой 2"><path class="cls-1" d="M186.15,83.55H160.79V77a3.09,3.09,0,0,0-3.1-3.09H90.89a3.09,3.09,0,1,0,0,6.18H154.6V103.8a58.94,58.94,0,0,1-29.08,50.73H66.15A58.94,58.94,0,0,1,37.07,103.8V80.09H57.79a3.09,3.09,0,1,0,0-6.18H34A3.09,3.09,0,0,0,30.89,77v26.8a64.82,64.82,0,0,0,24.39,50.73H34a3.09,3.09,0,0,0-3.09,3.09A20.43,20.43,0,0,0,51.3,178h96.5a20.43,20.43,0,0,0,20.41-20.41,3.09,3.09,0,0,0-3.09-3.09H136.39a65.42,65.42,0,0,0,14.33-16h8.73a29.83,29.83,0,0,0,29.79-29.8V86.64A3.09,3.09,0,0,0,186.15,83.55Zm-24.47,77.16a14.24,14.24,0,0,1-13.88,11.14H51.3a14.26,14.26,0,0,1-13.89-11.14H161.68Zm-.89-56.91v-1.7h9.89v6.65A11.25,11.25,0,0,1,159.45,120h-.71A65.14,65.14,0,0,0,160.79,103.8Zm22.26,5a23.63,23.63,0,0,1-23.6,23.61h-5.27a63.38,63.38,0,0,0,2.64-6.18h2.63a17.45,17.45,0,0,0,17.42-17.43V99a3.09,3.09,0,0,0-3.09-3.09h-13V89.73h22.26Z"/><path class="cls-1" d="M98.79,36.8l-1.61-2a8.06,8.06,0,0,1,0-10.08,3.09,3.09,0,1,0-4.84-3.85,14.23,14.23,0,0,0,0,17.78l1.61,2a10.53,10.53,0,0,1,0,13.17L92.31,55.9a3.1,3.1,0,0,0,4.85,3.85l1.65-2.08A16.69,16.69,0,0,0,98.79,36.8Z"/><path class="cls-1" d="M115.93,43.75l-1.61-2a8.07,8.07,0,0,1,0-10.08,3.09,3.09,0,1,0-4.84-3.85,14.23,14.23,0,0,0,0,17.78l1.61,2a10.53,10.53,0,0,1,0,13.18l-1.64,2.08a3.09,3.09,0,1,0,4.84,3.84L116,64.62A16.69,16.69,0,0,0,115.93,43.75Z"/><path class="cls-1" d="M81.65,43.75l-1.61-2a8,8,0,0,1,0-10.08,3.1,3.1,0,1,0-4.85-3.85,14.23,14.23,0,0,0,0,17.78l1.61,2a10.56,10.56,0,0,1,0,13.18l-1.65,2.08A3.09,3.09,0,1,0,80,66.7l1.65-2.08A16.69,16.69,0,0,0,81.65,43.75Z"/><path class="cls-1" d="M77.37,74.81a3.11,3.11,0,1,0,.9,2.19A3.16,3.16,0,0,0,77.37,74.81Z"/><path class="cls-1" d="M142.85,100.71a3.1,3.1,0,0,0-3.1,3.09,44.3,44.3,0,0,1-12.77,31,3.09,3.09,0,1,0,4.39,4.35,50.54,50.54,0,0,0,14.57-35.31A3.1,3.1,0,0,0,142.85,100.71Z"/><path class="cls-1" d="M121.78,143.15a3.1,3.1,0,0,0-4.21-1.17l-.07,0a3.09,3.09,0,1,0,3,5.39l.07,0A3.1,3.1,0,0,0,121.78,143.15Z"/><rect class="cls-2" x="4" y="4" width="198.89" height="198.89" rx="34.02"/></g></g></svg>