<svg xmlns="http://www.w3.org/2000/svg" viewBox="0 0 206.89 206.89"><defs><style>.cls-1{fill:#002546;stroke:#0078c1;stroke-miterlimit:10;stroke-width:8px;}.cls-2{fill:#fff;}.cls-3{fill:#0078c1;}</style></defs><g id="Слой_2" data-name="Слой 2"><g id="Слой_1-2" data-name="Слой 1"><rect class="cls-1" x="4" y="4" width="198.89" height="198.89" rx="34.02"/><path class="cls-2" d="M175.86,78.38,130.93,33.45a12.49,12.49,0,0,0-17.64,0L43.17,103.57a12.48,12.48,0,0,0,0,17.64l11.27,11.27L42.06,144.86a2.85,2.85,0,0,0,4,4l12.38-12.37,5.15,5.15-29,29a2.82,2.82,0,0,0,0,4,2.84,2.84,0,0,0,4,0l29-29L88.1,166.14a12.49,12.49,0,0,0,17.64,0L175.86,96a12.48,12.48,0,0,0,0-17.64Zm-81,85.39a6.73,6.73,0,0,1-2.73-1.65L47.19,117.18a6.76,6.76,0,0,1-1.74-6.55h49.4ZM84.57,104.94,93,96.5a2.84,2.84,0,0,0-4-4L76.52,104.94H68.23L94,79.21a2.84,2.84,0,0,0-4-4L60.18,104.94H49.85l64.81-64.81v58a6.79,6.79,0,0,1-6.78,6.78ZM171.84,92l-70.12,70.12a7.42,7.42,0,0,1-1.18.93V110.63h7.34a12.49,12.49,0,0,0,12.47-12.47V90.82H153L136.5,107.29a2.85,2.85,0,0,0,0,4,2.84,2.84,0,0,0,4,0L161,90.83h11.76A7,7,0,0,1,171.84,92Zm-51.49-6.87V35.73a6.76,6.76,0,0,1,6.55,1.74L171.83,82.4a6.69,6.69,0,0,1,1.67,2.73Z"/><path class="cls-3" d="M100.92,68.23a2.84,2.84,0,0,0-4,0,2.85,2.85,0,0,0,0,4,2.85,2.85,0,0,0,4-4Z"/><path class="cls-3" d="M38.69,152.25a2.84,2.84,0,1,0,.84,2A2.85,2.85,0,0,0,38.69,152.25Z"/><path class="cls-3" d="M70,157.7a2.85,2.85,0,0,0-4,0L53,170.62a2.85,2.85,0,0,0,4,4L70,161.73A2.85,2.85,0,0,0,70,157.7Z"/></g></g></svg>