<svg xmlns="http://www.w3.org/2000/svg" viewBox="0 0 206.89 206.89"><defs><style>.cls-1{fill:#002546;stroke:#0078c1;stroke-miterlimit:10;stroke-width:8px;}.cls-2{fill:#fff;}</style></defs><g id="Слой_2" data-name="Слой 2"><g id="Слой_1-2" data-name="Слой 1"><rect class="cls-1" x="4" y="4" width="198.89" height="198.89" rx="34.02"/><path class="cls-2" d="M166.34,3H148.63a2.68,2.68,0,0,0,0,5.36h15v3.24l-36.9,10.55L114.51,8.37h21.57a2.68,2.68,0,0,0,0-5.36H39.17a2.68,2.68,0,0,0-2.68,2.68v8a2.68,2.68,0,0,0,1.94,2.58L78,27.51l2.88,4.29a2.68,2.68,0,0,0,4.46-3L83,25.43,98.18,8.37h9.15l15.16,17.06L108.91,45.64H96.6l-4.3-6.39a2.68,2.68,0,0,0-4.45,3l4.47,6.66L88.47,68.76h-1.1a4.82,4.82,0,0,0-4.63,3.4l-2.26,7.23a4.85,4.85,0,0,0,4.63,6.3h.07l-14,71.95a2.68,2.68,0,0,0,.87,2.53L101,185.46a2.66,2.66,0,0,0,1.76.66,2.7,2.7,0,0,0,1.77-.66l28.9-25.29a2.68,2.68,0,0,0,.87-2.53L120.56,86.92a2.68,2.68,0,0,0-5.26,1l3.6,18.56-33.37,5.56,5.12-26.37H97a8.47,8.47,0,1,0,0-16.93h-3L97.38,51h10.75l4.77,24.62a2.69,2.69,0,0,0,2.63,2.17,3.05,3.05,0,0,0,.52-.05,2.69,2.69,0,0,0,2.12-3.15l-5-25.69,14.38-21.39,39.52-11.29A2.68,2.68,0,0,0,169,13.64V5.69A2.68,2.68,0,0,0,166.34,3ZM78.75,22.16,41.85,11.61V8.37H91Zm1,119.41,44.47-7.41,1.15,5.94-46.85,7.8Zm43.44-12.67-42.35,7,1.23-6.32,40-6.67Zm-20.49,51-26-22.73.7-3.63,49-8.16,2.29,11.79Zm17.17-68.11,1.15,5.93L83.21,124l1.23-6.33ZM100.07,77.22a3.1,3.1,0,0,1-3.1,3.1H85.81l1.94-6.19H97A3.1,3.1,0,0,1,100.07,77.22Z"/></g></g></svg>