<svg xmlns="http://www.w3.org/2000/svg" xmlns:xlink="http://www.w3.org/1999/xlink" viewBox="0 0 215.15 215.15"><defs><style>.cls-1{fill:url(#Безымянный_градиент_11);}.cls-2{fill:url(#Безымянный_градиент_11-2);}.cls-3{fill:url(#Безымянный_градиент_11-3);}.cls-4{fill:url(#Безымянный_градиент_11-4);}.cls-5{fill:url(#Безымянный_градиент_11-5);}.cls-6{fill:url(#Безымянный_градиент_11-6);}.cls-7{fill:url(#Безымянный_градиент_11-7);}</style><linearGradient id="Безымянный_градиент_11" y1="144.41" x2="215.15" y2="144.41" gradientUnits="userSpaceOnUse"><stop offset="0" stop-color="#fff359"/><stop offset="0.01" stop-color="#fce958"/><stop offset="0.07" stop-color="#f0c756"/><stop offset="0.12" stop-color="#e7ac54"/><stop offset="0.17" stop-color="#e19953"/><stop offset="0.23" stop-color="#dd8e52"/><stop offset="0.29" stop-color="#dc8a52"/><stop offset="0.7" stop-color="#d46d50"/><stop offset="1" stop-color="#cf584f"/></linearGradient><linearGradient id="Безымянный_градиент_11-2" x1="79.25" y1="28.01" x2="97.25" y2="28.01" xlink:href="#Безымянный_градиент_11"/><linearGradient id="Безымянный_градиент_11-3" x1="102.54" y1="37.46" x2="120.54" y2="37.46" xlink:href="#Безымянный_градиент_11"/><linearGradient id="Безымянный_градиент_11-4" x1="55.95" y1="37.46" x2="73.96" y2="37.46" xlink:href="#Безымянный_градиент_11"/><linearGradient id="Безымянный_градиент_11-5" x1="55.98" y1="77.88" x2="64.38" y2="77.88" xlink:href="#Безымянный_градиент_11"/><linearGradient id="Безымянный_градиент_11-6" x1="129.34" y1="136.8" x2="156.32" y2="136.8" xlink:href="#Безымянный_градиент_11"/><linearGradient id="Безымянный_градиент_11-7" x1="115.53" y1="169.85" x2="124.04" y2="169.85" xlink:href="#Безымянный_градиент_11"/></defs><g id="Слой_2" data-name="Слой 2"><g id="Слой_1-2" data-name="Слой 1"><path class="cls-1" d="M210.94,86.77H176.49V77.88a4.2,4.2,0,0,0-4.2-4.2H81.52a4.2,4.2,0,1,0,0,8.4h86.56V114.3a80.06,80.06,0,0,1-39.5,68.91H47.91A80.05,80.05,0,0,1,8.4,114.3V82.08H36.56a4.2,4.2,0,0,0,0-8.4H4.2A4.2,4.2,0,0,0,0,77.88V114.3a88.09,88.09,0,0,0,33.14,68.91H4.2a4.2,4.2,0,0,0-4.2,4.2,27.76,27.76,0,0,0,27.73,27.74H158.84a27.76,27.76,0,0,0,27.73-27.74,4.2,4.2,0,0,0-4.2-4.2h-39a88.78,88.78,0,0,0,19.46-21.71h11.86A40.53,40.53,0,0,0,215.15,121V91A4.2,4.2,0,0,0,210.94,86.77ZM177.71,191.62a19.37,19.37,0,0,1-18.87,15.12H27.73A19.37,19.37,0,0,1,8.86,191.62H177.71Zm-1.22-77.32V112h13.44v9a15.28,15.28,0,0,1-15.26,15.27h-1A88.25,88.25,0,0,0,176.49,114.3ZM206.74,121a32.11,32.11,0,0,1-32.07,32.08h-7.15a86.27,86.27,0,0,0,3.58-8.41h3.57A23.7,23.7,0,0,0,198.34,121V107.78a4.2,4.2,0,0,0-4.2-4.2H176.49v-8.4h30.25Z"/><path class="cls-2" d="M92.26,23.26l-2.19-2.75a11,11,0,0,1,0-13.7,4.2,4.2,0,1,0-6.58-5.22,19.32,19.32,0,0,0,0,24.16l2.18,2.74a14.32,14.32,0,0,1,0,17.9l-2.24,2.82A4.2,4.2,0,1,0,90,54.44l2.24-2.83A22.68,22.68,0,0,0,92.26,23.26Z"/><path class="cls-3" d="M115.55,32.7,113.36,30a11,11,0,0,1,0-13.7A4.2,4.2,0,0,0,106.77,11a19.32,19.32,0,0,0,0,24.16L109,37.94a14.32,14.32,0,0,1,0,17.9l-2.24,2.82a4.2,4.2,0,1,0,6.58,5.23l2.24-2.83A22.69,22.69,0,0,0,115.55,32.7Z"/><path class="cls-4" d="M69,32.7,66.78,30a11,11,0,0,1,0-13.7A4.2,4.2,0,0,0,60.18,11a19.34,19.34,0,0,0,0,24.16l2.19,2.74a14.33,14.33,0,0,1,0,17.9l-2.24,2.82a4.2,4.2,0,1,0,6.58,5.23L69,61.06A22.68,22.68,0,0,0,69,32.7Z"/><path class="cls-5" d="M63.15,74.91a4.2,4.2,0,1,0,1.23,3A4.24,4.24,0,0,0,63.15,74.91Z"/><path class="cls-6" d="M152.12,110.09a4.22,4.22,0,0,0-4.21,4.21,60.21,60.21,0,0,1-17.35,42.05,4.2,4.2,0,0,0,6,5.92,68.68,68.68,0,0,0,19.8-48A4.21,4.21,0,0,0,152.12,110.09Z"/><path class="cls-7" d="M123.49,167.76a4.2,4.2,0,0,0-5.72-1.6l-.1.06a4.2,4.2,0,0,0,2.07,7.86,4.26,4.26,0,0,0,2.06-.54l.1-.06A4.2,4.2,0,0,0,123.49,167.76Z"/></g></g></svg>