<svg xmlns="http://www.w3.org/2000/svg" xmlns:xlink="http://www.w3.org/1999/xlink" viewBox="0 0 144.6 214.96"><defs><style>.cls-1{fill-rule:evenodd;fill:url(#Безымянный_градиент_11);}</style><linearGradient id="Безымянный_градиент_11" y1="107.48" x2="144.6" y2="107.48" gradientUnits="userSpaceOnUse"><stop offset="0" stop-color="#fff359"/><stop offset="0.01" stop-color="#fce958"/><stop offset="0.07" stop-color="#f0c756"/><stop offset="0.12" stop-color="#e7ac54"/><stop offset="0.17" stop-color="#e19953"/><stop offset="0.23" stop-color="#dd8e52"/><stop offset="0.29" stop-color="#dc8a52"/><stop offset="0.7" stop-color="#d46d50"/><stop offset="1" stop-color="#cf584f"/></linearGradient></defs><g id="Слой_2" data-name="Слой 2"><g id="Слой_1-2" data-name="Слой 1"><path class="cls-1" d="M28.57,193.1c2.62.16,6.56.41,8.75.57s5.16.33,6.61.39c9.51.4,10.1.5,10.1,1.69v.75h-1.5c-2.8,0-30.35-1.61-32-1.86-.71-.12-.73-.14-.73-1v-.85h2C22.91,192.81,26,192.94,28.57,193.1Zm2.14-8.56c8.31.46,22,1.52,22.3,1.72.46.34.31,1.49-.19,1.49-1.76,0-17.53-.8-19-1-1-.11-4.44-.33-7.62-.49-6.66-.33-6.38-.28-6.38-1.28v-.75h3C24.42,184.26,28,184.39,30.71,184.54Zm-4.08-8.84c2.3.21,6.58.52,9.52.68,6.54.37,10.38.65,12.05.89a21.13,21.13,0,0,0,2.47.18c1.28,0,1.61.24,1.61,1.13,0,.72-2,.7-12.53-.15-2.57-.21-7.95-.56-12-.79-8.7-.49-8.11-.4-8.27-1.24C19.28,175.13,19.8,175.08,26.63,175.7Zm-1.85-8.93c1.07.11,3.34.28,5,.39s5.32.41,8,.67,6.5.58,8.46.68c5.27.27,5.2.25,5.2,1.29v.85h-.88c-.48,0-5.58-.35-11.32-.77s-12.11-.86-14.14-1c-5.73-.3-6.08-.4-5.82-1.63C19.57,166.26,19.51,166.26,24.78,166.77Zm9.14-7.86c5.23.48,10.61,1,11.95,1.07,4.09.33,4.12.34,4.4,1.3.21.74.2.82-.09.82-.65,0-8.12-.58-8.78-.68-.38,0-4.31-.41-8.75-.78s-9.19-.81-10.56-1l-2.58-.29a2.32,2.32,0,0,1-.07-.8v-.81l2.47.13C23.28,158,28.68,158.43,33.92,158.91Zm-1.87-8.75c19.08,1.69,17.71,1.48,17.71,2.76v.69l-2.38-.12c-1.31-.07-4.18-.34-6.37-.61s-5.21-.57-6.71-.68c-6.74-.5-12.48-1-14.33-1.3-.82-.12-1.2-1.82-.4-1.82C19.74,149.08,25.36,149.57,32.05,150.16Zm-.62-8.66,14.24,1.36c3.41.31,3.31.27,3.31,1.28V145H48c-1.67,0-13.58-1.15-19.27-1.86-3.05-.38-6.45-.76-7.55-.84-2.19-.16-2.36-.26-2.36-1.33C18.85,140.19,17.22,140.12,31.43,141.5Zm0-8.64c13.47,1.41,16.22,1.74,16.42,2a2.65,2.65,0,0,1,.26.92l.12.76L46,136.37c-1.22-.07-3.07-.26-4.13-.42s-2.7-.38-3.66-.48l-3.4-.37-8.16-.87c-8.58-.9-7.78-.72-7.78-1.77,0-.57.09-.87.25-.87S24.76,132.16,31.39,132.86Zm-7.58-9.6c2.9.44,4.37.62,14,1.73,3.85.45,7.57.91,8.26,1l1.27.22.06.83.06.82H46.18c-.69,0-3.08-.26-5.31-.57s-7.93-1-12.69-1.57-8.84-1-9.08-1.09c-.39-.07-.44-.2-.44-1.07v-1l1.31.14C20.69,122.82,22.42,123.05,23.81,123.26Zm3-8.18c11.37,1.45,15.25,1.93,17.26,2.13,2.23.23,2.57.39,2.57,1.25,0,1-.37,1.18-1.91.92-.71-.12-1.83-.27-2.47-.33s-1.6-.2-2.13-.3-4.34-.61-8.46-1.14c-7.89-1-11.86-1.56-12.58-1.69-.5-.09-.69-1.82-.2-1.82C19,114.1,22.6,114.54,26.82,115.08Zm96.7-1-5.54.83c-2.73.41-5.53.81-6.22.88s-2.32.29-3.6.49-3.73.51-5.44.68c-4.41.44-4.43.45-4.65,1.31-.33,1.32.36,1.57,2.8,1,.7-.16,2.1-.37,3.11-.48,6.7-.71,19.79-2.51,21.43-3,.7-.19.73-.23.73-1.07v-.86l-1,0C124.56,114,123.84,114,123.52,114Zm-99.47-8.19c2.11.26,5.46.74,7.44,1.05s5.78.89,8.45,1.28,5.06.74,5.3.79.43.21.43,1v.87H44.55a106.56,106.56,0,0,1-11.26-1.54c-2.54-.42-5.45-.86-6.47-1-2.74-.34-8.2-1.17-8.39-1.29a1.59,1.59,0,0,1-.16-.87v-.76h1C19.77,105.36,21.93,105.58,24.05,105.85Zm100.34-.55c-.37,0-3.52.51-7,1s-8.54,1.27-11.27,1.65-5.5.79-6.17.9l-1.22.21V110c0,1.14.15,1.25,1.32,1,1.87-.41,22.74-3.5,25.41-3.76.56-.05.58-.1.64-1.08C126.17,105.05,126.26,105.09,124.39,105.3ZM23,97.09c5.22.69,12.31,1.8,15,2.35,1.28.26,3.2.56,4.27.68,2.7.28,2.63.25,2.63,1.27v.86H44a38.74,38.74,0,0,1-4-.58c-1.75-.32-6.81-1.11-11.24-1.75s-8.64-1.28-9.33-1.42l-1.27-.25-.06-.82C18,96.41,17.94,96.42,23,97.09Zm102.37-.73c-.27,0-1.53.29-2.82.54s-4,.7-5.93,1c-17.54,2.43-17.09,2.34-17.09,3.54s.32,1.24,3,.66c1-.21,2.57-.47,3.59-.59,5.41-.62,12.31-1.67,17.54-2.66l2.67-.5v-1c0-.72-.07-1-.24-1Zm-3.69-8c-2.4.37-5.64.89-7.19,1.17s-3.87.66-5.15.86a74.46,74.46,0,0,0-8.6,1.59c-.52.42-.2,2,.35,1.82.15,0,2.73-.45,5.72-.88S115,91.63,118.46,91s6.64-1.2,7.14-1.28l.93-.13v-1c0-.65-.08-.95-.24-.94S124.08,88,121.67,88.37Zm-99,0C24,88.6,26,88.91,27,89s4.86.78,8.55,1.45,7.08,1.29,7.53,1.36l.83.13v1.77l-1.32-.14c-.72-.07-5.68-.87-11-1.78l-11.4-1.91c-2.06-.32-2.1-.35-2.1-1.26C18.08,87.5,17.88,87.51,22.64,88.36Zm3.26-8.19c6.55,1.1,13.39,2.39,15.5,2.91l1.65.41.06.86.06.85-1-.1c-1.43-.14-14-2.36-17.55-3.1-1.61-.34-3.71-.75-4.67-.93l-1.75-.31-.06-.85-.06-.85,1.37.13C20.18,79.26,23.09,79.7,25.9,80.17Zm96.55-.55c-2.09.37-7.16,1.24-11.28,1.94s-7.61,1.3-7.77,1.35l-1.12.29c-.81.21-.82.22-.82,1.08,0,.49.09.87.21.87,1.45,0,21.62-3.58,24.13-4.29.68-.19,1.22-2,.58-1.92ZM26.63,71.74c16.89,3.25,15.74,3,15.74,4.17,0,.48-.07.88-.15.88S36.66,75.71,30,74.4L18,72l-.06-.85-.06-.84,1.32.12C19.91,70.51,23.26,71.09,26.63,71.74ZM122,70.87c-1.5.36-4,.88-5.64,1.15s-5.43,1-8.5,1.6l-5.59,1.11v2.08l.73-.13,9.49-1.84c4.82-.94,9.94-1.91,11.37-2.14,2.87-.47,3.15-.63,3.06-1.74l-.06-.68-1.07,0A17.49,17.49,0,0,0,122,70.87ZM24.13,62.63c3,.65,8.17,1.73,11.43,2.39,6.53,1.32,6.28,1.21,6.07,2.68-.1.68-.29.68-3.05.06C32.92,66.47,23.69,64.5,20.92,64c-3.31-.62-3.42-.67-3.42-1.82C17.49,61.19,17.45,61.19,24.13,62.63Zm97.54-.3c-2.51.58-5.57,1.24-6.8,1.46s-3.93.78-6,1.25-4.21.9-4.7,1c-1,.14-1.13.35-1.14,1.59,0,.58,0,.62.54.53,2-.36,11-2.17,15-3l6.32-1.29c2.07-.41,2.23-.51,2.23-1.4C127.11,61,127.4,61,121.67,62.33Zm2-9.16c-1.18.25-3.19.72-4.47,1s-4.43,1-7,1.58c-8.55,1.83-8.3,1.74-8.22,3l.06.88,9-1.89c14.51-3,14-2.89,14-4.18C127.11,52.5,127,52.48,123.71,53.17Zm-102.33.22c1.66.37,4.37,1,6,1.35s4.33,1,5.93,1.36,3.92.88,5.15,1.12l2.24.43.06,1.05.06,1-.94-.12A25,25,0,0,1,37.22,59c-2.09-.58-13.56-3.26-16.77-3.91s-3-.57-3-1.58S17.42,52.48,21.38,53.39Zm105-9.31c-3.5.58-20,4.46-21.1,5-.4.19-.47.35-.47,1.14v.92l1.12-.26c11.81-2.75,17.23-4,18-4.26.54-.15,1.48-.38,2.09-.5l1.12-.22v-1c0-.53-.06-.95-.14-.94ZM22,44.84c1.45.38,3.41.85,4.38,1.06,4.29.9,13.15,3.08,13.41,3.3a1.49,1.49,0,0,1,.29,1V51L39,50.89c-.59-.06-2.57-.51-4.42-1s-5.55-1.37-8.22-2-5.78-1.31-6.9-1.6l-2-.54-.07-.95-.06-1,1,.14C18.87,44.1,20.52,44.47,22,44.84Zm103.3-9.43c-.74.21-5.34,1.39-10.2,2.63-9.88,2.51-9.72,2.45-9.72,3.64s-.46,1.33,7.1-.78c2.13-.6,5.9-1.55,8.35-2.11,6-1.38,6.55-1.57,6.76-2.37C127.9,35,127.41,34.82,125.26,35.41ZM21.19,36c1.76.44,3.81,1,4.56,1.19s4,1.08,7.29,1.92L39,40.59l.06.93.06.93-.94-.13a29.27,29.27,0,0,1-3-.7c-1.12-.31-4.88-1.27-8.36-2.13s-7.08-1.78-8-2.07l-1.7-.53v-1c0-.89,0-1,.44-.86ZM126.63,26.4c-2.82.63-5,1.2-7.68,2-1.77.52-5,1.44-7.19,2.05-5.55,1.55-5.45,1.5-5.45,2.54s.3,1.18,2.35.56c.9-.27,3.17-.87,5-1.34,3.64-.92,10-2.72,12.49-3.53l1.5-.5v-1C127.69,26.21,127.64,26.17,126.63,26.4ZM24.24,28.12c3.72,1,7.42,2.07,8.22,2.33s2.11.6,2.91.76c2.54.52,3.11.81,3.11,1.56,0,1.59,0,1.59-4.88.11-2.07-.63-6.08-1.76-8.92-2.51s-5.74-1.55-6.46-1.79l-1.31-.43v-.81C16.91,26,16.1,25.88,24.24,28.12ZM25.81,20c4.57,1.28,9,2.57,10,2.87l1.65.54.06.92c.09,1.34.08,1.34-10.16-1.79-3.1-.94-6.29-1.87-7.1-2-2.86-.66-3.49-1-3.49-1.83C16.72,17.39,16,17.27,25.81,20Zm93.82-.26c-4.38,1.2-8.54,2.41-9.23,2.67s-1.66.61-2.14.76c-.86.26-.88.28-.94,1.17-.08,1.35-.12,1.36,18.58-4.26,1.8-.54,2.2-.95,1.87-2l-.17-.55ZM21.24,10.13c4.52,1.47,9.15,2.9,12,3.7,3.48,1,3.49,1,3.49,2s-.38,1.14-2,.58c-.47-.17-3-1-5.62-1.76s-6.49-2-8.6-2.73l-3.83-1.28V9.82C16.72,8.68,16.85,8.69,21.24,10.13ZM126.82,9a22.16,22.16,0,0,0-2.24.68c-.8.3-3.51,1.14-6,1.88-10.5,3.08-10.69,3.15-10.69,4.45v.76h.81c.54,0,4-1,9.92-3l9.09-3v-1a5.62,5.62,0,0,0,0-.94A8,8,0,0,1,126.82,9ZM10.74,9.08l-.83.49V215h1.95V111.77c0-56.76-.07-103.19-.15-103.19A5.1,5.1,0,0,0,10.74,9.08Zm3.57-7.26a12.89,12.89,0,0,0-1.25,1.5,14.92,14.92,0,0,1-5,4.56,60.09,60.09,0,0,1-7.36,4L0,12.14V215H1.17V12.89l1-.69c.57-.38,2.51-1.48,4.3-2.46,5.07-2.74,5.17-2.82,7.71-6A5.67,5.67,0,0,1,15.31,2.6c.19-.06.25,20.91.29,104.15L15.65,211l5.58.17a39.41,39.41,0,0,1,5.59.35,3.64,3.64,0,0,1-1.07,1.71,4.26,4.26,0,0,0-1.07,1.64c0,.06,22.26.11,49.47.11s49.46-.07,49.46-.16a10.5,10.5,0,0,0-2-2.81c-1-1-1.85-1.22-4.71-1-2.45.18-2.65.11-2.65-1,0-1.5-.12-1.7-1.29-2.15l-1.07-.41H75.25c-20.17,0-37.1.09-37.63.17a2.11,2.11,0,0,0-1.95,2.1c-.16,1.21-.33,1.46-.9,1.38-.88-.12-.68-3,.28-4,.71-.77,1.11-.87,4-1l2.78-.14,2-1.93a39,39,0,0,1,12.47-7.5l1.67-.62c.44-.17.56-3.07.77-18,.09-6.65.25-14.58.35-17.62s.29-13.06.41-22.25.34-23.23.49-31.19.33-18.15.39-22.64.25-13.37.42-19.73c.35-13.22.4-29.56.1-33.42-.6-7.69-3.44-12.72-9.13-16.16C47.1,12,44.86,11.09,24.1,4.1c-4.54-1.52-8.4-2.89-8.56-3S15.1,1,14.31,1.82ZM127.11.41a53.38,53.38,0,0,1-5.54,2L110.79,5.77c-3.16,1-6.66,2.08-7.78,2.4C95.68,10.23,88.26,13.8,85,16.86S80.3,22.9,79.53,29L79.2,31.6l-1,.16c-.52.09-3.57.13-6.77.1-6.61-.07-6.23,0-6.45-1.77-.75-6-1.63-8.75-3.69-11.37a29.06,29.06,0,0,0-8.08-6.14c-.48-.2-1.79-.78-2.91-1.29a24.15,24.15,0,0,0-4.21-1.55c-.43,0,.2.45,1.25.88,9.57,4,14.07,8.15,15.67,14.49,1,4.05,1-.19,1,87.1,0,48.07.13,81.37.23,81.37a2.46,2.46,0,0,0,.76-.48c3.31-2.79,11.57-3.08,15.68-.56,2.33,1.43,2.77,1.62,4.28,1.91,2.16.42,3.59.86,3.59,1.11s-.33.2-3.6-.3c-9.14-1.4-19.3-.65-26.29,1.94-5.56,2.06-14,7.19-14,8.49,0,.31,1.95.33,30.81.33,28.14,0,30.8,0,30.8-.31,0-.65-2.64-3-5.68-4.94l-3.06-2v-2.63l1-.1c.56-.06,4.3-.24,8.31-.41,6.67-.27,15.53-.79,17-1,.71-.1.89-.41.72-1.27l-.13-.61-4.39.13c-4.93.14-13,.6-15.76.9a51.18,51.18,0,0,1-6.88.17s0-1.45,0-3.13l.1-3.06.61-.1c1.12-.18,8.72-.68,16.25-1.07,10.93-.56,10.49-.49,10.49-1.68s-1.27-1.11-18.85.23c-3.58.27-7,.49-7.63.48H97.37v-3.19c0-3.68-.15-3.42,2.11-3.42.82,0,2.81-.13,4.43-.28s5.37-.42,8.35-.59c12.33-.69,12.91-.79,12.91-2.18v-.9l-3.45.13c-1.9.07-4.59.26-6,.42-2.51.28-5,.5-10,.87-1.44.1-3.82.3-5.29.43-2.1.18-2.73.18-2.91,0s-.43-2.52-.26-4.61-.2-1.77,4-2,7.68-.54,11.18-.89c1.6-.16,5-.42,7.52-.58,5.1-.32,5.16-.33,5.32-1,.39-1.55.53-1.54-13.91-.38-4.65.37-9.65.74-11.11.81l-2.65.12-.14-1.7c-.16-1.93,0-4.32.23-4.59a18.18,18.18,0,0,1,3.28-.38c1.7-.1,3.37-.24,3.71-.29,1.48-.25,6.44-.7,11.63-1.06,3.1-.21,6.33-.48,7.18-.59s1.61-.19,1.7-.19.16-.45.16-1v-1l-2.09.14c-1.15.07-4.27.34-7,.6l-8.16.76c-1.82.16-4.7.44-6.41.61-3.76.38-4.22.35-4.4-.31-.25-.91-.19-5.38.07-5.59.49-.38,4.84-.91,11.52-1.41,1.6-.12,5.35-.47,8.33-.79s5.91-.57,6.51-.57c1.53,0,1.89-.35,1.64-1.58l-.12-.61-2,.13c-1.09.07-3.41.3-5.17.51s-4.55.48-6.21.58-4.72.42-6.8.69-4.68.54-5.76.61l-2,.12.1-3.09c0-1.7.13-3.12.16-3.16s19.3-2.15,24.09-2.57c4-.35,4.16-.44,3.89-1.86l-.13-.68-1.49.13c-.82.06-2.76.28-4.31.48s-3.7.42-4.77.49c-3,.2-7.76.65-10,1-8.44,1.16-7.65,1.39-7.73-2.28-.08-3.32.21-3.63,3.44-3.64a13.72,13.72,0,0,0,2.21-.28c1.23-.26,5.81-.78,10.93-1.25,1.17-.1,3.36-.32,4.86-.49l4.61-.47c2.23-.2,2.48-.36,2.48-1.53v-.88l-1.31.13c-.72.08-2,.26-2.87.41-2,.36-6.09.8-9.72,1.07-1.6.11-3.09.25-3.3.29-.74.17-9.26,1.06-10.08,1.06-1.2,0-1.29-.17-1.29-2.51,0-3.55.09-3.71,2-3.9.78-.08,3-.37,5-.65,3-.42,16.72-2,20.31-2.41,1.26-.13,1.46-.31,1.46-1.36v-.87l-1.32.13c-1.38.13-5.1.61-14.72,1.87-13.72,1.8-12.38,1.73-12.57.67-.08-.43-.14-19.34-.14-42,0-26.2-.07-41.37-.19-41.59a75.45,75.45,0,0,0-6.43-6.25,10.52,10.52,0,0,0-6-2.35c-1.38,0-1.31-.52-1.42,9.62-.06,5.15-.24,11.12-.42,13.69s-.39,7.5-.5,11.08c-.23,7.61-.52,14.35-.67,15.45-.05.43-.19,4.41-.3,8.84-.27,10.57-.67,17-1,15.65-.21-.9-.2-65.2,0-71,.38-10.77,2.25-14.95,8.55-19.16,3.88-2.59,12.22-6,19.44-8,4.19-1.17,6.31-1.81,10.79-3.26,4.77-1.56,8.89-2.78,9.34-2.78.24,0,.28,14.55.28,105.91V215h4.08V112c0-64.48.07-103,.18-103a1.83,1.83,0,0,1,.68.43l.49.44.09,102.51c.05,56.38.09,102.54.1,102.56s2.33.05,5.16.05h5.15V12.35l-.92-.45c-1.07-.52-8.4-4.72-9.32-5.35a34.83,34.83,0,0,1-4.68-5.39C128.87-.09,128.09-.31,127.11.41Z"/></g></g></svg>