<svg xmlns="http://www.w3.org/2000/svg" xmlns:xlink="http://www.w3.org/1999/xlink" viewBox="0 0 160.78 149.44"><defs><style>.cls-1{fill:url(#Безымянный_градиент_11);}.cls-2{fill:url(#Безымянный_градиент_11-2);}.cls-3{fill:url(#Безымянный_градиент_11-3);}.cls-4{fill:url(#Безымянный_градиент_11-4);}</style><linearGradient id="Безымянный_градиент_11" y1="74.72" x2="160.78" y2="74.72" gradientUnits="userSpaceOnUse"><stop offset="0" stop-color="#fff359"/><stop offset="0.01" stop-color="#fce958"/><stop offset="0.07" stop-color="#f0c756"/><stop offset="0.12" stop-color="#e7ac54"/><stop offset="0.17" stop-color="#e19953"/><stop offset="0.23" stop-color="#dd8e52"/><stop offset="0.29" stop-color="#dc8a52"/><stop offset="0.7" stop-color="#d46d50"/><stop offset="1" stop-color="#cf584f"/></linearGradient><linearGradient id="Безымянный_градиент_11-2" x1="106.86" y1="62.49" x2="131.23" y2="62.49" xlink:href="#Безымянный_градиент_11"/><linearGradient id="Безымянный_градиент_11-3" x1="51.81" y1="125.25" x2="108.98" y2="125.25" xlink:href="#Безымянный_градиент_11"/><linearGradient id="Безымянный_градиент_11-4" x1="51.81" y1="108.34" x2="108.98" y2="108.34" xlink:href="#Безымянный_градиент_11"/></defs><g id="Слой_2" data-name="Слой 2"><g id="Слой_1-2" data-name="Слой 1"><path class="cls-1" d="M148.28,36.38H131.23v-31A5.36,5.36,0,0,0,125.87,0H34.92a5.36,5.36,0,0,0-5.36,5.36v31h-17A12.52,12.52,0,0,0,0,48.88V102.8a12.52,12.52,0,0,0,12.51,12.51h17v28.77a5.36,5.36,0,0,0,5.36,5.36h91a5.36,5.36,0,0,0,5.35-5.36V115.31h17.06a12.52,12.52,0,0,0,12.5-12.51V48.88A12.52,12.52,0,0,0,148.28,36.38Zm-108-25.66h80.23V36.38H40.28Zm80.23,128H40.28V94.87h80.23Zm29.56-35.92a1.79,1.79,0,0,1-1.79,1.79H131.22V89.51a5.35,5.35,0,0,0-5.35-5.36H34.92a5.36,5.36,0,0,0-5.36,5.36v15.08h-17a1.79,1.79,0,0,1-1.79-1.79V48.88a1.79,1.79,0,0,1,1.79-1.78H148.28a1.78,1.78,0,0,1,1.78,1.78V102.8Z"/><path class="cls-2" d="M125.87,57.13H112.22a5.36,5.36,0,0,0,0,10.72h13.65a5.36,5.36,0,0,0,0-10.72Z"/><path class="cls-3" d="M103.62,119.89H57.17a5.36,5.36,0,1,0,0,10.72h46.45a5.36,5.36,0,1,0,0-10.72Z"/><path class="cls-4" d="M103.62,103H57.17a5.36,5.36,0,0,0,0,10.72h46.45a5.36,5.36,0,0,0,0-10.72Z"/></g></g></svg>