<svg xmlns="http://www.w3.org/2000/svg" xmlns:xlink="http://www.w3.org/1999/xlink" viewBox="0 0 164.81 214.96"><defs><style>.cls-1{fill:url(#Безымянный_градиент_11);}.cls-2{fill:url(#Безымянный_градиент_11-2);}.cls-3{fill:url(#Безымянный_градиент_11-3);}</style><linearGradient id="Безымянный_градиент_11" x1="66.57" y1="67.09" x2="98.24" y2="98.75" gradientUnits="userSpaceOnUse"><stop offset="0" stop-color="#fff359"/><stop offset="0.01" stop-color="#fce958"/><stop offset="0.07" stop-color="#f0c756"/><stop offset="0.12" stop-color="#e7ac54"/><stop offset="0.17" stop-color="#e19953"/><stop offset="0.23" stop-color="#dd8e52"/><stop offset="0.29" stop-color="#dc8a52"/><stop offset="0.7" stop-color="#d46d50"/><stop offset="1" stop-color="#cf584f"/></linearGradient><linearGradient id="Безымянный_градиент_11-2" x1="75.62" y1="76.14" x2="81.46" y2="81.99" xlink:href="#Безымянный_градиент_11"/><linearGradient id="Безымянный_градиент_11-3" x1="6.76" y1="39.7" x2="158.02" y2="190.96" xlink:href="#Безымянный_градиент_11"/></defs><g id="Слой_2" data-name="Слой 2"><g id="Слой_1-2" data-name="Слой 1"><path class="cls-1" d="M82.4,105.31A22.39,22.39,0,1,0,60,82.92,22.38,22.38,0,0,0,82.4,105.31Zm0-38.38a16,16,0,1,1-16,16A16,16,0,0,1,82.4,66.93Z"/><path class="cls-2" d="M76,86.12a3.2,3.2,0,0,0,3.2-3.2,3.2,3.2,0,0,1,3.2-3.2,3.2,3.2,0,1,0,0-6.39,9.59,9.59,0,0,0-9.59,9.59A3.19,3.19,0,0,0,76,86.12Z"/><path class="cls-3" d="M43.06,49.52,6.26,43.39A5.37,5.37,0,0,0,0,48.69v67.43a5.38,5.38,0,0,0,5.37,5.37,6.54,6.54,0,0,0,.89-.07l36.8-6.14a7.12,7.12,0,0,0,6.45,6.45l-6.12,36.82a5.37,5.37,0,0,0,5.3,6.25H78.82v12.38L30.31,208.35a3.58,3.58,0,1,0,3.87,6l21.41-13.75H78.82v10.75a3.58,3.58,0,1,0,7.16,0V200.63h23.24l21.4,13.76a3.59,3.59,0,0,0,3.88-6L86,177.18V164.8h30.14a5.37,5.37,0,0,0,5.29-6.25l-6.13-36.8a7.14,7.14,0,0,0,6.45-6.45l36.81,6.12a6.67,6.67,0,0,0,.89.07,5.38,5.38,0,0,0,5.38-5.37V48.69a5.37,5.37,0,0,0-6.26-5.3l-36.8,6.13a7.13,7.13,0,0,0-6.45-6.44l6.11-36.82A5.37,5.37,0,0,0,116.12,0H48.69a5.37,5.37,0,0,0-5.3,6.26l6.13,36.8A7.12,7.12,0,0,0,43.06,49.52ZM66.73,193.46l12.09-7.77v7.77Zm31.34,0H86v-7.77ZM53.74,50.16h6.09a39.65,39.65,0,0,0-9.67,9.67V50.16Zm60.91,0v9.67A39.79,39.79,0,0,0,105,50.16Zm0,32.24A32.25,32.25,0,1,1,82.4,50.16,32.25,32.25,0,0,1,114.65,82.4Zm-3.59,32.25H105a40,40,0,0,0,9.68-9.66v9.66Zm-60.9,0V105a39.79,39.79,0,0,0,9.67,9.66ZM7.17,50.8l35.82,6V108L7.17,114ZM50.81,157.64l6-35.83H108l6,35.83ZM157.64,114l-35.83-6V56.77l35.83-6ZM114,7.17,108,43H56.77l-6-35.82Z"/></g></g></svg>