<svg xmlns="http://www.w3.org/2000/svg" viewBox="0 0 276.58 120.1"><defs><style>.cls-1{fill:#fff;}</style></defs><g id="Слой_2" data-name="Слой 2"><g id="Слой_1-2" data-name="Слой 1"><path class="cls-1" d="M108.36,117.21a4.54,4.54,0,0,0,3,1.2,3.26,3.26,0,0,0,3.34-2.86h-4.91V114h4.92a3.21,3.21,0,0,0-3.33-2.84,4.4,4.4,0,0,0-2.92,1.15l-.89-1.4a5.45,5.45,0,0,1,3.87-1.44,5,5,0,0,1,5.24,5.24,5.18,5.18,0,0,1-5.32,5.36,5.68,5.68,0,0,1-4-1.58Z"/><path class="cls-1" d="M148.08,109.67h1.86v4.17h1.33l2.41-4.17h2l-2.9,4.88v0l3.07,5.34h-2.11l-2.49-4.47h-1.33v4.47h-1.86Z"/><path class="cls-1" d="M191.17,109.5a5.47,5.47,0,0,1,3.79,1.4l-.9,1.38a4.55,4.55,0,0,0-2.8-1.08,3.3,3.3,0,0,0-3.44,3.52,3.43,3.43,0,0,0,3.46,3.67,4.38,4.38,0,0,0,3-1.3l1,1.35a5.51,5.51,0,0,1-4,1.66,5.3,5.3,0,0,1,0-10.6Z"/><path class="cls-1" d="M226.32,109.67h8.3v10.25h-1.86v-8.65h-4.58v8.65h-1.86Z"/><path class="cls-1" d="M271.28,109.5a5.17,5.17,0,0,1,5.3,5.22,5.3,5.3,0,1,1-10.6,0A5.17,5.17,0,0,1,271.28,109.5Zm0,8.89a3.49,3.49,0,0,0,3.38-3.67,3.38,3.38,0,1,0-6.76,0A3.49,3.49,0,0,0,271.28,118.39Z"/><path class="cls-1" d="M40.92,0C54.29,16.26,78.06,26,99.74,26.31c-.17,7-.28,11.67.14,18.75-27.81,1.67-57.72-10-75.41-31.54Z"/><path class="cls-1" d="M45,31.76s0,.94,0,.93a82.65,82.65,0,0,1-17.39-14.9S33.06,24.72,45,31.76Z"/><path class="cls-1" d="M46.58,32.79l.1.07c.82.47,1.64.92,2.47,1.37a99.39,99.39,0,0,0,25.56,9.51,92.32,92.32,0,0,0,23,2.19c.73,0,1.39-.06,2-.09L99.52,47a90.63,90.63,0,0,1-24.68-2.1,98.53,98.53,0,0,1-25.35-9.45c-1.16-.63-2.31-1.27-3.43-1.93l.06.83c1,.58,2,1.15,3,1.7a99.48,99.48,0,0,0,25.56,9.56,92.21,92.21,0,0,0,23,2.18l1.65-.08L99.21,49a90.36,90.36,0,0,1-24.37-2.11,97.9,97.9,0,0,1-25.35-9.5c-1.14-.61-2.25-1.24-3.35-1.89l.06.83c1,.57,1.95,1.13,2.95,1.67a99.17,99.17,0,0,0,25.56,9.59,91.37,91.37,0,0,0,23,2.19l1.35-.06-.2,1.2a90.63,90.63,0,0,1-24.06-2.13A97.25,97.25,0,0,1,49.49,39.2c-1.11-.6-2.19-1.21-3.27-1.85l.06.83c.95.56,1.9,1.1,2.87,1.63a98.52,98.52,0,0,0,25.56,9.63,90.9,90.9,0,0,0,23,2.19l1-.05-.19,1.2a90,90,0,0,1-23.76-2.14,97.53,97.53,0,0,1-25.36-9.58c-1.07-.58-2.13-1.19-3.17-1.81,0,.28,0,.56,0,.83.92.54,1.85,1.07,2.79,1.58a97.9,97.9,0,0,0,25.56,9.68,90.43,90.43,0,0,0,23,2.19l.74,0-.2,1.2a89.38,89.38,0,0,1-23.45-2.15,97.25,97.25,0,0,1-25.36-9.62q-1.56-.86-3.09-1.77l.06.83c.89.53,1.79,1,2.7,1.54a97.62,97.62,0,0,0,25.56,9.72,89.86,89.86,0,0,0,23,2.18h.43L98,56.6a89.25,89.25,0,0,1-23.15-2.16,97,97,0,0,1-25.36-9.66c-1-.56-2-1.14-3-1.73l.06.83c.86.51,1.74,1,2.62,1.5a97.7,97.7,0,0,0,25.56,9.76,89,89,0,0,0,23,2.18h.13l-.19,1.19a88.72,88.72,0,0,1-22.85-2.17,96.35,96.35,0,0,1-25.36-9.7c-1-.55-2-1.11-2.93-1.69l.06.83c.84.5,1.69,1,2.54,1.46A97.07,97.07,0,0,0,74.71,57a89.15,89.15,0,0,0,22.86,2.19l-.19,1.19a88.63,88.63,0,0,1-22.54-2.18,96.1,96.1,0,0,1-25.36-9.75c-1-.53-1.91-1.08-2.84-1.64,0,.28,0,.55,0,.83q1.22.72,2.46,1.41a96.48,96.48,0,0,0,25.56,9.85,88.65,88.65,0,0,0,22.56,2.2l-.19,1.19a88.16,88.16,0,0,1-22.24-2.19,95.83,95.83,0,0,1-25.36-9.79c-.93-.52-1.85-1.05-2.76-1.6l.06.83c.78.46,1.57.92,2.37,1.37a96.56,96.56,0,0,0,25.56,9.89A88,88,0,0,0,97,63l-.19,1.2A87.63,87.63,0,0,1,74.84,62a95.57,95.57,0,0,1-25.36-9.83c-.9-.51-1.8-1-2.68-1.56l.06.83,2.29,1.33a96.3,96.3,0,0,0,25.56,9.93,88,88,0,0,0,22,2.21l-.19,1.19a86.67,86.67,0,0,1-21.63-2.21,95.29,95.29,0,0,1-25.36-9.86c-.87-.5-1.74-1-2.6-1.52l.06.83,2.21,1.28a95.7,95.7,0,0,0,25.56,10,87.22,87.22,0,0,0,21.64,2.23l-.19,1.19a86.71,86.71,0,0,1-21.32-2.22,94.71,94.71,0,0,1-25.36-9.91c-.85-.48-1.68-1-2.51-1.47,0,.28,0,.55.05.83l2.13,1.24a95.45,95.45,0,0,0,25.56,10,86.7,86.7,0,0,0,21.34,2.23L95.86,70a85.74,85.74,0,0,1-21-2.22,94.46,94.46,0,0,1-25.36-10c-.82-.47-1.63-.94-2.43-1.43l.06.83,2,1.2A95.2,95.2,0,0,0,74.71,68.43a86.3,86.3,0,0,0,21,2.24l-.19,1.19a86.4,86.4,0,0,1-20.72-2.23,94.21,94.21,0,0,1-25.36-10c-.79-.45-1.57-.92-2.35-1.39l.06.83,2,1.15a95,95,0,0,0,25.56,10.1,86.38,86.38,0,0,0,20.73,2.24l-.19,1.19a86,86,0,0,1-20.41-2.23,93.66,93.66,0,0,1-25.36-10c-.76-.43-1.52-.88-2.27-1.34l.06.83,1.88,1.11A94.06,94.06,0,0,0,74.71,72.22a85.49,85.49,0,0,0,20.43,2.25L95,75.66a84.6,84.6,0,0,1-20.11-2.24A93.4,93.4,0,0,1,49.48,63.35c-.73-.42-1.46-.86-2.18-1.3L47,61.9S45.63,35.53,45.4,32C45.4,32,46.48,32.71,46.58,32.79Z"/><path class="cls-1" d="M.56,32.83c13.21,13.56,12,31,6.68,49.2.57.11,29.38-.35,30.86-.35,8-22.87-1.88-45.12-19.36-63.07C13.28,22.85,6,28.59.56,32.83Z"/><polygon class="cls-1" points="16.78 104.2 38.21 103.89 38.23 105.33 17.38 105.63 16.78 104.2"/><polygon class="cls-1" points="17.77 106.53 38.25 106.24 38.27 107.67 18.37 107.96 17.77 106.53"/><polygon class="cls-1" points="15.79 101.87 38.17 101.55 38.19 102.98 16.39 103.29 15.79 101.87"/><polygon class="cls-1" points="20.74 113.53 38.37 113.28 38.4 114.72 21.35 114.97 20.74 113.53"/><polygon class="cls-1" points="18.76 108.87 38.29 108.59 38.31 110.02 19.36 110.29 18.76 108.87"/><polygon class="cls-1" points="13.81 97.21 38.09 96.86 38.11 98.29 14.41 98.63 13.81 97.21"/><polygon class="cls-1" points="19.75 111.2 38.33 110.93 38.35 112.36 20.36 112.62 20.36 112.63 19.75 111.2"/><polygon class="cls-1" points="38.44 117.06 22.33 117.29 21.73 115.88 38.41 115.64 38.44 117.06"/><polygon class="cls-1" points="14.8 99.54 38.13 99.2 38.15 100.64 15.4 100.96 14.8 99.54"/><polygon class="cls-1" points="7.87 83.21 37.84 82.78 37.87 84.22 8.47 84.64 7.87 83.21"/><polygon class="cls-1" points="22.72 118.19 38.45 117.97 38.48 119.4 23.32 119.62 22.72 118.19"/><polygon class="cls-1" points="8.86 85.55 37.88 85.13 37.91 86.56 9.46 86.97 8.86 85.55"/><polygon class="cls-1" points="10.84 90.21 37.97 89.82 37.99 91.25 11.44 91.63 10.84 90.21"/><polygon class="cls-1" points="9.85 87.88 37.92 87.48 37.95 88.91 10.45 89.3 9.85 87.88"/><polygon class="cls-1" points="11.83 92.54 38.01 92.17 38.03 93.6 12.43 93.97 11.83 92.54"/><polygon class="cls-1" points="12.82 94.87 38.05 94.51 38.07 95.95 13.42 96.3 12.82 94.87"/><path class="cls-1" d="M41.78,65.91s.32,8.42-2.42,15.65c-.06,0-.11,37.66-.11,37.66a54.78,54.78,0,0,0,3.48-17.68C42.84,93.55,41.78,65.91,41.78,65.91Z"/><path class="cls-1" d="M10.27,60.18s.63-6.56-2.8-15.46C3.37,35.94,0,33.48,0,33.48Z"/><path class="cls-1" d="M35.66,40.52c4.1-1.69,6.18-2.72,9-7C35.38,28.2,24.37,15.25,24.37,15.25l-4.08,3.43S32.76,33.26,35.66,40.52Z"/><path class="cls-1" d="M44.87,34.39c-.8,2.07-4.53,5.32-8.83,6.91,5.32,9,5.85,23.88,5.85,23.88a39.63,39.63,0,0,0,4.54-2.83Z"/><path class="cls-1" d="M162.31,47h-4.12V65.8h4.12c2.77,0,4.28-1.27,4.28-5.23V52.25C166.59,48.28,165.08,47,162.31,47Z"/><path class="cls-1" d="M193.22,69.13h-5.08V86.64h5.08c2.77,0,4.43-1.27,4.43-5.23v-7C197.65,70.39,196,69.13,193.22,69.13Z"/><polygon class="cls-1" points="125.54 76.97 133.94 76.97 129.74 48.92 125.54 76.97"/><polygon class="cls-1" points="220.56 76.97 228.96 76.97 224.76 48.92 220.56 76.97"/><path class="cls-1" d="M107.72,26.88v77.35H275.14V26.88Zm28.91,67.69-1.5-10.07h-10.7l-1.51,10.07h-8l8.87-55.48h12.76l8.88,55.48ZM175.31,60c0,8.88-4.28,13.71-13,13.71h-4.12V94.57h-8.72V39.09h12.84c8.72,0,13,4.83,13,13.71Zm31.06,20.85c0,8.87-4.44,13.71-13.15,13.71H179.43V39.09h24.41V47h-15.7V61.2h5.08c8.71,0,13.15,4.84,13.15,13.71Zm25.28,13.71-1.5-10.07h-10.7l-1.51,10.07h-8l8.87-55.48h12.76l8.88,55.48ZM268.9,47h-9.11V94.57h-8.72V47H242V39.09H268.9Z"/></g></g></svg>