<svg xmlns="http://www.w3.org/2000/svg" xmlns:xlink="http://www.w3.org/1999/xlink" viewBox="0 0 214.96 196.6"><defs><style>.cls-1{fill:url(#Безымянный_градиент_11);}.cls-2{fill:url(#Безымянный_градиент_11-2);}.cls-3{fill:url(#Безымянный_градиент_11-3);}.cls-4{fill:url(#Безымянный_градиент_11-4);}</style><linearGradient id="Безымянный_градиент_11" x1="16.72" y1="79.69" x2="136.19" y2="79.69" gradientUnits="userSpaceOnUse"><stop offset="0" stop-color="#fff359"/><stop offset="0.01" stop-color="#fce958"/><stop offset="0.07" stop-color="#f0c756"/><stop offset="0.12" stop-color="#e7ac54"/><stop offset="0.17" stop-color="#e19953"/><stop offset="0.23" stop-color="#dd8e52"/><stop offset="0.29" stop-color="#dc8a52"/><stop offset="0.7" stop-color="#d46d50"/><stop offset="1" stop-color="#cf584f"/></linearGradient><linearGradient id="Безымянный_градиент_11-2" x1="49.46" y1="140.09" x2="201.73" y2="140.09" xlink:href="#Безымянный_градиент_11"/><linearGradient id="Безымянный_градиент_11-3" x1="125.33" y1="44.44" x2="214.96" y2="44.44" xlink:href="#Безымянный_градиент_11"/><linearGradient id="Безымянный_градиент_11-4" x1="0" y1="123.59" x2="142.79" y2="123.59" xlink:href="#Безымянный_градиент_11"/></defs><g id="Слой_2" data-name="Слой 2"><g id="Слой_1-2" data-name="Слой 1"><path class="cls-1" d="M36.05,143.06c-5.79-9.35-10-23.66-10-39A83,83,0,0,1,136.19,25.47L126.09,13.2A92.16,92.16,0,0,0,16.72,104.09c0,17,4.72,33,11.33,43.7Z"/><path class="cls-2" d="M189.83,83.59A83.06,83.06,0,0,1,57.69,169.25l-8.23,5.25a92.33,92.33,0,0,0,152.27-70.4,93.3,93.3,0,0,0-.59-10Z"/><path class="cls-3" d="M214.84,78.78c-1.16-5.5-23.91-37.6-23.91-37.6s19.33-18.68,20.61-20.89,6.17-7.18-.08-12.32-10.72-1.81-12.93.17L179.71,25S146,.46,140.44,0s-9.28,4.54-9.28,4.54l34.29,34.57L148.64,59l-15-4.38-8.3,5.11S141.81,66.87,145.07,71s7.56,17.87,7.56,17.87l7.91-4.16-3.69-18.09,19.07-15.18,32.7,35.86S216,84.29,214.84,78.78Z"/><path class="cls-4" d="M137.85,76.47a27.89,27.89,0,0,0-8-4.74c-41,39.81-92.07,83.64-103.19,85.05-4.23.31-6.89-.67-7.94-2.95-1.19-2.59-2.62-4.26.4-7.3l-8.63-19.26c-8.25,8.3-13.31,24.26-8.68,34.34,4,8.79,12.73,13.84,23.57,13.84.87,0,1.77,0,2.67-.09,22-1.64,93.42-69.52,114.79-90.27C142.78,85.09,141,79.38,137.85,76.47Z"/></g></g></svg>