<svg xmlns="http://www.w3.org/2000/svg" xmlns:xlink="http://www.w3.org/1999/xlink" viewBox="0 0 410.42 178.21"><defs><style>.cls-1{fill:url(#Безымянный_градиент_6);}.cls-2{fill:url(#Безымянный_градиент_6-2);}.cls-3{fill:url(#Безымянный_градиент_6-3);}.cls-4{fill:url(#Безымянный_градиент_6-4);}.cls-5{fill:url(#Безымянный_градиент_6-5);}.cls-6{fill:url(#Безымянный_градиент_6-6);}.cls-7{fill:url(#Безымянный_градиент_6-7);}.cls-8{fill:url(#Безымянный_градиент_6-8);}.cls-9{fill:url(#Безымянный_градиент_6-9);}.cls-10{fill:url(#Безымянный_градиент_6-10);}.cls-11{fill:url(#Безымянный_градиент_6-11);}.cls-12{fill:url(#Безымянный_градиент_6-12);}.cls-13{fill:url(#Безымянный_градиент_6-13);}.cls-14{fill:url(#Безымянный_градиент_6-14);}.cls-15{fill:url(#Безымянный_градиент_6-15);}.cls-16{fill:url(#Безымянный_градиент_6-16);}.cls-17{fill:url(#Безымянный_градиент_6-17);}.cls-18{fill:url(#Безымянный_градиент_6-18);}.cls-19{fill:url(#Безымянный_градиент_6-19);}.cls-20{fill:url(#Безымянный_градиент_6-20);}.cls-21{fill:url(#Безымянный_градиент_6-21);}.cls-22{fill:url(#Безымянный_градиент_6-22);}.cls-23{fill:url(#Безымянный_градиент_6-23);}.cls-24{fill:url(#Безымянный_градиент_6-24);}.cls-25{fill:url(#Безымянный_градиент_6-25);}.cls-26{fill:url(#Безымянный_градиент_6-26);}.cls-27{fill:url(#Безымянный_градиент_6-27);}.cls-28{fill:url(#Безымянный_градиент_6-28);}.cls-29{fill:url(#Безымянный_градиент_6-29);}.cls-30{fill:url(#Безымянный_градиент_6-30);}.cls-31{fill:url(#Безымянный_градиент_6-31);}.cls-32{fill:url(#Безымянный_градиент_6-32);}.cls-33{fill:url(#Безымянный_градиент_6-33);}.cls-34{fill:url(#Безымянный_градиент_6-34);}</style><linearGradient id="Безымянный_градиент_6" x1="159.4" y1="170.35" x2="173.2" y2="170.35" gradientUnits="userSpaceOnUse"><stop offset="0" stop-color="#009fe3"/><stop offset="1" stop-color="#005a9a"/></linearGradient><linearGradient id="Безымянный_градиент_6-2" x1="219.73" y1="170.35" x2="231.3" y2="170.35" xlink:href="#Безымянный_градиент_6"/><linearGradient id="Безымянный_градиент_6-3" x1="275.87" y1="170.35" x2="289.71" y2="170.35" xlink:href="#Безымянный_градиент_6"/><linearGradient id="Безымянный_градиент_6-4" x1="335.84" y1="170.35" x2="348.16" y2="170.35" xlink:href="#Безымянный_градиент_6"/><linearGradient id="Безымянный_градиент_6-5" x1="394.69" y1="170.35" x2="410.42" y2="170.35" xlink:href="#Безымянный_градиент_6"/><linearGradient id="Безымянный_градиент_6-6" x1="36.31" y1="33.55" x2="148.22" y2="33.55" xlink:href="#Безымянный_градиент_6"/><linearGradient id="Безымянный_градиент_6-7" x1="41.04" y1="37.46" x2="66.84" y2="37.46" xlink:href="#Безымянный_градиент_6"/><linearGradient id="Безымянный_градиент_6-8" x1="67.37" y1="79.88" x2="147.96" y2="79.88" xlink:href="#Безымянный_градиент_6"/><linearGradient id="Безымянный_градиент_6-9" x1="0.84" y1="74.68" x2="60.71" y2="74.68" xlink:href="#Безымянный_градиент_6"/><linearGradient id="Безымянный_градиент_6-10" x1="24.9" y1="155.46" x2="56.74" y2="155.46" xlink:href="#Безымянный_градиент_6"/><linearGradient id="Безымянный_градиент_6-11" x1="26.37" y1="158.93" x2="56.8" y2="158.93" xlink:href="#Безымянный_градиент_6"/><linearGradient id="Безымянный_градиент_6-12" x1="23.43" y1="151.99" x2="56.68" y2="151.99" xlink:href="#Безымянный_градиент_6"/><linearGradient id="Безымянный_градиент_6-13" x1="30.77" y1="169.35" x2="56.98" y2="169.35" xlink:href="#Безымянный_градиент_6"/><linearGradient id="Безымянный_градиент_6-14" x1="27.84" y1="162.4" x2="56.86" y2="162.4" xlink:href="#Безымянный_градиент_6"/><linearGradient id="Безымянный_градиент_6-15" x1="20.49" y1="145.05" x2="56.56" y2="145.05" xlink:href="#Безымянный_градиент_6"/><linearGradient id="Безымянный_градиент_6-16" x1="29.3" y1="165.87" x2="56.92" y2="165.87" xlink:href="#Безымянный_градиент_6"/><linearGradient id="Безымянный_градиент_6-17" x1="32.25" y1="172.82" x2="57.04" y2="172.82" xlink:href="#Безымянный_градиент_6"/><linearGradient id="Безымянный_градиент_6-18" x1="21.96" y1="148.52" x2="56.62" y2="148.52" xlink:href="#Безымянный_градиент_6"/><linearGradient id="Безымянный_градиент_6-19" x1="11.68" y1="124.22" x2="56.19" y2="124.22" xlink:href="#Безымянный_градиент_6"/><linearGradient id="Безымянный_градиент_6-20" x1="33.71" y1="176.28" x2="57.1" y2="176.28" xlink:href="#Безымянный_градиент_6"/><linearGradient id="Безымянный_градиент_6-21" x1="13.15" y1="127.69" x2="56.26" y2="127.69" xlink:href="#Безымянный_градиент_6"/><linearGradient id="Безымянный_градиент_6-22" x1="16.08" y1="134.63" x2="56.38" y2="134.63" xlink:href="#Безымянный_градиент_6"/><linearGradient id="Безымянный_градиент_6-23" x1="14.62" y1="131.16" x2="56.32" y2="131.16" xlink:href="#Безымянный_градиент_6"/><linearGradient id="Безымянный_градиент_6-24" x1="17.55" y1="138.1" x2="56.44" y2="138.1" xlink:href="#Безымянный_градиент_6"/><linearGradient id="Безымянный_градиент_6-25" x1="19.02" y1="141.57" x2="56.5" y2="141.57" xlink:href="#Безымянный_градиент_6"/><linearGradient id="Безымянный_градиент_6-26" x1="58.24" y1="137.36" x2="63.41" y2="137.36" xlink:href="#Безымянный_градиент_6"/><linearGradient id="Безымянный_градиент_6-27" x1="0" y1="69.49" x2="15.3" y2="69.49" xlink:href="#Безымянный_градиент_6"/><linearGradient id="Безымянный_градиент_6-28" x1="30.1" y1="41.38" x2="66.21" y2="41.38" xlink:href="#Безымянный_градиент_6"/><linearGradient id="Безымянный_градиент_6-29" x1="53.49" y1="73.88" x2="68.9" y2="73.88" xlink:href="#Безымянный_градиент_6"/><linearGradient id="Безымянный_градиент_6-30" x1="234.74" y1="83.7" x2="247.2" y2="83.7" xlink:href="#Безымянный_градиент_6"/><linearGradient id="Безымянный_градиент_6-31" x1="279.19" y1="115.57" x2="293.3" y2="115.57" xlink:href="#Безымянный_градиент_6"/><linearGradient id="Безымянный_градиент_6-32" x1="186.29" y1="93.41" x2="198.75" y2="93.41" xlink:href="#Безымянный_градиент_6"/><linearGradient id="Безымянный_градиент_6-33" x1="327.29" y1="93.41" x2="339.76" y2="93.41" xlink:href="#Безымянный_градиент_6"/><linearGradient id="Безымянный_градиент_6-34" x1="159.85" y1="97.28" x2="408.29" y2="97.28" xlink:href="#Безымянный_градиент_6"/></defs><g id="Слой_2" data-name="Слой 2"><g id="Слой_1-2" data-name="Слой 1"><path class="cls-1" d="M160.79,173.93a6.73,6.73,0,0,0,4.52,1.78,4.83,4.83,0,0,0,4.95-4.25H163v-2.25h7.31a4.79,4.79,0,0,0-4.95-4.22,6.48,6.48,0,0,0-4.33,1.72l-1.33-2.08a8.09,8.09,0,0,1,5.74-2.14,7.48,7.48,0,0,1,7.78,7.77,7.68,7.68,0,0,1-7.89,8,8.46,8.46,0,0,1-5.91-2.33Z"/><path class="cls-2" d="M219.73,162.74h2.77v6.2h2l3.58-6.2h3L226.74,170v0L231.3,178h-3.12l-3.71-6.65h-2V178h-2.77Z"/><path class="cls-3" d="M283.69,162.49a8.14,8.14,0,0,1,5.61,2.07L288,166.62a6.75,6.75,0,0,0-4.15-1.61,4.9,4.9,0,0,0-5.1,5.23c0,2.85,1.82,5.45,5.12,5.45a6.52,6.52,0,0,0,4.41-1.93l1.46,2a8.16,8.16,0,0,1-6,2.46,7.86,7.86,0,0,1,0-15.72Z"/><path class="cls-4" d="M335.84,162.74h12.32V178h-2.77V165.12H338.6V178h-2.76Z"/><path class="cls-5" d="M402.56,162.49a7.68,7.68,0,0,1,7.86,7.75,7.87,7.87,0,1,1-15.73,0A7.68,7.68,0,0,1,402.56,162.49Zm0,13.2a5.19,5.19,0,0,0,5-5.45,5,5,0,1,0-10,0A5.19,5.19,0,0,0,402.56,175.69Z"/><path class="cls-6" d="M60.72,0C80.56,24.12,115.84,38.56,148,39c-.24,10.44-.41,17.31.22,27.83C107,69.34,62.57,52,36.31,20.07Z"/><path class="cls-7" d="M66.83,47.13s0,1.4,0,1.38A122.48,122.48,0,0,1,41,26.4S49.05,36.69,66.83,47.13Z"/><path class="cls-8" d="M69.12,48.66l.15.1c1.21.69,2.43,1.37,3.67,2a147.72,147.72,0,0,0,37.92,14.11,137.66,137.66,0,0,0,34.2,3.25c1.08,0,2.05-.09,2.9-.14l-.29,1.78a134.6,134.6,0,0,1-36.61-3.11,146.77,146.77,0,0,1-37.63-14c-1.72-.93-3.41-1.88-5.08-2.87,0,.41.06.83.08,1.24q2.23,1.29,4.51,2.52a147.12,147.12,0,0,0,37.92,14.18A136.69,136.69,0,0,0,145.06,71l2.44-.12-.28,1.78a134.31,134.31,0,0,1-36.16-3.13A146.15,146.15,0,0,1,73.43,55.42q-2.52-1.37-5-2.81l.09,1.23q2.16,1.27,4.38,2.47a146.86,146.86,0,0,0,37.92,14.24,135.62,135.62,0,0,0,34.2,3.24c.71,0,1.38-.05,2-.09l-.28,1.78a133.64,133.64,0,0,1-35.71-3.15A145.18,145.18,0,0,1,73.43,58.17c-1.64-.88-3.25-1.8-4.84-2.74l.09,1.23c1.4.82,2.82,1.63,4.26,2.41a146.61,146.61,0,0,0,37.92,14.3,135.15,135.15,0,0,0,34.2,3.24l1.54-.07-.29,1.78a133.39,133.39,0,0,1-35.25-3.17A144.94,144.94,0,0,1,73.43,60.93q-2.39-1.3-4.71-2.68c0,.41,0,.82.08,1.23q2,1.2,4.14,2.35a145.87,145.87,0,0,0,37.92,14.36,134.22,134.22,0,0,0,34.2,3.24l1.09-.05-.29,1.78A132.81,132.81,0,0,1,111.06,78,144.33,144.33,0,0,1,73.43,63.69c-1.55-.85-3.08-1.73-4.59-2.62,0,.41.06.82.08,1.23,1.33.78,2.66,1.54,4,2.28A144.93,144.93,0,0,0,110.86,79a133.19,133.19,0,0,0,34.2,3.23l.63,0L145.41,84a132.18,132.18,0,0,1-34.35-3.2A143.74,143.74,0,0,1,73.43,66.45Q71.16,65.21,69,63.88l.09,1.24c1.28.75,2.58,1.5,3.89,2.22a144.56,144.56,0,0,0,37.92,14.49,132.74,132.74,0,0,0,34.2,3.23h.18L145,86.83a131.64,131.64,0,0,1-33.9-3.22A143.17,143.17,0,0,1,73.43,69.2Q71.22,68,69.08,66.7l.09,1.23c1.24.74,2.5,1.46,3.77,2.16a143.29,143.29,0,0,0,37.92,14.55,131.76,131.76,0,0,0,33.93,3.25l-.28,1.77a130.75,130.75,0,0,1-33.45-3.24A142.44,142.44,0,0,1,73.43,72c-1.43-.79-2.83-1.61-4.22-2.44,0,.41.05.82.08,1.23,1.2.72,2.42,1.42,3.65,2.1a143.4,143.4,0,0,0,37.92,14.61,131.2,131.2,0,0,0,33.48,3.26l-.29,1.77a130.14,130.14,0,0,1-33-3.25A142.22,142.22,0,0,1,73.43,74.72q-2.07-1.17-4.1-2.38c0,.41,0,.82.08,1.23,1.17.69,2.34,1.37,3.53,2a142.86,142.86,0,0,0,37.92,14.68,130.65,130.65,0,0,0,33,3.27l-.28,1.77a130.13,130.13,0,0,1-32.54-3.26A141.67,141.67,0,0,1,73.43,77.47q-2-1.12-4-2.31l.09,1.23c1.12.67,2.25,1.33,3.4,2a141.94,141.94,0,0,0,37.92,14.73,129.82,129.82,0,0,0,32.57,3.29l-.28,1.77a129.33,129.33,0,0,1-32.09-3.28A141,141,0,0,1,73.43,80.23q-2-1.1-3.86-2.25l.09,1.23c1.08.64,2.17,1.28,3.28,1.9a141.74,141.74,0,0,0,37.92,14.8A129.38,129.38,0,0,0,143,99.21L142.7,101a128.44,128.44,0,0,1-31.64-3.29A140.74,140.74,0,0,1,73.43,83c-1.26-.72-2.5-1.45-3.74-2.19L69.78,82c1,.62,2.09,1.24,3.16,1.84a141.2,141.2,0,0,0,37.92,14.86A129,129,0,0,0,142.53,102l-.28,1.76a128,128,0,0,1-31.19-3.29A139.89,139.89,0,0,1,73.43,85.74c-1.22-.69-2.42-1.4-3.61-2.12,0,.41.05.82.08,1.23,1,.6,2,1.19,3,1.77a140.66,140.66,0,0,0,37.92,14.92,128.76,128.76,0,0,0,31.22,3.33l-.28,1.76a127.31,127.31,0,0,1-30.74-3.31A139.66,139.66,0,0,1,73.43,88.5c-1.18-.67-2.34-1.36-3.49-2.06,0,.41.06.82.08,1.23,1,.58,1.94,1.15,2.92,1.71a140.45,140.45,0,0,0,37.92,15,127.9,127.9,0,0,0,30.77,3.33l-.28,1.76a126.43,126.43,0,0,1-30.29-3.31A138.82,138.82,0,0,1,73.43,91.25c-1.14-.65-2.26-1.31-3.37-2l.09,1.23c.92.56,1.85,1.1,2.79,1.64a139.62,139.62,0,0,0,37.92,15.05,127,127,0,0,0,30.32,3.33l-.28,1.77A126.26,126.26,0,0,1,111.06,109,138.6,138.6,0,0,1,73.43,94c-1.09-.63-2.17-1.28-3.25-1.93l-.39-.23s-2.08-39.13-2.42-44.37C67.37,47.48,69,48.53,69.12,48.66Z"/><path class="cls-9" d="M.84,48.72c19.59,20.12,17.84,46.06,9.91,73,.85.17,43.59-.51,45.8-.51,11.85-33.94-2.8-67-28.74-93.6C19.7,33.91,9,42.42.84,48.72Z"/><polygon class="cls-10" points="24.9 154.63 56.7 154.17 56.74 156.3 25.8 156.74 24.9 154.63"/><polygon class="cls-11" points="26.37 158.09 56.76 157.65 56.8 159.78 27.26 160.2 26.37 158.09"/><polygon class="cls-12" points="23.43 151.17 56.64 150.69 56.68 152.82 24.33 153.28 23.43 151.17"/><polygon class="cls-13" points="30.77 168.47 56.94 168.09 56.98 170.24 31.68 170.6 30.77 168.47"/><polygon class="cls-14" points="27.84 161.55 56.82 161.13 56.86 163.26 28.73 163.66 27.84 161.55"/><polygon class="cls-15" points="20.49 144.25 56.52 143.73 56.56 145.86 21.39 146.36 20.49 144.25"/><polygon class="cls-16" points="29.3 165.01 56.88 164.62 56.92 166.74 30.2 167.12 30.2 167.13 29.3 165.01"/><polygon class="cls-17" points="57.04 173.7 33.14 174.04 32.25 171.95 57 171.6 57.04 173.7"/><polygon class="cls-18" points="21.96 147.71 56.58 147.21 56.62 149.34 22.86 149.82 21.96 147.71"/><polygon class="cls-19" points="11.68 123.48 56.16 122.85 56.2 124.97 12.57 125.6 11.68 123.48"/><polygon class="cls-20" points="33.71 175.39 57.06 175.06 57.1 177.18 34.61 177.5 33.71 175.39"/><polygon class="cls-21" points="13.15 126.94 56.22 126.33 56.26 128.45 14.04 129.06 13.15 126.94"/><polygon class="cls-22" points="16.09 133.86 56.34 133.29 56.38 135.41 16.98 135.98 16.09 133.86"/><polygon class="cls-23" points="14.62 130.4 56.28 129.81 56.31 131.94 15.51 132.52 14.62 130.4"/><polygon class="cls-24" points="17.55 137.32 56.4 136.77 56.44 138.9 18.45 139.44 17.55 137.32"/><polygon class="cls-25" points="19.02 140.78 56.46 140.25 56.49 142.38 19.92 142.9 19.02 140.78"/><path class="cls-26" d="M62,97.8s.47,12.49-3.59,23.23c-.09,0-.17,55.88-.17,55.88a81.33,81.33,0,0,0,5.16-26.24C63.57,138.82,62,97.8,62,97.8Z"/><path class="cls-27" d="M15.24,89.3s.93-9.73-4.15-22.94C5,53.33,0,49.69,0,49.69Z"/><path class="cls-28" d="M52.91,60.13c6.1-2.5,9.17-4,13.3-10.4-13.72-7.88-30-27.11-30-27.11l-6.07,5.1S48.61,49.35,52.91,60.13Z"/><path class="cls-29" d="M66.59,51c-1.2,3.08-6.73,7.9-13.1,10.25,7.89,13.28,8.68,35.44,8.68,35.44a58.21,58.21,0,0,0,6.73-4.2Z"/><path class="cls-30" d="M240.85,69.77h-6.11V97.64h6.11c4.12,0,6.35-1.88,6.35-7.76V77.53C247.2,71.65,245,69.77,240.85,69.77Z"/><path class="cls-31" d="M286.72,102.58h-7.53v26h7.53c4.11,0,6.58-1.88,6.58-7.76V110.34C293.3,104.46,290.83,102.58,286.72,102.58Z"/><polygon class="cls-32" points="186.29 114.22 198.75 114.22 192.52 72.59 186.29 114.22"/><polygon class="cls-33" points="327.29 114.22 339.76 114.22 333.52 72.59 327.29 114.22"/><path class="cls-34" d="M159.85,39.89V154.66H408.29V39.89Zm42.9,100.44-2.23-14.94H184.64l-2.23,14.94H170.53L183.7,58h18.93l13.17,82.32Zm57.39-51.28c0,13.18-6.35,20.35-19.29,20.35h-6.11v30.93H221.8V58h19c12.94,0,19.29,7.17,19.29,20.34ZM306.24,120c0,13.18-6.59,20.35-19.52,20.35H266.25V58h36.23V69.77H279.19v21h7.53c12.93,0,19.52,7.17,19.52,20.34Zm37.51,20.35-2.23-14.94H325.64l-2.23,14.94H311.53L324.7,58h18.94l13.17,82.32ZM399,69.77H385.5v70.56H372.57V69.77H359V58h40Z"/></g></g></svg>